*
*
G04 PADS 9.3 Build Number: 433611 generated Gerber (RS-274-X) file*
G04 PC Version=2.1*
*
%IN "V00.pcb"*%
*
%MOIN*%
*
%FSLAX35Y35*%
*
*
*
*
G04 PC Standard Apertures*
*
*
G04 Thermal Relief Aperture macro.*
%AMTER*
1,1,$1,0,0*
1,0,$1-$2,0,0*
21,0,$3,$4,0,0,45*
21,0,$3,$4,0,0,135*
%
*
*
G04 Annular Aperture macro.*
%AMANN*
1,1,$1,0,0*
1,0,$2,0,0*
%
*
*
G04 Odd Aperture macro.*
%AMODD*
1,1,$1,0,0*
1,0,$1-0.005,0,0*
%
*
*
G04 PC Custom Aperture Macros*
*
*
*
*
*
*
G04 PC Aperture Table*
*
%ADD010C,0.00984*%
%ADD014C,0.06299*%
%ADD029C,0.06*%
%ADD032C,0.05906*%
%ADD034C,0.07874*%
%ADD036R,0.06X0.06*%
%ADD037C,0.03937*%
%ADD041R,0.05906X0.05906*%
%ADD044R,0.06299X0.06299*%
%ADD046R,0.036X0.036*%
%ADD047C,0.01*%
%ADD057C,0.01969*%
%ADD060C,0.0315*%
%ADD064C,0.01181*%
%ADD071C,0.00787*%
%ADD110C,0.001*%
%ADD111R,0.04724X0.04724*%
%ADD113C,0.07087*%
%ADD117C,0.02756*%
%ADD135C,0.04724*%
%ADD173R,0.06693X0.06693*%
%ADD308R,0.0748X0.03937*%
%ADD333R,0.03937X0.0748*%
%ADD364R,0.036X0.05*%
%ADD451R,0.075X0.06*%
*
*
*
*
G04 PC Circuitry*
G04 Layer Name V00.pcb - circuitry*
%LPD*%
*
*
G04 PC Custom Flashes*
G04 Layer Name V00.pcb - flashes*
%LPD*%
*
*
G04 PC Circuitry*
G04 Layer Name V00.pcb - circuitry*
%LPD*%
*
G54D10*
G01X1966422Y1591924D02*
X1970484D01*
X1978813Y1600253*
X1990093*
X2010614Y1620775*
Y1627158*
X2012429Y1628972*
X2020860*
Y1634403*
X2009278*
X2001752Y1627107*
Y1620734*
X1993062Y1612045*
X1986847*
X1981936Y1607134*
X1968842*
X1968078Y1606371*
X1965755Y1596769*
Y1592591*
X1966422Y1591924*
X1963920Y1584379D02*
X1960056Y1580516D01*
Y1559732*
X1973988Y1543764*
X2028881*
Y1561715*
X2018809*
X2017555Y1562969*
Y1568303*
X2018843Y1569591*
X2023335*
X2025812Y1572068*
Y1586160*
X2030041*
Y1542813*
X2028958Y1541730*
X1971732*
X1953870Y1558533*
Y1585115*
X1964148*
Y1584379*
X1963920*
X1961364Y1581294D02*
X1984362D01*
X1986593Y1584176*
X1993812*
X1995197Y1585561*
Y1589661*
X1990473*
X1988577Y1587765*
X1977330*
X1975892Y1586327*
X1961364*
Y1581294*
X2062580Y1563094D02*
X2046846D01*
Y1595136*
X2041938Y1600044*
Y1654841*
X2045277Y1658180*
X2093019*
X2117828Y1633371*
Y1586544*
X2101944Y1570660*
X2098852*
X2096655Y1572857*
Y1577527*
X2099438Y1580311*
Y1587542*
X2103501Y1591605*
Y1626882*
X2081529Y1648854*
X2047057*
X2045987Y1647784*
Y1605824*
X2055939*
X2059049Y1602715*
Y1572144*
X2062580Y1568612*
Y1563094*
X2099076Y1576239D02*
Y1546417D01*
X2097233Y1544573*
X2052137*
X2047807Y1548904*
Y1561759*
X2050115Y1564067*
X2049425Y1564757*
X2046864*
Y1543953*
X2048852Y1541965*
X2111973*
X2114508Y1544499*
Y1557001*
X2107021Y1564488*
Y1576239*
X2099076*
X2026277Y1592682D02*
X2031297Y1586464D01*
Y1565251*
X2029360Y1562275*
X2027278Y1564356*
Y1583880*
X2025268Y1585890*
Y1592681*
X2026277Y1592682*
X2020917Y1638822D02*
Y1644691D01*
X2017858Y1647750*
Y1656913*
X1910860*
X1882020Y1628073*
Y1572990*
X1882020D02*
X1888873D01*
X1888873D02*
Y1622070D01*
X1903576Y1636773*
X1948053*
X1950901Y1639621*
X2013603*
X2014402Y1638822*
X2020917*
X1880273Y1554881D02*
X1903898D01*
Y1541812*
X1880273*
Y1554881*
X1969512Y1556268D02*
X1969069D01*
X1965058Y1560279*
Y1567662*
X1965747Y1568352*
X1971773*
X1972319Y1567805*
Y1554551*
X1971700*
X1969512Y1557127*
Y1556268*
X2008783Y1633923D02*
X2020860D01*
X2007751Y1632923D02*
X2020860D01*
X2006720Y1631923D02*
X2020860D01*
X2005688Y1630923D02*
X2020860D01*
X2004657Y1629923D02*
X2020860D01*
X2003625Y1628923D02*
X2012379D01*
X2002594Y1627923D02*
X2011379D01*
X2001752Y1626923D02*
X2010614D01*
X2001752Y1625923D02*
X2010614D01*
X2001752Y1624923D02*
X2010614D01*
X2001752Y1623923D02*
X2010614D01*
X2001752Y1622923D02*
X2010614D01*
X2001752Y1621923D02*
X2010614D01*
X2001752Y1620923D02*
X2010614D01*
X2000940Y1619923D02*
X2009762D01*
X1999940Y1618923D02*
X2008762D01*
X1998940Y1617923D02*
X2007762D01*
X1997940Y1616923D02*
X2006762D01*
X1996940Y1615923D02*
X2005762D01*
X1995940Y1614923D02*
X2004762D01*
X1994940Y1613923D02*
X2003762D01*
X1993940Y1612923D02*
X2002762D01*
X1986725Y1611923D02*
X2001762D01*
X1985725Y1610923D02*
X2000762D01*
X1984725Y1609923D02*
X1999762D01*
X1983725Y1608923D02*
X1998762D01*
X1982725Y1607923D02*
X1997762D01*
X1968630Y1606923D02*
X1996762D01*
X1967970Y1605923D02*
X1995762D01*
X1967728Y1604923D02*
X1994762D01*
X1967486Y1603923D02*
X1993762D01*
X1967244Y1602923D02*
X1992762D01*
X1967002Y1601923D02*
X1991762D01*
X1966760Y1600923D02*
X1990762D01*
X1966518Y1599923D02*
X1978483D01*
X1966276Y1598923D02*
X1977483D01*
X1966034Y1597923D02*
X1976483D01*
X1965792Y1596923D02*
X1975483D01*
X1965755Y1595923D02*
X1974483D01*
X1965755Y1594923D02*
X1973483D01*
X1965755Y1593923D02*
X1972483D01*
X1965755Y1592923D02*
X1971483D01*
X2025812Y1585728D02*
X2030041D01*
X2025812Y1584728D02*
X2030041D01*
X2025812Y1583728D02*
X2030041D01*
X2025812Y1582728D02*
X2030041D01*
X2025812Y1581728D02*
X2030041D01*
X2025812Y1580728D02*
X2030041D01*
X2025812Y1579728D02*
X2030041D01*
X2025812Y1578728D02*
X2030041D01*
X2025812Y1577728D02*
X2030041D01*
X2025812Y1576728D02*
X2030041D01*
X2025812Y1575728D02*
X2030041D01*
X2025812Y1574728D02*
X2030041D01*
X2025812Y1573728D02*
X2030041D01*
X2025812Y1572728D02*
X2030041D01*
X2025473Y1571728D02*
X2030041D01*
X2024473Y1570728D02*
X2030041D01*
X2023473Y1569728D02*
X2030041D01*
X2017981Y1568728D02*
X2030041D01*
X2017555Y1567728D02*
X2030041D01*
X2017555Y1566728D02*
X2030041D01*
X2017555Y1565728D02*
X2030041D01*
X2017555Y1564728D02*
X2030041D01*
X2017555Y1563728D02*
X2030041D01*
X2017796Y1562728D02*
X2030041D01*
X2018796Y1561728D02*
X2030041D01*
X2028881Y1560728D02*
X2030041D01*
X2028881Y1559728D02*
X2030041D01*
X2028881Y1558728D02*
X2030041D01*
X2028881Y1557728D02*
X2030041D01*
X2028881Y1556728D02*
X2030041D01*
X2028881Y1555728D02*
X2030041D01*
X2028881Y1554728D02*
X2030041D01*
X2028881Y1553728D02*
X2030041D01*
X2028881Y1552728D02*
X2030041D01*
X2028881Y1551728D02*
X2030041D01*
X2028881Y1550728D02*
X2030041D01*
X2028881Y1549728D02*
X2030041D01*
X2028881Y1548728D02*
X2030041D01*
X2028881Y1547728D02*
X2030041D01*
X2028881Y1546728D02*
X2030041D01*
X2028881Y1545728D02*
X2030041D01*
X2028881Y1544728D02*
X2030041D01*
X1969607Y1543728D02*
X2030041D01*
X1970670Y1542728D02*
X2029956D01*
X1968544Y1544728D02*
X1973146D01*
X1967481Y1545728D02*
X1972274D01*
X1966418Y1546728D02*
X1971401D01*
X1965355Y1547728D02*
X1970529D01*
X1964292Y1548728D02*
X1969656D01*
X1963229Y1549728D02*
X1968784D01*
X1962166Y1550728D02*
X1967911D01*
X1961103Y1551728D02*
X1967039D01*
X1960040Y1552728D02*
X1966166D01*
X1958977Y1553728D02*
X1965294D01*
X1957914Y1554728D02*
X1964421D01*
X1953870Y1584728D02*
X1964148D01*
X1956851Y1555728D02*
X1963549D01*
X1953870Y1583728D02*
X1963269D01*
X1955788Y1556728D02*
X1962677D01*
X1953870Y1582728D02*
X1962269D01*
X1954725Y1557728D02*
X1961804D01*
X1953870Y1581728D02*
X1961269D01*
X1953870Y1558728D02*
X1960932D01*
X1953870Y1580728D02*
X1960269D01*
X1953870Y1559728D02*
X1960059D01*
X1953870Y1579728D02*
X1960056D01*
X1953870Y1578728D02*
X1960056D01*
X1953870Y1577728D02*
X1960056D01*
X1953870Y1576728D02*
X1960056D01*
X1953870Y1575728D02*
X1960056D01*
X1953870Y1574728D02*
X1960056D01*
X1953870Y1573728D02*
X1960056D01*
X1953870Y1572728D02*
X1960056D01*
X1953870Y1571728D02*
X1960056D01*
X1953870Y1570728D02*
X1960056D01*
X1953870Y1569728D02*
X1960056D01*
X1953870Y1568728D02*
X1960056D01*
X1953870Y1567728D02*
X1960056D01*
X1953870Y1566728D02*
X1960056D01*
X1953870Y1565728D02*
X1960056D01*
X1953870Y1564728D02*
X1960056D01*
X1953870Y1563728D02*
X1960056D01*
X1953870Y1562728D02*
X1960056D01*
X1953870Y1561728D02*
X1960056D01*
X1953870Y1560728D02*
X1960056D01*
X1990104Y1589293D02*
X1995197D01*
X1989104Y1588293D02*
X1995197D01*
X1976857Y1587293D02*
X1995197D01*
X1961364Y1586293D02*
X1995197D01*
X1961364Y1585293D02*
X1994929D01*
X1961364Y1584293D02*
X1993929D01*
X1961364Y1583293D02*
X1985910D01*
X1961364Y1582293D02*
X1985135D01*
X2097290Y1633093D02*
X2117828D01*
X2098290Y1632093D02*
X2117828D01*
X2099290Y1631093D02*
X2117828D01*
X2100290Y1630093D02*
X2117828D01*
X2101290Y1629093D02*
X2117828D01*
X2102290Y1628093D02*
X2117828D01*
X2103290Y1627093D02*
X2117828D01*
X2103501Y1626093D02*
X2117828D01*
X2103501Y1625093D02*
X2117828D01*
X2103501Y1624093D02*
X2117828D01*
X2103501Y1623093D02*
X2117828D01*
X2103501Y1622093D02*
X2117828D01*
X2103501Y1621093D02*
X2117828D01*
X2103501Y1620093D02*
X2117828D01*
X2103501Y1619093D02*
X2117828D01*
X2103501Y1618093D02*
X2117828D01*
X2103501Y1617093D02*
X2117828D01*
X2103501Y1616093D02*
X2117828D01*
X2103501Y1615093D02*
X2117828D01*
X2103501Y1614093D02*
X2117828D01*
X2103501Y1613093D02*
X2117828D01*
X2103501Y1612093D02*
X2117828D01*
X2103501Y1611093D02*
X2117828D01*
X2103501Y1610093D02*
X2117828D01*
X2103501Y1609093D02*
X2117828D01*
X2103501Y1608093D02*
X2117828D01*
X2103501Y1607093D02*
X2117828D01*
X2103501Y1606093D02*
X2117828D01*
X2103501Y1605093D02*
X2117828D01*
X2103501Y1604093D02*
X2117828D01*
X2103501Y1603093D02*
X2117828D01*
X2103501Y1602093D02*
X2117828D01*
X2103501Y1601093D02*
X2117828D01*
X2103501Y1600093D02*
X2117828D01*
X2103501Y1599093D02*
X2117828D01*
X2103501Y1598093D02*
X2117828D01*
X2103501Y1597093D02*
X2117828D01*
X2103501Y1596093D02*
X2117828D01*
X2103501Y1595093D02*
X2117828D01*
X2103501Y1594093D02*
X2117828D01*
X2103501Y1593093D02*
X2117828D01*
X2103501Y1592093D02*
X2117828D01*
X2102990Y1591093D02*
X2117828D01*
X2101990Y1590093D02*
X2117828D01*
X2100990Y1589093D02*
X2117828D01*
X2099990Y1588093D02*
X2117828D01*
X2099438Y1587093D02*
X2117828D01*
X2099438Y1586093D02*
X2117378D01*
X2096290Y1634093D02*
X2117106D01*
X2099438Y1585093D02*
X2116378D01*
X2095290Y1635093D02*
X2116106D01*
X2099438Y1584093D02*
X2115378D01*
X2094290Y1636093D02*
X2115106D01*
X2099438Y1583093D02*
X2114378D01*
X2093290Y1637093D02*
X2114106D01*
X2099438Y1582093D02*
X2113378D01*
X2092290Y1638093D02*
X2113106D01*
X2099438Y1581093D02*
X2112378D01*
X2091290Y1639093D02*
X2112106D01*
X2099221Y1580093D02*
X2111378D01*
X2090290Y1640093D02*
X2111106D01*
X2098221Y1579093D02*
X2110378D01*
X2089290Y1641093D02*
X2110106D01*
X2097221Y1578093D02*
X2109378D01*
X2088290Y1642093D02*
X2109106D01*
X2096655Y1577093D02*
X2108378D01*
X2087290Y1643093D02*
X2108106D01*
X2096655Y1576093D02*
X2107378D01*
X2086290Y1644093D02*
X2107106D01*
X2096655Y1575093D02*
X2106378D01*
X2085290Y1645093D02*
X2106106D01*
X2096655Y1574093D02*
X2105378D01*
X2084290Y1646093D02*
X2105106D01*
X2096655Y1573093D02*
X2104378D01*
X2083290Y1647093D02*
X2104106D01*
X2097419Y1572093D02*
X2103378D01*
X2082290Y1648093D02*
X2103106D01*
X2098419Y1571093D02*
X2102378D01*
X2041938Y1649093D02*
X2102106D01*
X2041938Y1650093D02*
X2101106D01*
X2041938Y1651093D02*
X2100106D01*
X2041938Y1652093D02*
X2099106D01*
X2041938Y1653093D02*
X2098106D01*
X2041938Y1654093D02*
X2097106D01*
X2042191Y1655093D02*
X2096106D01*
X2043191Y1656093D02*
X2095106D01*
X2044191Y1657093D02*
X2094106D01*
X2045191Y1658093D02*
X2093106D01*
X2046846Y1568093D02*
X2062580D01*
X2046846Y1567093D02*
X2062580D01*
X2046846Y1566093D02*
X2062580D01*
X2046846Y1565093D02*
X2062580D01*
X2046846Y1564093D02*
X2062580D01*
X2046846Y1569093D02*
X2062099D01*
X2046846Y1570093D02*
X2061099D01*
X2046846Y1571093D02*
X2060099D01*
X2046846Y1572093D02*
X2059099D01*
X2041938Y1602093D02*
X2059049D01*
X2041938Y1601093D02*
X2059049D01*
X2041938Y1600093D02*
X2059049D01*
X2042889Y1599093D02*
X2059049D01*
X2043889Y1598093D02*
X2059049D01*
X2044889Y1597093D02*
X2059049D01*
X2045889Y1596093D02*
X2059049D01*
X2046846Y1595093D02*
X2059049D01*
X2046846Y1594093D02*
X2059049D01*
X2046846Y1593093D02*
X2059049D01*
X2046846Y1592093D02*
X2059049D01*
X2046846Y1591093D02*
X2059049D01*
X2046846Y1590093D02*
X2059049D01*
X2046846Y1589093D02*
X2059049D01*
X2046846Y1588093D02*
X2059049D01*
X2046846Y1587093D02*
X2059049D01*
X2046846Y1586093D02*
X2059049D01*
X2046846Y1585093D02*
X2059049D01*
X2046846Y1584093D02*
X2059049D01*
X2046846Y1583093D02*
X2059049D01*
X2046846Y1582093D02*
X2059049D01*
X2046846Y1581093D02*
X2059049D01*
X2046846Y1580093D02*
X2059049D01*
X2046846Y1579093D02*
X2059049D01*
X2046846Y1578093D02*
X2059049D01*
X2046846Y1577093D02*
X2059049D01*
X2046846Y1576093D02*
X2059049D01*
X2046846Y1575093D02*
X2059049D01*
X2046846Y1574093D02*
X2059049D01*
X2046846Y1573093D02*
X2059049D01*
X2041938Y1603093D02*
X2058670D01*
X2041938Y1604093D02*
X2057670D01*
X2041938Y1605093D02*
X2056670D01*
X2041938Y1648093D02*
X2046296D01*
X2041938Y1647093D02*
X2045987D01*
X2041938Y1646093D02*
X2045987D01*
X2041938Y1645093D02*
X2045987D01*
X2041938Y1644093D02*
X2045987D01*
X2041938Y1643093D02*
X2045987D01*
X2041938Y1642093D02*
X2045987D01*
X2041938Y1641093D02*
X2045987D01*
X2041938Y1640093D02*
X2045987D01*
X2041938Y1639093D02*
X2045987D01*
X2041938Y1638093D02*
X2045987D01*
X2041938Y1637093D02*
X2045987D01*
X2041938Y1636093D02*
X2045987D01*
X2041938Y1635093D02*
X2045987D01*
X2041938Y1634093D02*
X2045987D01*
X2041938Y1633093D02*
X2045987D01*
X2041938Y1632093D02*
X2045987D01*
X2041938Y1631093D02*
X2045987D01*
X2041938Y1630093D02*
X2045987D01*
X2041938Y1629093D02*
X2045987D01*
X2041938Y1628093D02*
X2045987D01*
X2041938Y1627093D02*
X2045987D01*
X2041938Y1626093D02*
X2045987D01*
X2041938Y1625093D02*
X2045987D01*
X2041938Y1624093D02*
X2045987D01*
X2041938Y1623093D02*
X2045987D01*
X2041938Y1622093D02*
X2045987D01*
X2041938Y1621093D02*
X2045987D01*
X2041938Y1620093D02*
X2045987D01*
X2041938Y1619093D02*
X2045987D01*
X2041938Y1618093D02*
X2045987D01*
X2041938Y1617093D02*
X2045987D01*
X2041938Y1616093D02*
X2045987D01*
X2041938Y1615093D02*
X2045987D01*
X2041938Y1614093D02*
X2045987D01*
X2041938Y1613093D02*
X2045987D01*
X2041938Y1612093D02*
X2045987D01*
X2041938Y1611093D02*
X2045987D01*
X2041938Y1610093D02*
X2045987D01*
X2041938Y1609093D02*
X2045987D01*
X2041938Y1608093D02*
X2045987D01*
X2041938Y1607093D02*
X2045987D01*
X2041938Y1606093D02*
X2045987D01*
X2099076Y1556963D02*
X2114508D01*
X2099076Y1555963D02*
X2114508D01*
X2099076Y1554963D02*
X2114508D01*
X2099076Y1553963D02*
X2114508D01*
X2099076Y1552963D02*
X2114508D01*
X2099076Y1551963D02*
X2114508D01*
X2099076Y1550963D02*
X2114508D01*
X2099076Y1549963D02*
X2114508D01*
X2099076Y1548963D02*
X2114508D01*
X2099076Y1547963D02*
X2114508D01*
X2099076Y1546963D02*
X2114508D01*
X2098622Y1545963D02*
X2114508D01*
X2097622Y1544963D02*
X2114508D01*
X2046864Y1543963D02*
X2113972D01*
X2099076Y1557963D02*
X2113546D01*
X2047853Y1542963D02*
X2112972D01*
X2099076Y1558963D02*
X2112546D01*
X2099076Y1559963D02*
X2111546D01*
X2099076Y1560963D02*
X2110546D01*
X2099076Y1561963D02*
X2109546D01*
X2099076Y1562963D02*
X2108546D01*
X2099076Y1563963D02*
X2107546D01*
X2099076Y1575963D02*
X2107021D01*
X2099076Y1574963D02*
X2107021D01*
X2099076Y1573963D02*
X2107021D01*
X2099076Y1572963D02*
X2107021D01*
X2099076Y1571963D02*
X2107021D01*
X2099076Y1570963D02*
X2107021D01*
X2099076Y1569963D02*
X2107021D01*
X2099076Y1568963D02*
X2107021D01*
X2099076Y1567963D02*
X2107021D01*
X2099076Y1566963D02*
X2107021D01*
X2099076Y1565963D02*
X2107021D01*
X2099076Y1564963D02*
X2107021D01*
X2046864Y1544963D02*
X2051748D01*
X2046864Y1545963D02*
X2050748D01*
X2046864Y1563963D02*
X2050011D01*
X2046864Y1546963D02*
X2049748D01*
X2046864Y1562963D02*
X2049011D01*
X2046864Y1547963D02*
X2048748D01*
X2046864Y1561963D02*
X2048011D01*
X2046864Y1560963D02*
X2047807D01*
X2046864Y1559963D02*
X2047807D01*
X2046864Y1558963D02*
X2047807D01*
X2046864Y1557963D02*
X2047807D01*
X2046864Y1556963D02*
X2047807D01*
X2046864Y1555963D02*
X2047807D01*
X2046864Y1554963D02*
X2047807D01*
X2046864Y1553963D02*
X2047807D01*
X2046864Y1552963D02*
X2047807D01*
X2046864Y1551963D02*
X2047807D01*
X2046864Y1550963D02*
X2047807D01*
X2046864Y1549963D02*
X2047807D01*
X2046864Y1548963D02*
X2047807D01*
X2025268Y1586273D02*
X2031297D01*
X2025885Y1585273D02*
X2031297D01*
X2026885Y1584273D02*
X2031297D01*
X2027278Y1583273D02*
X2031297D01*
X2027278Y1582273D02*
X2031297D01*
X2027278Y1581273D02*
X2031297D01*
X2027278Y1580273D02*
X2031297D01*
X2027278Y1579273D02*
X2031297D01*
X2027278Y1578273D02*
X2031297D01*
X2027278Y1577273D02*
X2031297D01*
X2027278Y1576273D02*
X2031297D01*
X2027278Y1575273D02*
X2031297D01*
X2027278Y1574273D02*
X2031297D01*
X2027278Y1573273D02*
X2031297D01*
X2027278Y1572273D02*
X2031297D01*
X2027278Y1571273D02*
X2031297D01*
X2027278Y1570273D02*
X2031297D01*
X2027278Y1569273D02*
X2031297D01*
X2027278Y1568273D02*
X2031297D01*
X2027278Y1567273D02*
X2031297D01*
X2027278Y1566273D02*
X2031297D01*
X2027278Y1565273D02*
X2031297D01*
X2027361Y1564273D02*
X2030660D01*
X2025268Y1587273D02*
X2030643D01*
X2028361Y1563273D02*
X2030010D01*
X2025268Y1588273D02*
X2029836D01*
X2025268Y1589273D02*
X2029029D01*
X2025268Y1590273D02*
X2028221D01*
X2025268Y1591273D02*
X2027414D01*
X2025268Y1592273D02*
X2026607D01*
X1897935Y1643988D02*
X2020917D01*
X1896935Y1642988D02*
X2020917D01*
X1895935Y1641988D02*
X2020917D01*
X1894935Y1640988D02*
X2020917D01*
X1893935Y1639988D02*
X2020917D01*
X2014235Y1638988D02*
X2020917D01*
X1898935Y1644988D02*
X2020620D01*
X1899935Y1645988D02*
X2019620D01*
X1900935Y1646988D02*
X2018620D01*
X1909935Y1655988D02*
X2017858D01*
X1908935Y1654988D02*
X2017858D01*
X1907935Y1653988D02*
X2017858D01*
X1906935Y1652988D02*
X2017858D01*
X1905935Y1651988D02*
X2017858D01*
X1904935Y1650988D02*
X2017858D01*
X1903935Y1649988D02*
X2017858D01*
X1902935Y1648988D02*
X2017858D01*
X1901935Y1647988D02*
X2017858D01*
X1892935Y1638988D02*
X1950269D01*
X1891935Y1637988D02*
X1949269D01*
X1890935Y1636988D02*
X1948269D01*
X1889935Y1635988D02*
X1902791D01*
X1888935Y1634988D02*
X1901791D01*
X1887935Y1633988D02*
X1900791D01*
X1886935Y1632988D02*
X1899791D01*
X1885935Y1631988D02*
X1898791D01*
X1884935Y1630988D02*
X1897791D01*
X1883935Y1629988D02*
X1896791D01*
X1882935Y1628988D02*
X1895791D01*
X1882020Y1627988D02*
X1894791D01*
X1882020Y1626988D02*
X1893791D01*
X1882020Y1625988D02*
X1892791D01*
X1882020Y1624988D02*
X1891791D01*
X1882020Y1623988D02*
X1890791D01*
X1882020Y1622988D02*
X1889791D01*
X1882020Y1621988D02*
X1888873D01*
X1882020Y1620988D02*
X1888873D01*
X1882020Y1619988D02*
X1888873D01*
X1882020Y1618988D02*
X1888873D01*
X1882020Y1617988D02*
X1888873D01*
X1882020Y1616988D02*
X1888873D01*
X1882020Y1615988D02*
X1888873D01*
X1882020Y1614988D02*
X1888873D01*
X1882020Y1613988D02*
X1888873D01*
X1882020Y1612988D02*
X1888873D01*
X1882020Y1611988D02*
X1888873D01*
X1882020Y1610988D02*
X1888873D01*
X1882020Y1609988D02*
X1888873D01*
X1882020Y1608988D02*
X1888873D01*
X1882020Y1607988D02*
X1888873D01*
X1882020Y1606988D02*
X1888873D01*
X1882020Y1605988D02*
X1888873D01*
X1882020Y1604988D02*
X1888873D01*
X1882020Y1603988D02*
X1888873D01*
X1882020Y1602988D02*
X1888873D01*
X1882020Y1601988D02*
X1888873D01*
X1882020Y1600988D02*
X1888873D01*
X1882020Y1599988D02*
X1888873D01*
X1882020Y1598988D02*
X1888873D01*
X1882020Y1597988D02*
X1888873D01*
X1882020Y1596988D02*
X1888873D01*
X1882020Y1595988D02*
X1888873D01*
X1882020Y1594988D02*
X1888873D01*
X1882020Y1593988D02*
X1888873D01*
X1882020Y1592988D02*
X1888873D01*
X1882020Y1591988D02*
X1888873D01*
X1882020Y1590988D02*
X1888873D01*
X1882020Y1589988D02*
X1888873D01*
X1882020Y1588988D02*
X1888873D01*
X1882020Y1587988D02*
X1888873D01*
X1882020Y1586988D02*
X1888873D01*
X1882020Y1585988D02*
X1888873D01*
X1882020Y1584988D02*
X1888873D01*
X1882020Y1583988D02*
X1888873D01*
X1882020Y1582988D02*
X1888873D01*
X1882020Y1581988D02*
X1888873D01*
X1882020Y1580988D02*
X1888873D01*
X1882020Y1579988D02*
X1888873D01*
X1882020Y1578988D02*
X1888873D01*
X1882020Y1577988D02*
X1888873D01*
X1882020Y1576988D02*
X1888873D01*
X1882020Y1575988D02*
X1888873D01*
X1882020Y1574988D02*
X1888873D01*
X1882020Y1573988D02*
X1888873D01*
X1880273Y1554811D02*
X1903898D01*
X1880273Y1553811D02*
X1903898D01*
X1880273Y1552811D02*
X1903898D01*
X1880273Y1551811D02*
X1903898D01*
X1880273Y1550811D02*
X1903898D01*
X1880273Y1549811D02*
X1903898D01*
X1880273Y1548811D02*
X1903898D01*
X1880273Y1547811D02*
X1903898D01*
X1880273Y1546811D02*
X1903898D01*
X1880273Y1545811D02*
X1903898D01*
X1880273Y1544811D02*
X1903898D01*
X1880273Y1543811D02*
X1903898D01*
X1880273Y1542811D02*
X1903898D01*
X1965058Y1567550D02*
X1972319D01*
X1965058Y1566550D02*
X1972319D01*
X1965058Y1565550D02*
X1972319D01*
X1965058Y1564550D02*
X1972319D01*
X1965058Y1563550D02*
X1972319D01*
X1965058Y1562550D02*
X1972319D01*
X1965058Y1561550D02*
X1972319D01*
X1965058Y1560550D02*
X1972319D01*
X1965787Y1559550D02*
X1972319D01*
X1966787Y1558550D02*
X1972319D01*
X1967787Y1557550D02*
X1972319D01*
X1970002Y1556550D02*
X1972319D01*
X1970852Y1555550D02*
X1972319D01*
X1968787Y1556550D02*
X1969512D01*
X2020755Y1628972D02*
Y1634403D01*
X2019755Y1628972D02*
Y1634403D01*
X2018755Y1628972D02*
Y1634403D01*
X2017755Y1628972D02*
Y1634403D01*
X2016755Y1628972D02*
Y1634403D01*
X2015755Y1628972D02*
Y1634403D01*
X2014755Y1628972D02*
Y1634403D01*
X2013755Y1628972D02*
Y1634403D01*
X2012755Y1628972D02*
Y1634403D01*
X2011755Y1628298D02*
Y1634403D01*
X2010755Y1627298D02*
Y1634403D01*
X2009755Y1619915D02*
Y1634403D01*
X2008755Y1618915D02*
Y1633895D01*
X2007755Y1617915D02*
Y1632926D01*
X2006755Y1616915D02*
Y1631956D01*
X2005755Y1615915D02*
Y1630987D01*
X2004755Y1614915D02*
Y1630018D01*
X2003755Y1613915D02*
Y1629048D01*
X2002755Y1612915D02*
Y1628079D01*
X2001755Y1611915D02*
Y1627109D01*
X2000755Y1610915D02*
Y1619737D01*
X1999755Y1609915D02*
Y1618737D01*
X1998755Y1608915D02*
Y1617737D01*
X1997755Y1607915D02*
Y1616737D01*
X1996755Y1606915D02*
Y1615737D01*
X1995755Y1605915D02*
Y1614737D01*
X1994755Y1604915D02*
Y1613737D01*
X1993755Y1603915D02*
Y1612737D01*
X1992755Y1602915D02*
Y1612045D01*
X1991755Y1601915D02*
Y1612045D01*
X1990755Y1600915D02*
Y1612045D01*
X1989755Y1600253D02*
Y1612045D01*
X1988755Y1600253D02*
Y1612045D01*
X1987755Y1600253D02*
Y1612045D01*
X1986755Y1600253D02*
Y1611952D01*
X1985755Y1600253D02*
Y1610952D01*
X1984755Y1600253D02*
Y1609952D01*
X1983755Y1600253D02*
Y1608952D01*
X1982755Y1600253D02*
Y1607952D01*
X1981755Y1600253D02*
Y1607134D01*
X1980755Y1600253D02*
Y1607134D01*
X1979755Y1600253D02*
Y1607134D01*
X1978755Y1600195D02*
Y1607134D01*
X1977755Y1599195D02*
Y1607134D01*
X1976755Y1598195D02*
Y1607134D01*
X1975755Y1597195D02*
Y1607134D01*
X1974755Y1596195D02*
Y1607134D01*
X1973755Y1595195D02*
Y1607134D01*
X1972755Y1594195D02*
Y1607134D01*
X1971755Y1593195D02*
Y1607134D01*
X1970755Y1592195D02*
Y1607134D01*
X1969755Y1591924D02*
Y1607134D01*
X1968755Y1591924D02*
Y1607047D01*
X1967755Y1591924D02*
Y1605033D01*
X1966755Y1591924D02*
Y1600901D01*
X2029870Y1542642D02*
Y1586160D01*
X2028870Y1561715D02*
Y1586160D01*
Y1541730D02*
Y1543764D01*
X2027870Y1561715D02*
Y1586160D01*
Y1541730D02*
Y1543764D01*
X2026870Y1561715D02*
Y1586160D01*
Y1541730D02*
Y1543764D01*
X2025870Y1561715D02*
Y1586160D01*
Y1541730D02*
Y1543764D01*
X2024870Y1561715D02*
Y1571126D01*
Y1541730D02*
Y1543764D01*
X2023870Y1561715D02*
Y1570126D01*
Y1541730D02*
Y1543764D01*
X2022870Y1561715D02*
Y1569591D01*
Y1541730D02*
Y1543764D01*
X2021870Y1561715D02*
Y1569591D01*
Y1541730D02*
Y1543764D01*
X2020870Y1561715D02*
Y1569591D01*
Y1541730D02*
Y1543764D01*
X2019870Y1561715D02*
Y1569591D01*
Y1541730D02*
Y1543764D01*
X2018870Y1561715D02*
Y1569591D01*
Y1541730D02*
Y1543764D01*
X2017870Y1562654D02*
Y1568618D01*
Y1541730D02*
Y1543764D01*
X2016870Y1541730D02*
Y1543764D01*
X2015870Y1541730D02*
Y1543764D01*
X2014870Y1541730D02*
Y1543764D01*
X2013870Y1541730D02*
Y1543764D01*
X2012870Y1541730D02*
Y1543764D01*
X2011870Y1541730D02*
Y1543764D01*
X2010870Y1541730D02*
Y1543764D01*
X2009870Y1541730D02*
Y1543764D01*
X2008870Y1541730D02*
Y1543764D01*
X2007870Y1541730D02*
Y1543764D01*
X2006870Y1541730D02*
Y1543764D01*
X2005870Y1541730D02*
Y1543764D01*
X2004870Y1541730D02*
Y1543764D01*
X2003870Y1541730D02*
Y1543764D01*
X2002870Y1541730D02*
Y1543764D01*
X2001870Y1541730D02*
Y1543764D01*
X2000870Y1541730D02*
Y1543764D01*
X1999870Y1541730D02*
Y1543764D01*
X1998870Y1541730D02*
Y1543764D01*
X1997870Y1541730D02*
Y1543764D01*
X1996870Y1541730D02*
Y1543764D01*
X1995870Y1541730D02*
Y1543764D01*
X1994870Y1541730D02*
Y1543764D01*
X1993870Y1541730D02*
Y1543764D01*
X1992870Y1541730D02*
Y1543764D01*
X1991870Y1541730D02*
Y1543764D01*
X1990870Y1541730D02*
Y1543764D01*
X1989870Y1541730D02*
Y1543764D01*
X1988870Y1541730D02*
Y1543764D01*
X1987870Y1541730D02*
Y1543764D01*
X1986870Y1541730D02*
Y1543764D01*
X1985870Y1541730D02*
Y1543764D01*
X1984870Y1541730D02*
Y1543764D01*
X1983870Y1541730D02*
Y1543764D01*
X1982870Y1541730D02*
Y1543764D01*
X1981870Y1541730D02*
Y1543764D01*
X1980870Y1541730D02*
Y1543764D01*
X1979870Y1541730D02*
Y1543764D01*
X1978870Y1541730D02*
Y1543764D01*
X1977870Y1541730D02*
Y1543764D01*
X1976870Y1541730D02*
Y1543764D01*
X1975870Y1541730D02*
Y1543764D01*
X1974870Y1541730D02*
Y1543764D01*
X1973870Y1541730D02*
Y1543898D01*
X1972870Y1541730D02*
Y1545045D01*
X1971870Y1541730D02*
Y1546191D01*
X1970870Y1542540D02*
Y1547337D01*
X1969870Y1543481D02*
Y1548483D01*
X1968870Y1544422D02*
Y1549629D01*
X1967870Y1545363D02*
Y1550776D01*
X1966870Y1546303D02*
Y1551922D01*
X1965870Y1547244D02*
Y1553068D01*
X1964870Y1548185D02*
Y1554214D01*
X1963870Y1584330D02*
Y1585115D01*
Y1549126D02*
Y1555360D01*
X1962870Y1583330D02*
Y1585115D01*
Y1550066D02*
Y1556507D01*
X1961870Y1582330D02*
Y1585115D01*
Y1551007D02*
Y1557653D01*
X1960870Y1581330D02*
Y1585115D01*
Y1551948D02*
Y1558799D01*
X1959870Y1552888D02*
Y1585115D01*
X1958870Y1553829D02*
Y1585115D01*
X1957870Y1554770D02*
Y1585115D01*
X1956870Y1555711D02*
Y1585115D01*
X1955870Y1556651D02*
Y1585115D01*
X1954870Y1557592D02*
Y1585115D01*
X1994364Y1584727D02*
Y1589661D01*
X1993364Y1584176D02*
Y1589661D01*
X1992364Y1584176D02*
Y1589661D01*
X1991364Y1584176D02*
Y1589661D01*
X1990364Y1584176D02*
Y1589552D01*
X1989364Y1584176D02*
Y1588552D01*
X1988364Y1584176D02*
Y1587765D01*
X1987364Y1584176D02*
Y1587765D01*
X1986364Y1583879D02*
Y1587765D01*
X1985364Y1582587D02*
Y1587765D01*
X1984364Y1581296D02*
Y1587765D01*
X1983364Y1581294D02*
Y1587765D01*
X1982364Y1581294D02*
Y1587765D01*
X1981364Y1581294D02*
Y1587765D01*
X1980364Y1581294D02*
Y1587765D01*
X1979364Y1581294D02*
Y1587765D01*
X1978364Y1581294D02*
Y1587765D01*
X1977364Y1581294D02*
Y1587765D01*
X1976364Y1581294D02*
Y1586799D01*
X1975364Y1581294D02*
Y1586327D01*
X1974364Y1581294D02*
Y1586327D01*
X1973364Y1581294D02*
Y1586327D01*
X1972364Y1581294D02*
Y1586327D01*
X1971364Y1581294D02*
Y1586327D01*
X1970364Y1581294D02*
Y1586327D01*
X1969364Y1581294D02*
Y1586327D01*
X1968364Y1581294D02*
Y1586327D01*
X1967364Y1581294D02*
Y1586327D01*
X1966364Y1581294D02*
Y1586327D01*
X1965364Y1581294D02*
Y1586327D01*
X1964364Y1581294D02*
Y1586327D01*
X1963364Y1581294D02*
Y1586327D01*
X1962364Y1581294D02*
Y1586327D01*
X2116938Y1585654D02*
Y1634261D01*
X2115938Y1584654D02*
Y1635261D01*
X2114938Y1583654D02*
Y1636261D01*
X2113938Y1582654D02*
Y1637261D01*
X2112938Y1581654D02*
Y1638261D01*
X2111938Y1580654D02*
Y1639261D01*
X2110938Y1579654D02*
Y1640261D01*
X2109938Y1578654D02*
Y1641261D01*
X2108938Y1577654D02*
Y1642261D01*
X2107938Y1576654D02*
Y1643261D01*
X2106938Y1575654D02*
Y1644261D01*
X2105938Y1574654D02*
Y1645261D01*
X2104938Y1573654D02*
Y1646261D01*
X2103938Y1572654D02*
Y1647261D01*
X2102938Y1627445D02*
Y1648261D01*
Y1571654D02*
Y1591042D01*
X2101938Y1628445D02*
Y1649261D01*
Y1570660D02*
Y1590042D01*
X2100938Y1629445D02*
Y1650261D01*
Y1570660D02*
Y1589042D01*
X2099938Y1630445D02*
Y1651261D01*
Y1570660D02*
Y1588042D01*
X2098938Y1631445D02*
Y1652261D01*
Y1570660D02*
Y1579811D01*
X2097938Y1632445D02*
Y1653261D01*
Y1571574D02*
Y1578811D01*
X2096938Y1633445D02*
Y1654261D01*
Y1572574D02*
Y1577811D01*
X2095938Y1634445D02*
Y1655261D01*
X2094938Y1635445D02*
Y1656261D01*
X2093938Y1636445D02*
Y1657261D01*
X2092938Y1637445D02*
Y1658180D01*
X2091938Y1638445D02*
Y1658180D01*
X2090938Y1639445D02*
Y1658180D01*
X2089938Y1640445D02*
Y1658180D01*
X2088938Y1641445D02*
Y1658180D01*
X2087938Y1642445D02*
Y1658180D01*
X2086938Y1643445D02*
Y1658180D01*
X2085938Y1644445D02*
Y1658180D01*
X2084938Y1645445D02*
Y1658180D01*
X2083938Y1646445D02*
Y1658180D01*
X2082938Y1647445D02*
Y1658180D01*
X2081938Y1648445D02*
Y1658180D01*
X2080938Y1648854D02*
Y1658180D01*
X2079938Y1648854D02*
Y1658180D01*
X2078938Y1648854D02*
Y1658180D01*
X2077938Y1648854D02*
Y1658180D01*
X2076938Y1648854D02*
Y1658180D01*
X2075938Y1648854D02*
Y1658180D01*
X2074938Y1648854D02*
Y1658180D01*
X2073938Y1648854D02*
Y1658180D01*
X2072938Y1648854D02*
Y1658180D01*
X2071938Y1648854D02*
Y1658180D01*
X2070938Y1648854D02*
Y1658180D01*
X2069938Y1648854D02*
Y1658180D01*
X2068938Y1648854D02*
Y1658180D01*
X2067938Y1648854D02*
Y1658180D01*
X2066938Y1648854D02*
Y1658180D01*
X2065938Y1648854D02*
Y1658180D01*
X2064938Y1648854D02*
Y1658180D01*
X2063938Y1648854D02*
Y1658180D01*
X2062938Y1648854D02*
Y1658180D01*
X2061938Y1648854D02*
Y1658180D01*
Y1563094D02*
Y1569254D01*
X2060938Y1648854D02*
Y1658180D01*
Y1563094D02*
Y1570254D01*
X2059938Y1648854D02*
Y1658180D01*
Y1563094D02*
Y1571254D01*
X2058938Y1648854D02*
Y1658180D01*
Y1563094D02*
Y1602825D01*
X2057938Y1648854D02*
Y1658180D01*
Y1563094D02*
Y1603825D01*
X2056938Y1648854D02*
Y1658180D01*
Y1563094D02*
Y1604825D01*
X2055938Y1648854D02*
Y1658180D01*
Y1563094D02*
Y1605824D01*
X2054938Y1648854D02*
Y1658180D01*
Y1563094D02*
Y1605824D01*
X2053938Y1648854D02*
Y1658180D01*
Y1563094D02*
Y1605824D01*
X2052938Y1648854D02*
Y1658180D01*
Y1563094D02*
Y1605824D01*
X2051938Y1648854D02*
Y1658180D01*
Y1563094D02*
Y1605824D01*
X2050938Y1648854D02*
Y1658180D01*
Y1563094D02*
Y1605824D01*
X2049938Y1648854D02*
Y1658180D01*
Y1563094D02*
Y1605824D01*
X2048938Y1648854D02*
Y1658180D01*
Y1563094D02*
Y1605824D01*
X2047938Y1648854D02*
Y1658180D01*
Y1563094D02*
Y1605824D01*
X2046938Y1648735D02*
Y1658180D01*
Y1563094D02*
Y1605824D01*
X2045938Y1596044D02*
Y1658180D01*
X2044938Y1597044D02*
Y1657841D01*
X2043938Y1598044D02*
Y1656841D01*
X2042938Y1599044D02*
Y1655841D01*
X2113864Y1543855D02*
Y1557645D01*
X2112864Y1542855D02*
Y1558645D01*
X2111864Y1541965D02*
Y1559645D01*
X2110864Y1541965D02*
Y1560645D01*
X2109864Y1541965D02*
Y1561645D01*
X2108864Y1541965D02*
Y1562645D01*
X2107864Y1541965D02*
Y1563645D01*
X2106864Y1541965D02*
Y1576239D01*
X2105864Y1541965D02*
Y1576239D01*
X2104864Y1541965D02*
Y1576239D01*
X2103864Y1541965D02*
Y1576239D01*
X2102864Y1541965D02*
Y1576239D01*
X2101864Y1541965D02*
Y1576239D01*
X2100864Y1541965D02*
Y1576239D01*
X2099864Y1541965D02*
Y1576239D01*
X2098864Y1541965D02*
Y1546204D01*
X2097864Y1541965D02*
Y1545204D01*
X2096864Y1541965D02*
Y1544573D01*
X2095864Y1541965D02*
Y1544573D01*
X2094864Y1541965D02*
Y1544573D01*
X2093864Y1541965D02*
Y1544573D01*
X2092864Y1541965D02*
Y1544573D01*
X2091864Y1541965D02*
Y1544573D01*
X2090864Y1541965D02*
Y1544573D01*
X2089864Y1541965D02*
Y1544573D01*
X2088864Y1541965D02*
Y1544573D01*
X2087864Y1541965D02*
Y1544573D01*
X2086864Y1541965D02*
Y1544573D01*
X2085864Y1541965D02*
Y1544573D01*
X2084864Y1541965D02*
Y1544573D01*
X2083864Y1541965D02*
Y1544573D01*
X2082864Y1541965D02*
Y1544573D01*
X2081864Y1541965D02*
Y1544573D01*
X2080864Y1541965D02*
Y1544573D01*
X2079864Y1541965D02*
Y1544573D01*
X2078864Y1541965D02*
Y1544573D01*
X2077864Y1541965D02*
Y1544573D01*
X2076864Y1541965D02*
Y1544573D01*
X2075864Y1541965D02*
Y1544573D01*
X2074864Y1541965D02*
Y1544573D01*
X2073864Y1541965D02*
Y1544573D01*
X2072864Y1541965D02*
Y1544573D01*
X2071864Y1541965D02*
Y1544573D01*
X2070864Y1541965D02*
Y1544573D01*
X2069864Y1541965D02*
Y1544573D01*
X2068864Y1541965D02*
Y1544573D01*
X2067864Y1541965D02*
Y1544573D01*
X2066864Y1541965D02*
Y1544573D01*
X2065864Y1541965D02*
Y1544573D01*
X2064864Y1541965D02*
Y1544573D01*
X2063864Y1541965D02*
Y1544573D01*
X2062864Y1541965D02*
Y1544573D01*
X2061864Y1541965D02*
Y1544573D01*
X2060864Y1541965D02*
Y1544573D01*
X2059864Y1541965D02*
Y1544573D01*
X2058864Y1541965D02*
Y1544573D01*
X2057864Y1541965D02*
Y1544573D01*
X2056864Y1541965D02*
Y1544573D01*
X2055864Y1541965D02*
Y1544573D01*
X2054864Y1541965D02*
Y1544573D01*
X2053864Y1541965D02*
Y1544573D01*
X2052864Y1541965D02*
Y1544573D01*
X2051864Y1541965D02*
Y1544847D01*
X2050864Y1541965D02*
Y1545847D01*
X2049864Y1563815D02*
Y1564318D01*
Y1541965D02*
Y1546847D01*
X2048864Y1562815D02*
Y1564757D01*
Y1541965D02*
Y1547847D01*
X2047864Y1561815D02*
Y1564757D01*
Y1542953D02*
Y1548847D01*
X2031268Y1565207D02*
Y1586500D01*
X2030268Y1563670D02*
Y1587738D01*
X2029268Y1562367D02*
Y1588977D01*
X2028268Y1563367D02*
Y1590216D01*
X2027268Y1583890D02*
Y1591455D01*
X2026268Y1584890D02*
Y1592682D01*
X2020020Y1638822D02*
Y1645589D01*
X2019020Y1638822D02*
Y1646589D01*
X2018020Y1638822D02*
Y1647589D01*
X2017020Y1638822D02*
Y1656913D01*
X2016020Y1638822D02*
Y1656913D01*
X2015020Y1638822D02*
Y1656913D01*
X2014020Y1639204D02*
Y1656913D01*
X2013020Y1639621D02*
Y1656913D01*
X2012020Y1639621D02*
Y1656913D01*
X2011020Y1639621D02*
Y1656913D01*
X2010020Y1639621D02*
Y1656913D01*
X2009020Y1639621D02*
Y1656913D01*
X2008020Y1639621D02*
Y1656913D01*
X2007020Y1639621D02*
Y1656913D01*
X2006020Y1639621D02*
Y1656913D01*
X2005020Y1639621D02*
Y1656913D01*
X2004020Y1639621D02*
Y1656913D01*
X2003020Y1639621D02*
Y1656913D01*
X2002020Y1639621D02*
Y1656913D01*
X2001020Y1639621D02*
Y1656913D01*
X2000020Y1639621D02*
Y1656913D01*
X1999020Y1639621D02*
Y1656913D01*
X1998020Y1639621D02*
Y1656913D01*
X1997020Y1639621D02*
Y1656913D01*
X1996020Y1639621D02*
Y1656913D01*
X1995020Y1639621D02*
Y1656913D01*
X1994020Y1639621D02*
Y1656913D01*
X1993020Y1639621D02*
Y1656913D01*
X1992020Y1639621D02*
Y1656913D01*
X1991020Y1639621D02*
Y1656913D01*
X1990020Y1639621D02*
Y1656913D01*
X1989020Y1639621D02*
Y1656913D01*
X1988020Y1639621D02*
Y1656913D01*
X1987020Y1639621D02*
Y1656913D01*
X1986020Y1639621D02*
Y1656913D01*
X1985020Y1639621D02*
Y1656913D01*
X1984020Y1639621D02*
Y1656913D01*
X1983020Y1639621D02*
Y1656913D01*
X1982020Y1639621D02*
Y1656913D01*
X1981020Y1639621D02*
Y1656913D01*
X1980020Y1639621D02*
Y1656913D01*
X1979020Y1639621D02*
Y1656913D01*
X1978020Y1639621D02*
Y1656913D01*
X1977020Y1639621D02*
Y1656913D01*
X1976020Y1639621D02*
Y1656913D01*
X1975020Y1639621D02*
Y1656913D01*
X1974020Y1639621D02*
Y1656913D01*
X1973020Y1639621D02*
Y1656913D01*
X1972020Y1639621D02*
Y1656913D01*
X1971020Y1639621D02*
Y1656913D01*
X1970020Y1639621D02*
Y1656913D01*
X1969020Y1639621D02*
Y1656913D01*
X1968020Y1639621D02*
Y1656913D01*
X1967020Y1639621D02*
Y1656913D01*
X1966020Y1639621D02*
Y1656913D01*
X1965020Y1639621D02*
Y1656913D01*
X1964020Y1639621D02*
Y1656913D01*
X1963020Y1639621D02*
Y1656913D01*
X1962020Y1639621D02*
Y1656913D01*
X1961020Y1639621D02*
Y1656913D01*
X1960020Y1639621D02*
Y1656913D01*
X1959020Y1639621D02*
Y1656913D01*
X1958020Y1639621D02*
Y1656913D01*
X1957020Y1639621D02*
Y1656913D01*
X1956020Y1639621D02*
Y1656913D01*
X1955020Y1639621D02*
Y1656913D01*
X1954020Y1639621D02*
Y1656913D01*
X1953020Y1639621D02*
Y1656913D01*
X1952020Y1639621D02*
Y1656913D01*
X1951020Y1639621D02*
Y1656913D01*
X1950020Y1638739D02*
Y1656913D01*
X1949020Y1637739D02*
Y1656913D01*
X1948020Y1636773D02*
Y1656913D01*
X1947020Y1636773D02*
Y1656913D01*
X1946020Y1636773D02*
Y1656913D01*
X1945020Y1636773D02*
Y1656913D01*
X1944020Y1636773D02*
Y1656913D01*
X1943020Y1636773D02*
Y1656913D01*
X1942020Y1636773D02*
Y1656913D01*
X1941020Y1636773D02*
Y1656913D01*
X1940020Y1636773D02*
Y1656913D01*
X1939020Y1636773D02*
Y1656913D01*
X1938020Y1636773D02*
Y1656913D01*
X1937020Y1636773D02*
Y1656913D01*
X1936020Y1636773D02*
Y1656913D01*
X1935020Y1636773D02*
Y1656913D01*
X1934020Y1636773D02*
Y1656913D01*
X1933020Y1636773D02*
Y1656913D01*
X1932020Y1636773D02*
Y1656913D01*
X1931020Y1636773D02*
Y1656913D01*
X1930020Y1636773D02*
Y1656913D01*
X1929020Y1636773D02*
Y1656913D01*
X1928020Y1636773D02*
Y1656913D01*
X1927020Y1636773D02*
Y1656913D01*
X1926020Y1636773D02*
Y1656913D01*
X1925020Y1636773D02*
Y1656913D01*
X1924020Y1636773D02*
Y1656913D01*
X1923020Y1636773D02*
Y1656913D01*
X1922020Y1636773D02*
Y1656913D01*
X1921020Y1636773D02*
Y1656913D01*
X1920020Y1636773D02*
Y1656913D01*
X1919020Y1636773D02*
Y1656913D01*
X1918020Y1636773D02*
Y1656913D01*
X1917020Y1636773D02*
Y1656913D01*
X1916020Y1636773D02*
Y1656913D01*
X1915020Y1636773D02*
Y1656913D01*
X1914020Y1636773D02*
Y1656913D01*
X1913020Y1636773D02*
Y1656913D01*
X1912020Y1636773D02*
Y1656913D01*
X1911020Y1636773D02*
Y1656913D01*
X1910020Y1636773D02*
Y1656073D01*
X1909020Y1636773D02*
Y1655073D01*
X1908020Y1636773D02*
Y1654073D01*
X1907020Y1636773D02*
Y1653073D01*
X1906020Y1636773D02*
Y1652073D01*
X1905020Y1636773D02*
Y1651073D01*
X1904020Y1636773D02*
Y1650073D01*
X1903020Y1636217D02*
Y1649073D01*
X1902020Y1635217D02*
Y1648073D01*
X1901020Y1634217D02*
Y1647073D01*
X1900020Y1633217D02*
Y1646073D01*
X1899020Y1632217D02*
Y1645073D01*
X1898020Y1631217D02*
Y1644073D01*
X1897020Y1630217D02*
Y1643073D01*
X1896020Y1629217D02*
Y1642073D01*
X1895020Y1628217D02*
Y1641073D01*
X1894020Y1627217D02*
Y1640073D01*
X1893020Y1626217D02*
Y1639073D01*
X1892020Y1625217D02*
Y1638073D01*
X1891020Y1624217D02*
Y1637073D01*
X1890020Y1623217D02*
Y1636073D01*
X1889020Y1622217D02*
Y1635073D01*
X1888020Y1572990D02*
Y1634073D01*
X1887020Y1572990D02*
Y1633073D01*
X1886020Y1572990D02*
Y1632073D01*
X1885020Y1572990D02*
Y1631073D01*
X1884020Y1572990D02*
Y1630073D01*
X1883020Y1572990D02*
Y1629073D01*
X1903273Y1541812D02*
Y1554881D01*
X1902273Y1541812D02*
Y1554881D01*
X1901273Y1541812D02*
Y1554881D01*
X1900273Y1541812D02*
Y1554881D01*
X1899273Y1541812D02*
Y1554881D01*
X1898273Y1541812D02*
Y1554881D01*
X1897273Y1541812D02*
Y1554881D01*
X1896273Y1541812D02*
Y1554881D01*
X1895273Y1541812D02*
Y1554881D01*
X1894273Y1541812D02*
Y1554881D01*
X1893273Y1541812D02*
Y1554881D01*
X1892273Y1541812D02*
Y1554881D01*
X1891273Y1541812D02*
Y1554881D01*
X1890273Y1541812D02*
Y1554881D01*
X1889273Y1541812D02*
Y1554881D01*
X1888273Y1541812D02*
Y1554881D01*
X1887273Y1541812D02*
Y1554881D01*
X1886273Y1541812D02*
Y1554881D01*
X1885273Y1541812D02*
Y1554881D01*
X1884273Y1541812D02*
Y1554881D01*
X1883273Y1541812D02*
Y1554881D01*
X1882273Y1541812D02*
Y1554881D01*
X1881273Y1541812D02*
Y1554881D01*
X1972058Y1554551D02*
Y1568066D01*
X1971058Y1555307D02*
Y1568352D01*
X1970058Y1556484D02*
Y1568352D01*
X1969058Y1556279D02*
Y1568352D01*
X1968058Y1557279D02*
Y1568352D01*
X1967058Y1558279D02*
Y1568352D01*
X1966058Y1559279D02*
Y1568352D01*
G54D14*
X2018193Y1631717D03*
Y1621874D03*
Y1612031D03*
Y1602189D03*
X2051657D03*
Y1612031D03*
Y1621874D03*
Y1631717D03*
Y1641559D03*
X2085226Y1629806D03*
Y1649491D03*
G54D29*
X2053022Y1555591D03*
Y1565591D03*
X2022707D03*
Y1555591D03*
X1968882Y1574823D03*
Y1594823D03*
X1938882D03*
Y1584823D03*
Y1574823D03*
Y1564823D03*
X1980152Y1642320D03*
Y1622320D03*
X2029337Y1581760D03*
X2049337D03*
G54D32*
X2090643Y1553150D02*
X2090705Y1553211D01*
Y1574902*
X1885537Y1577151D02*
Y1588952D01*
X1885500Y1608224*
X1903844Y1577151D02*
X1911427D01*
X1911428*
X2090705Y1574902D02*
Y1591243D01*
X2090537Y1591411*
X2096163Y1597037*
X1904068Y1597537D02*
X1901291D01*
X1899731Y1599097*
X1904068Y1597537D02*
X1918051D01*
X1918249Y1597735*
X1968882Y1594823D02*
X1971986Y1597927D01*
Y1604633*
X1885500Y1608224D02*
Y1624308D01*
X1901504Y1640312*
X1938715*
X1938911Y1640508*
X1903807Y1608224D02*
X1911402D01*
X1971986Y1604633D02*
X1983385D01*
X1988332Y1609580*
X1995509*
X2006383Y1620454*
Y1627438*
X2010617Y1631672*
X2018193Y1631717*
X2096163Y1607037D02*
Y1619193D01*
X2085127Y1629799*
X2066710Y1622953D02*
X2066756Y1624612D01*
Y1637134*
X2062331Y1641559*
X2051657*
X2085017Y1622953D02*
X2085127Y1629799D01*
X2085226Y1629806*
X1939236Y1641559D02*
X2018193D01*
G54D34*
X1887056Y1547938D03*
X1926215Y1547770D03*
X2090643Y1553150D03*
X2105945Y1552686D03*
X1899731Y1547916D02*
X1899709Y1547938D01*
X1887056*
G54D36*
X1968882Y1564823D03*
G54D37*
X2051657Y1595890D02*
X2052493Y1601354D01*
X2051657Y1597071*
X2050822Y1601354*
X2051657Y1595890*
X2051330Y1598031D02*
X2051470D01*
X2051845D02*
X2051985D01*
X2051181Y1599006D02*
Y1599514D01*
X1944882Y1584823D02*
X1939611Y1585552D01*
X1943850Y1584823*
X1939611Y1584093*
X1944882Y1584823*
X1940945Y1584278D02*
Y1584323D01*
Y1585323D02*
Y1585368D01*
X1944882Y1584823D02*
X1944882D01*
X2090228Y1645662D02*
X2086397Y1649646D01*
X2089290Y1646380*
X2085381Y1648320*
X2090228Y1645662*
X2086781Y1649213D02*
X2086814D01*
X2086614Y1647644D02*
Y1647708D01*
Y1649401D02*
Y1649420D01*
X2090346Y1645821D02*
X2086391Y1649683D01*
X2089386Y1646509*
X2085418Y1648325*
X2090346Y1645821*
X2086835Y1649213D02*
X2086873D01*
X2086614Y1647718D02*
Y1647778D01*
Y1649447D02*
Y1649465D01*
X2073791Y1555583D02*
X2063472D01*
X2105945Y1552686D02*
Y1558890D01*
X2101836Y1562999*
X2101895Y1570660*
X1979718Y1568287D02*
Y1574825D01*
X2000772Y1567425D02*
Y1578193D01*
X2027278Y1564450D02*
X2026138Y1565591D01*
X2022707*
X2051657Y1602189D02*
Y1567026D01*
X2053022*
Y1565591D02*
Y1565661D01*
X2051657Y1567026*
X2062580D02*
X2053022D01*
X2063472Y1567000D02*
X2063446Y1567026D01*
X2062580*
X1992261Y1578228D02*
X2000650D01*
X2000693Y1578272*
X2098852Y1574902D02*
X2098579D01*
X2101895D02*
X2099076D01*
X2101938Y1576239D02*
X2102000Y1584282D01*
X2099076Y1574902D02*
X2098852D01*
X2101895Y1570660D02*
X2101928Y1574901D01*
X2101938Y1576239*
X2101928Y1574901D02*
X2101927Y1574902D01*
X2101895*
X1938882Y1584823D02*
X1953870D01*
X1956171*
X1963920D02*
X1964148D01*
X1977467*
X1963920D02*
X1961364D01*
X1956171*
X1977467D02*
X1978941Y1586297D01*
X1992261Y1586102D02*
Y1588462D01*
X1992442*
X1993642Y1589661*
X1992261Y1586102D02*
X1992067Y1586297D01*
X1978941*
X2102000Y1584282D02*
X2106215D01*
X2109008Y1587075*
Y1631289*
X2085226Y1649491*
X1993642Y1589661D02*
X2014432Y1610452D01*
X2068684Y1591653D02*
Y1601327D01*
X2051657Y1602189D02*
X2044654D01*
X2043479Y1603364*
Y1647919*
X2046148Y1650588*
X2047057*
X2084815Y1601477D02*
Y1612744D01*
X2014432Y1610452D02*
X2016012Y1612031D01*
X2018193*
X2068684Y1612744D02*
X2084815D01*
X2085017Y1612946D02*
Y1622953D01*
X1971986Y1622320D02*
X1971218D01*
X1971747Y1622849*
X1969987Y1630882*
X1971986Y1622320D02*
X1980152D01*
X1982055Y1624223*
X1988709Y1624113D02*
X1988598Y1624223D01*
X1982055*
X2089765Y1650588D02*
X2105126Y1635227D01*
X2085226Y1649491*
X2047057Y1650588D02*
X2085226D01*
X2089765*
G54D41*
X2096163Y1607037D03*
Y1597037D03*
G54D44*
X2018193Y1641559D03*
G54D46*
X2077246Y1601408D03*
X2084746D03*
G54D47*
X1956171Y1557256D02*
X1940360D01*
X1928348Y1574124*
Y1593786*
X1928358Y1596978*
Y1625091*
X1956126*
Y1599332*
X1956171*
Y1557256*
X1968293Y1632543D02*
Y1620027D01*
X1968630Y1619690*
X1983974*
X1985200Y1620916*
X1991958*
X1992173Y1621131*
Y1632543*
X1968293*
X1901017Y1611115D02*
Y1596290D01*
X1914282*
Y1611115*
X1901017*
X1928358Y1598655D02*
X1956171D01*
X1928358Y1597755D02*
X1956171D01*
X1928358Y1596855D02*
X1956171D01*
X1928355Y1595955D02*
X1956171D01*
X1928352Y1595055D02*
X1956171D01*
X1928349Y1594155D02*
X1956171D01*
X1928348Y1593255D02*
X1956171D01*
X1928348Y1592355D02*
X1956171D01*
X1928348Y1591455D02*
X1956171D01*
X1928348Y1590555D02*
X1956171D01*
X1928348Y1589655D02*
X1956171D01*
X1928348Y1588755D02*
X1956171D01*
X1928348Y1587855D02*
X1956171D01*
X1928348Y1586955D02*
X1956171D01*
X1928348Y1586055D02*
X1956171D01*
X1928348Y1585155D02*
X1956171D01*
X1928348Y1584255D02*
X1956171D01*
X1928348Y1583355D02*
X1956171D01*
X1928348Y1582455D02*
X1956171D01*
X1928348Y1581555D02*
X1956171D01*
X1928348Y1580655D02*
X1956171D01*
X1928348Y1579755D02*
X1956171D01*
X1928348Y1578855D02*
X1956171D01*
X1928348Y1577955D02*
X1956171D01*
X1928348Y1577055D02*
X1956171D01*
X1928348Y1576155D02*
X1956171D01*
X1928348Y1575255D02*
X1956171D01*
X1928348Y1574355D02*
X1956171D01*
X1928825Y1573455D02*
X1956171D01*
X1929466Y1572555D02*
X1956171D01*
X1930107Y1571655D02*
X1956171D01*
X1930747Y1570755D02*
X1956171D01*
X1931388Y1569855D02*
X1956171D01*
X1932029Y1568955D02*
X1956171D01*
X1932670Y1568055D02*
X1956171D01*
X1933311Y1567155D02*
X1956171D01*
X1933952Y1566255D02*
X1956171D01*
X1934593Y1565355D02*
X1956171D01*
X1935234Y1564455D02*
X1956171D01*
X1935875Y1563555D02*
X1956171D01*
X1936516Y1562655D02*
X1956171D01*
X1937157Y1561755D02*
X1956171D01*
X1937797Y1560855D02*
X1956171D01*
X1938438Y1559955D02*
X1956171D01*
X1939079Y1559055D02*
X1956171D01*
X1939720Y1558155D02*
X1956171D01*
X1928358Y1624755D02*
X1956126D01*
X1928358Y1623855D02*
X1956126D01*
X1928358Y1622955D02*
X1956126D01*
X1928358Y1622055D02*
X1956126D01*
X1928358Y1621155D02*
X1956126D01*
X1928358Y1620255D02*
X1956126D01*
X1928358Y1619355D02*
X1956126D01*
X1928358Y1618455D02*
X1956126D01*
X1928358Y1617555D02*
X1956126D01*
X1928358Y1616655D02*
X1956126D01*
X1928358Y1615755D02*
X1956126D01*
X1928358Y1614855D02*
X1956126D01*
X1928358Y1613955D02*
X1956126D01*
X1928358Y1613055D02*
X1956126D01*
X1928358Y1612155D02*
X1956126D01*
X1928358Y1611255D02*
X1956126D01*
X1928358Y1610355D02*
X1956126D01*
X1928358Y1609455D02*
X1956126D01*
X1928358Y1608555D02*
X1956126D01*
X1928358Y1607655D02*
X1956126D01*
X1928358Y1606755D02*
X1956126D01*
X1928358Y1605855D02*
X1956126D01*
X1928358Y1604955D02*
X1956126D01*
X1928358Y1604055D02*
X1956126D01*
X1928358Y1603155D02*
X1956126D01*
X1928358Y1602255D02*
X1956126D01*
X1928358Y1601355D02*
X1956126D01*
X1928358Y1600455D02*
X1956126D01*
X1928358Y1599555D02*
X1956126D01*
X1968293Y1632289D02*
X1992173D01*
X1968293Y1631389D02*
X1992173D01*
X1968293Y1630489D02*
X1992173D01*
X1968293Y1629589D02*
X1992173D01*
X1968293Y1628689D02*
X1992173D01*
X1968293Y1627789D02*
X1992173D01*
X1968293Y1626889D02*
X1992173D01*
X1968293Y1625989D02*
X1992173D01*
X1968293Y1625089D02*
X1992173D01*
X1968293Y1624189D02*
X1992173D01*
X1968293Y1623289D02*
X1992173D01*
X1968293Y1622389D02*
X1992173D01*
X1968293Y1621489D02*
X1992173D01*
X1968293Y1620589D02*
X1984873D01*
X1901017Y1610689D02*
X1914282D01*
X1901017Y1609789D02*
X1914282D01*
X1901017Y1608889D02*
X1914282D01*
X1901017Y1607989D02*
X1914282D01*
X1901017Y1607089D02*
X1914282D01*
X1901017Y1606189D02*
X1914282D01*
X1901017Y1605289D02*
X1914282D01*
X1901017Y1604389D02*
X1914282D01*
X1901017Y1603489D02*
X1914282D01*
X1901017Y1602589D02*
X1914282D01*
X1901017Y1601689D02*
X1914282D01*
X1901017Y1600789D02*
X1914282D01*
X1901017Y1599889D02*
X1914282D01*
X1901017Y1598989D02*
X1914282D01*
X1901017Y1598089D02*
X1914282D01*
X1901017Y1597189D02*
X1914282D01*
G54D57*
X2018219Y1555591D02*
X2021104Y1554368D01*
X2018723Y1555591*
X2021104Y1556813*
X2018219Y1555591*
X2020264Y1554724D02*
X2020411D01*
X2020822Y1556693D02*
X2020871D01*
X2019685Y1554970D02*
Y1555097D01*
Y1556084D02*
Y1556211D01*
X1977463Y1548564D02*
X2008240D01*
X2015266Y1555591*
X2022707*
X1977463Y1548564D02*
X1968882Y1557146D01*
Y1564823*
X1979680Y1556832D02*
X1989984Y1556021D01*
X1990462Y1555984*
X2000772Y1556008D02*
X2000758Y1556021D01*
X1989984*
X2063472Y1555583D02*
X2063465Y1555591D01*
X2073843Y1555531D02*
X2073791Y1555583D01*
X1979680Y1568249D02*
X1979718Y1568287D01*
X1989927Y1568249D02*
X1989984Y1568306D01*
X2073843Y1566949D02*
X2072268Y1567012D01*
X1979715Y1574823D02*
X1979718Y1574825D01*
X2000772Y1578193D02*
X2000693Y1578272D01*
X2019000D02*
X2006819Y1590453D01*
X2068654Y1578123D02*
X2072268Y1579352D01*
X2006668Y1589370D02*
X2006819Y1590453D01*
X2018085Y1589370D02*
X2018193Y1590560D01*
X2068654Y1591623D02*
X2068684Y1591653D01*
X2077165Y1601327D02*
X2077246Y1601408D01*
X2084746D02*
X2084815Y1601477D01*
Y1612744D02*
X2085017Y1612946D01*
G54D60*
X1979680Y1568249D02*
X1989927D01*
G54D64*
X2034942Y1550239D02*
X2035028Y1550324D01*
Y1589714*
X2033087Y1591655*
X2029031Y1595852*
Y1644606*
X2026026Y1647612*
X2025963Y1652461*
X2013623Y1611543D02*
X2016785Y1614706D01*
X2020452Y1614701*
X2025657Y1609469*
Y1606938*
X2023796*
X2021141Y1609593*
X2013967*
Y1611543*
X2013623*
X2090645Y1561627D02*
X2095539Y1556733D01*
X2095538Y1549451*
X2094246Y1548159*
X2088069*
X2085520Y1550708*
X2085571Y1556724*
X2090645Y1561627*
X1919197Y1558450D02*
Y1543717D01*
X1920987Y1541927*
X1929841*
X1933218Y1545304*
Y1551423*
X1927661Y1556980*
X1922339*
Y1558450*
X1919197*
X2007759Y1548189D02*
X2023487D01*
Y1555106*
X2013477*
X2007394Y1549023*
Y1548180*
X2007759*
Y1548189*
X2021671Y1609063D02*
X2025657D01*
X2022734Y1608000D02*
X2025657D01*
X2013967Y1610126D02*
X2025004D01*
X2013967Y1611189D02*
X2023946D01*
X2014331Y1612252D02*
X2022889D01*
X2015394Y1613315D02*
X2021831D01*
X2016457Y1614378D02*
X2020774D01*
X2085571Y1556661D02*
X2095539D01*
X2085562Y1555598D02*
X2095539D01*
X2085553Y1554535D02*
X2095539D01*
X2085543Y1553472D02*
X2095538D01*
X2085534Y1552409D02*
X2095538D01*
X2085525Y1551346D02*
X2095538D01*
X2085944Y1550283D02*
X2095538D01*
X2087007Y1549220D02*
X2095308D01*
X2086606Y1557724D02*
X2094547D01*
X2087706Y1558787D02*
X2093485D01*
X2088806Y1559850D02*
X2092422D01*
X2089906Y1560913D02*
X2091359D01*
X1919197Y1550429D02*
X1933218D01*
X1919197Y1549366D02*
X1933218D01*
X1919197Y1548303D02*
X1933218D01*
X1919197Y1547240D02*
X1933218D01*
X1919197Y1546177D02*
X1933218D01*
X1919197Y1551492D02*
X1933149D01*
X1919197Y1545114D02*
X1933028D01*
X1919197Y1552555D02*
X1932086D01*
X1919197Y1544051D02*
X1931965D01*
X1919197Y1553618D02*
X1931023D01*
X1919926Y1542988D02*
X1930902D01*
X1919197Y1554681D02*
X1929960D01*
X1919197Y1555744D02*
X1928897D01*
X1919197Y1556807D02*
X1927834D01*
X1919197Y1557870D02*
X1922339D01*
X2012927Y1554556D02*
X2023487D01*
X2011864Y1553493D02*
X2023487D01*
X2010801Y1552430D02*
X2023487D01*
X2009738Y1551367D02*
X2023487D01*
X2008675Y1550304D02*
X2023487D01*
X2007612Y1549241D02*
X2023487D01*
G54D71*
X2018465Y1551348D02*
X2022707Y1552984D01*
X2020308Y1553191*
X2020101Y1555591*
X2018465Y1551348*
X2018552Y1551575D02*
X2019053D01*
X2018856Y1552362D02*
X2021095D01*
X2019160Y1553150D02*
X2020787D01*
X2019463Y1553937D02*
X2020243D01*
X2019767Y1554724D02*
X2020176D01*
X2020071Y1555512D02*
X2020108D01*
X2018898Y1551515D02*
Y1552470D01*
X2019685Y1551819D02*
Y1554512D01*
X2020472Y1552122D02*
Y1553177D01*
X2021260Y1552426D02*
Y1553109D01*
X2022047Y1552730D02*
Y1553041D01*
X2029337Y1575760D02*
X2031180Y1579917D01*
X2029337Y1578366*
X2027494Y1579917*
X2029337Y1575760*
X2029238Y1575984D02*
X2029437D01*
X2028889Y1576772D02*
X2029786D01*
X2028540Y1577559D02*
X2030135D01*
X2028191Y1578346D02*
X2030484D01*
X2027841Y1579134D02*
X2028425D01*
X2030250D02*
X2030833D01*
X2027559Y1579771D02*
Y1579862D01*
X2028346Y1577995D02*
Y1579200D01*
X2029134Y1576219D02*
Y1578537D01*
X2029921Y1577077D02*
Y1578858D01*
X2030709Y1578853D02*
Y1579520D01*
X1938882Y1570823D02*
X1937039Y1566666D01*
X1938882Y1568217*
X1940725Y1566666*
X1938882Y1570823*
X1937330Y1567323D02*
X1937820D01*
X1939944D02*
X1940434D01*
X1937679Y1568110D02*
X1938756D01*
X1939008D02*
X1940084D01*
X1938028Y1568898D02*
X1939735D01*
X1938377Y1569685D02*
X1939386D01*
X1938727Y1570472D02*
X1939037D01*
X1937795Y1567302D02*
Y1568372D01*
X1938583Y1567965D02*
Y1570148D01*
X1939370Y1567806D02*
Y1569722D01*
X1940157Y1567143D02*
Y1567946D01*
X1938882Y1568823D02*
X1940725Y1572980D01*
X1938882Y1571429*
X1937039Y1572980*
X1938882Y1568823*
X1938849Y1568898D02*
X1938915D01*
X1938500Y1569685D02*
X1939264D01*
X1938151Y1570472D02*
X1939613D01*
X1937802Y1571260D02*
X1939962D01*
X1937452Y1572047D02*
X1938147D01*
X1939616D02*
X1940311D01*
X1937103Y1572835D02*
X1937212D01*
X1940552D02*
X1940660D01*
X1937795Y1571274D02*
Y1572343D01*
X1938583Y1569498D02*
Y1571681D01*
X1939370Y1569924D02*
Y1571840D01*
X1940157Y1571700D02*
Y1572503D01*
X1938882Y1578823D02*
X1940725Y1582980D01*
X1938882Y1581429*
X1937039Y1582980*
X1938882Y1578823*
X1938744Y1579134D02*
X1939020D01*
X1938395Y1579921D02*
X1939369D01*
X1938046Y1580709D02*
X1939718D01*
X1937697Y1581496D02*
X1938802D01*
X1938961D02*
X1940067D01*
X1937348Y1582283D02*
X1937867D01*
X1939897D02*
X1940416D01*
X1937795Y1581274D02*
Y1582343D01*
X1938583Y1579498D02*
Y1581681D01*
X1939370Y1579924D02*
Y1581840D01*
X1940157Y1581700D02*
Y1582503D01*
X1938882Y1590823D02*
X1937039Y1586666D01*
X1938882Y1588217*
X1940725Y1586666*
X1938882Y1590823*
X1937191Y1587008D02*
X1937446D01*
X1940318D02*
X1940573D01*
X1937540Y1587795D02*
X1938381D01*
X1939383D02*
X1940224D01*
X1937889Y1588583D02*
X1939875D01*
X1938238Y1589370D02*
X1939526D01*
X1938587Y1590157D02*
X1939177D01*
X1937795Y1587302D02*
Y1588372D01*
X1938583Y1587965D02*
Y1590148D01*
X1939370Y1587806D02*
Y1589722D01*
X1940157Y1587143D02*
Y1587946D01*
X1938882Y1588823D02*
X1940725Y1592980D01*
X1938882Y1591429*
X1937039Y1592980*
X1938882Y1588823*
X1938639Y1589370D02*
X1939124D01*
X1938290Y1590157D02*
X1939474D01*
X1937941Y1590945D02*
X1939823D01*
X1937592Y1591732D02*
X1938522D01*
X1939242D02*
X1940172D01*
X1937243Y1592520D02*
X1937586D01*
X1940178D02*
X1940521D01*
X1937795Y1591274D02*
Y1592343D01*
X1938583Y1589498D02*
Y1591681D01*
X1939370Y1589924D02*
Y1591840D01*
X1940157Y1591700D02*
Y1592503D01*
X1938911Y1613736D02*
X1941138Y1618596D01*
X1938911Y1616886*
X1936684Y1618596*
X1938911Y1613736*
X1938891Y1613780D02*
X1938931D01*
X1938530Y1614567D02*
X1939291D01*
X1938169Y1615354D02*
X1939652D01*
X1937808Y1616142D02*
X1940013D01*
X1937447Y1616929D02*
X1938854D01*
X1938967D02*
X1940374D01*
X1937087Y1617717D02*
X1937829D01*
X1939993D02*
X1940735D01*
X1936726Y1618504D02*
X1936803D01*
X1941018D02*
X1941096D01*
X1937008Y1617888D02*
Y1618347D01*
X1937795Y1616170D02*
Y1617742D01*
X1938583Y1614452D02*
Y1617138D01*
X1939370Y1614738D02*
Y1617238D01*
X1940157Y1616457D02*
Y1617843D01*
X1940945Y1618175D02*
Y1618448D01*
X2015273Y1548189D02*
X2015306D01*
X2022707Y1555591*
X2027441Y1542427D02*
X1974146D01*
X1956171Y1559933*
X2027441Y1542427D02*
X2029337Y1544323D01*
Y1581760*
X2023525Y1550239D02*
Y1554773D01*
X2022707Y1555591*
X1938882Y1564823D02*
Y1574823D01*
X1953870Y1562234D02*
X1941281Y1574823D01*
X1938882*
X1956171Y1559933D02*
X1953870Y1562234D01*
X1929735Y1577151D02*
Y1588963D01*
X1929709Y1608224*
X1938882Y1584823D02*
Y1577151D01*
X1929735*
X1938882Y1574823D02*
Y1577151D01*
Y1584823D02*
Y1594823D01*
X1977467Y1584823D02*
X1979648D01*
X1979718Y1584892*
Y1586243*
X1904068Y1597537D02*
Y1607963D01*
X1903807Y1608224*
X1938882Y1594823D02*
X1938911Y1594852D01*
Y1620823*
X2013984Y1611905D02*
X2018066D01*
X2018193Y1612031*
X2020584D02*
X2018193D01*
X1877953Y1538976D02*
X2122047D01*
Y1661024*
X1877953*
Y1538976*
X1894882Y1649213D02*
G75*
G03X1894882I-5118J0D01*
G01X1957874Y1548819D02*
G03X1957874I-5118J0D01*
G01X2119291Y1568504D02*
G03X2119291I-5118J0D01*
G01Y1653150D02*
G03X2119291I-5118J0D01*
G01X2032227Y1646068D02*
X2038067D01*
Y1597661*
X2032227*
Y1646068*
X1891136Y1615360D02*
X1894075D01*
Y1570932*
X1891136*
Y1615360*
X1961883Y1601290D02*
Y1588199D01*
X1974504*
Y1590135*
X1963887*
Y1601290*
X1961883*
X2011971Y1613810D02*
X1996703Y1598542D01*
X1994783Y1600462*
X2012692Y1618370*
Y1614580*
X2011971Y1613810*
X2038879Y1586689D02*
X2043714D01*
Y1550610*
X2038879*
Y1586689*
X1921138Y1633446D02*
X1959773D01*
Y1628088*
X1921138*
Y1633446*
X1907944Y1542919D02*
X1912521D01*
Y1559526*
X1907944*
Y1542919*
X2007937Y1637499D02*
X2023051D01*
Y1636005*
X2007937*
Y1637499*
X1920933Y1614769D02*
Y1603186D01*
X1923203Y1600916*
Y1592682*
X1924978*
Y1602547*
X1922920Y1604605*
Y1614769*
X1920933*
X1921364Y1582701D02*
Y1573902D01*
X1925840Y1567236*
X1927079Y1568475*
X1922925Y1574755*
Y1582701*
X1921364*
G54D110*
G54D111*
X1992261Y1578228D03*
X2090705Y1574902D03*
G54D113*
X1938911Y1640508D03*
Y1620823D03*
X1918249Y1597735D03*
Y1568207D03*
X1899731Y1599097D03*
Y1547916D03*
X1926215Y1547770D02*
X1918249Y1568207D01*
Y1568186*
X1911428Y1575008*
Y1577151*
G54D117*
X2059022Y1555591D02*
X2054169Y1556738D01*
X2057400Y1555591*
X2054169Y1554444*
X2059022Y1555591*
X2057178Y1555512D02*
X2058689D01*
X2054331Y1554482D02*
Y1554501D01*
Y1556680D02*
Y1556699D01*
X2057087Y1555133D02*
Y1555479D01*
Y1555702D02*
Y1556048D01*
X1974882Y1574823D02*
X1970029Y1575970D01*
X1973260Y1574823*
X1970029Y1573676*
X1974882Y1574823*
X1973204Y1574803D02*
X1974799D01*
X1971654Y1574060D02*
Y1574253D01*
Y1575393D02*
Y1575586D01*
X1974409Y1574711D02*
Y1574934D01*
X2018193Y1595890D02*
X2019446Y1600936D01*
X2018193Y1597661*
X2016940Y1600936*
X2018193Y1595890*
X2017954Y1596850D02*
X2018431D01*
X2017270Y1599606D02*
X2017449D01*
X2018937D02*
X2019116D01*
X2018504Y1597143D02*
Y1598474D01*
X2063465Y1555591D02*
X2053022D01*
X2072268Y1567012D02*
Y1579352D01*
X1968882Y1574823D02*
X1979715D01*
X2072268Y1579352D02*
X2080996Y1586442D01*
Y1593408*
X2025812Y1586041D02*
X2025268Y1586585D01*
X2024903Y1586950*
Y1607713*
X2022631Y1609985*
X2029337Y1581760D02*
Y1582516D01*
X2025812Y1586041*
X2018193Y1590560D02*
Y1602189D01*
X2068684Y1601327D02*
X2077165D01*
X2022631Y1609985D02*
X2020584Y1612031D01*
G54D135*
X1992261Y1586102D03*
X2098579Y1574902D03*
G54D173*
X1988709Y1642420D03*
Y1624113D03*
X1929735Y1577151D03*
X1911428D03*
X1929709Y1608224D03*
X1911402D03*
X1903807D03*
X1885500D03*
X1903844Y1577151D03*
X1885537D03*
X2066710Y1622953D03*
X2085017D03*
X1971986Y1604633D03*
Y1622940D03*
X2019000Y1578272D03*
X2000693D03*
G54D308*
X2000772Y1556008D03*
Y1567425D03*
X1969987Y1630882D03*
Y1642299D03*
X1979680Y1568249D03*
Y1556832D03*
X1979718Y1574825D03*
Y1586243D03*
X2073843Y1555531D03*
Y1566949D03*
X2063472Y1567000D03*
Y1555583D03*
X2068684Y1601327D03*
Y1612744D03*
G54D333*
X2018085Y1589370D03*
X2006668D03*
X2025963Y1652461D03*
X2014546D03*
X2034942Y1550239D03*
X2023525D03*
X2090583Y1584282D03*
X2102000D03*
G54D364*
X2080996Y1593408D03*
G54D451*
X1989984Y1568306D03*
Y1554806D03*
X2068654Y1578123D03*
Y1591623D03*
G74*
X0Y0D02*
M02*
