%
T1C.02756F197S55
X021431Y013925
X021431Y014713
X031275Y013593
X032063Y013593
T2C.02953F197S55
X031821Y015806
X031821Y016806
T3C.0315F197S55
X030727Y019083
X030727Y021051
T4C.035F197S55
X016093Y012585
X01403Y012923
X016093Y013585
X016093Y014585
X016093Y015585
X01403Y015876
X02022Y020334
X02022Y018334
X019093Y015585
X019093Y013585
X019093Y012585
X024475Y011661
X024475Y012661
X025138Y014278
X027138Y014278
X027507Y012661
X027507Y011661
T5C.03543F197S55
X012178Y010894
X012178Y016012
X016096Y018185
X016096Y020153
X024024Y020258
X024024Y019274
X024024Y01829
X024024Y017306
X024024Y016321
X02737Y016321
X02737Y017306
X02737Y01829
X02737Y019274
X02737Y020258
T6C.05118F107S55
X014826Y010879
X01091Y010896
X031269Y011417
X032799Y011371
M30
