*
*
G04 PADS 9.3 Build Number: 433611 generated Gerber (RS-274-X) file*
G04 PC Version=2.1*
*
%IN "V00.pcb"*%
*
%MOIN*%
*
%FSLAX35Y35*%
*
*
*
*
G04 PC Standard Apertures*
*
*
G04 Thermal Relief Aperture macro.*
%AMTER*
1,1,$1,0,0*
1,0,$1-$2,0,0*
21,0,$3,$4,0,0,45*
21,0,$3,$4,0,0,135*
%
*
*
G04 Annular Aperture macro.*
%AMANN*
1,1,$1,0,0*
1,0,$2,0,0*
%
*
*
G04 Odd Aperture macro.*
%AMODD*
1,1,$1,0,0*
1,0,$1-0.005,0,0*
%
*
*
G04 PC Custom Aperture Macros*
*
*
*
*
*
*
G04 PC Aperture Table*
*
%ADD047C,0.01*%
%ADD050C,0.005*%
%ADD057C,0.01969*%
%ADD064C,0.01181*%
%ADD065C,0.007*%
%ADD071C,0.00787*%
%ADD110C,0.001*%
*
*
*
*
G04 PC Circuitry*
G04 Layer Name V00.pcb - circuitry*
%LPD*%
*
G54D110*
G01X2118233Y1552775D02*
X2114967D01*
Y1552033*
X2118233*
Y1552775*
X2114501Y1601082D02*
X2114170Y1602199D01*
X2113869*
X2114075Y1601497*
X2114027Y1601433*
X2111458*
X2111408Y1601483*
Y1602199*
X2111147*
Y1600316*
X2111408*
Y1601032*
X2111458Y1601082*
X2114501*
X2114473Y1604453D02*
X2111147D01*
Y1602795*
X2111453*
Y1604052*
X2111503Y1604102*
X2114473*
Y1604453*
X2108374Y1552159D02*
X2108287Y1552592D01*
X2108119Y1552887*
X2107778Y1553058*
X2107293Y1553146*
X2107027*
X2106977Y1553196*
Y1554188*
X2107027Y1554238*
X2108240*
Y1554498*
X2106627*
Y1552848*
X2106885Y1552885*
X2106892*
X2107118*
X2107124*
X2107484Y1552840*
X2107501Y1552835*
X2107771Y1552700*
X2107788Y1552686*
X2107968Y1552461*
X2107978Y1552438*
X2108023Y1552167*
X2108024Y1552159*
Y1552152*
X2107979Y1551836*
X2107968Y1551812*
X2107788Y1551587*
X2107774Y1551575*
X2107549Y1551440*
X2107530Y1551433*
X2107215Y1551388*
X2107202*
X2106841Y1551433*
X2106825Y1551438*
X2106536Y1551582*
Y1551332*
X2106818Y1551171*
X2107206Y1551128*
X2107687Y1551215*
X2108075Y1551431*
X2108288Y1551729*
X2108374Y1552159*
X2105986Y1554498D02*
X2103651D01*
Y1554193*
X2104593*
X2104643Y1554143*
Y1551172*
X2104994*
Y1554143*
X2105044Y1554193*
X2105986*
Y1554498*
X2092732Y1552405D02*
X2092331D01*
X2092281Y1552455*
Y1554614*
X2091817*
X2090352Y1552395*
Y1552144*
X2091880*
X2091930Y1552094*
Y1551288*
X2092281*
Y1552094*
X2092331Y1552144*
X2092732*
Y1552405*
X2091930Y1554258D02*
Y1552455D01*
X2091880Y1552405*
X2090753*
X2090711Y1552482*
X2091703Y1554015*
X2091790Y1554145*
X2091833Y1554274*
X2091930Y1554258*
X2090162Y1554614D02*
X2087828D01*
Y1554308*
X2088769*
X2088819Y1554258*
Y1551288*
X2089170*
Y1554258*
X2089220Y1554308*
X2090162*
Y1554614*
X2080603Y1553942D02*
X2078129D01*
X2078079Y1553992*
Y1556467*
X2077337*
Y1553992*
X2077287Y1553942*
X2074813*
Y1553201*
X2077287*
X2077337Y1553151*
Y1550676*
X2078079*
Y1553151*
X2078129Y1553201*
X2080603*
Y1553942*
X2079769Y1573578D02*
X2077550Y1575042D01*
X2077299*
Y1573515*
X2077249Y1573465*
X2076442*
Y1573114*
X2077249*
X2077299Y1573064*
Y1572663*
X2077560*
Y1573064*
X2077610Y1573114*
X2079769*
Y1573578*
X2079413Y1573465D02*
X2077610D01*
X2077560Y1573515*
Y1574642*
X2077637Y1574684*
X2079169Y1573692*
X2079300Y1573605*
X2079429Y1573562*
X2079413Y1573465*
X2079769Y1577116D02*
X2076442D01*
Y1575368*
X2076748*
Y1576715*
X2076798Y1576765*
X2077925*
X2077975Y1576715*
Y1575548*
X2078281*
Y1576715*
X2078331Y1576765*
X2079413*
X2079463Y1576715*
Y1575458*
X2079769*
Y1577116*
X2079813Y1578653D02*
X2079769Y1579004D01*
X2079681Y1579313*
X2079550Y1579619*
X2079332Y1579880*
X2079071Y1580098*
X2078766Y1580229*
X2078412Y1580318*
X2078412D02*
X2078060Y1580361D01*
X2077664Y1580318*
X2077357Y1580230*
X2077094Y1580098*
X2076832Y1579924*
X2076660Y1579709*
X2076529Y1579447*
X2076442Y1579140*
X2076398Y1578788*
X2076442Y1578261*
X2076605Y1577892*
X2076902*
X2076752Y1578228*
X2076748Y1578243*
X2076703Y1578739*
Y1578744*
Y1579014*
X2076707Y1579033*
X2076797Y1579258*
X2076803Y1579270*
X2077074Y1579630*
X2077086Y1579642*
X2077492Y1579912*
X2077511Y1579920*
X2078052Y1580010*
X2078067Y1580011*
X2078383Y1579965*
X2078384*
X2078655Y1579920*
X2078672Y1579914*
X2079123Y1579643*
X2079137Y1579630*
X2079272Y1579450*
X2079275Y1579446*
X2079411Y1579220*
X2079417Y1579203*
X2079507Y1578662*
X2079508Y1578654*
Y1578648*
X2079462Y1578242*
X2079462D02*
X2079460Y1578232D01*
X2079347Y1577892*
X2079649*
X2079769Y1578214*
X2079813Y1578653*
X2081839Y1634170D02*
X2081795Y1634697D01*
X2081631Y1635066*
X2081335*
X2081484Y1634730*
X2081488Y1634714*
X2081533Y1634219*
Y1634214*
Y1633944*
X2081530Y1633925*
X2081439Y1633700*
X2081433Y1633688*
X2081162Y1633327*
X2081150Y1633316*
X2080744Y1633045*
X2080725Y1633038*
X2080184Y1632948*
X2080169Y1632947*
X2079853Y1632992*
X2079852Y1632993*
X2079582Y1633038*
X2079564Y1633044*
X2079113Y1633315*
X2079099Y1633327*
X2078964Y1633508*
X2078961Y1633512*
X2078826Y1633737*
X2078819Y1633755*
X2078729Y1634296*
X2078728Y1634304*
X2078729Y1634310*
X2078774Y1634715*
X2078776Y1634726*
X2078889Y1635066*
X2078588*
X2078467Y1634744*
X2078423Y1634305*
X2078467Y1633954*
X2078555Y1633645*
X2078686Y1633339*
X2078904Y1633077*
X2079165Y1632860*
X2079471Y1632729*
X2079824Y1632640*
X2080176Y1632596*
X2080572Y1632640*
X2080879Y1632728*
X2081142Y1632860*
X2081404Y1633034*
X2081576Y1633249*
X2081707Y1633511*
X2081795Y1633818*
X2081839Y1634170*
X2081794Y1637590D02*
X2081488D01*
Y1636243*
X2081438Y1636193*
X2080311*
X2080261Y1636243*
Y1637410*
X2079955*
Y1636243*
X2079905Y1636193*
X2078823*
X2078773Y1636243*
Y1637500*
X2078468*
Y1635842*
X2081794*
Y1637590*
X2081839Y1638948D02*
X2081795Y1639428D01*
X2081580Y1639815*
X2081282Y1640028*
X2080895Y1640114*
X2080600Y1640072*
X2080350Y1639905*
X2080223Y1639651*
X2080134Y1639339*
X2080086Y1639303*
X2080041*
X2079993Y1639337*
X2079906Y1639599*
X2079738Y1639809*
X2079484Y1639936*
X2079184Y1639979*
X2078890Y1639937*
X2078637Y1639726*
X2078466Y1639427*
X2078423Y1639038*
X2078466Y1638646*
X2078629Y1638321*
X2078872*
X2078735Y1638562*
X2078729Y1638581*
X2078684Y1638941*
Y1638956*
X2078729Y1639226*
X2078732Y1639236*
X2078822Y1639462*
X2078846Y1639488*
X2079026Y1639578*
X2079041Y1639583*
X2079311Y1639628*
X2079329*
X2079554Y1639583*
X2079570Y1639576*
X2079796Y1639441*
X2079818Y1639414*
X2079908Y1639144*
X2079910Y1639134*
X2079955Y1638773*
Y1638767*
Y1638547*
X2080216*
Y1638767*
Y1638773*
X2080261Y1639178*
X2080265Y1639193*
X2080400Y1639508*
X2080411Y1639524*
X2080591Y1639704*
X2080618Y1639718*
X2080889Y1639763*
X2080905*
X2081176Y1639718*
X2081203Y1639704*
X2081383Y1639524*
X2081391Y1639514*
X2081526Y1639289*
X2081533Y1639270*
X2081578Y1638955*
Y1638947*
Y1638942*
X2081533Y1638492*
X2081526Y1638470*
X2081348Y1638186*
X2081591*
X2081795Y1638513*
X2081839Y1638948*
X2066276Y1560590D02*
X2066187Y1560945D01*
X2066186Y1560950*
X2066143Y1561256*
X2066016Y1561467*
X2065670Y1561813*
X2065461Y1561855*
X2065199Y1561898*
X2064942Y1561855*
X2064728Y1561770*
X2064556Y1561640*
X2064384Y1561468*
X2064254Y1561209*
X2064165Y1560899*
X2064077Y1560545*
Y1559746*
X2064165Y1559393*
X2064254Y1559126*
X2064341Y1558909*
X2064513Y1558694*
X2064679Y1558569*
X2064679D02*
X2064892Y1558527D01*
X2065154Y1558483*
X2065415Y1558527*
X2065625Y1558569*
X2065969Y1558913*
X2066099Y1559173*
X2066188Y1559438*
X2066276Y1559791*
Y1560590*
X2065925Y1560146D02*
Y1560142D01*
X2065880Y1559556*
X2065878Y1559544*
X2065742Y1559138*
X2065733Y1559122*
X2065508Y1558851*
X2065485Y1558836*
X2065215Y1558746*
X2065185Y1558745*
X2064870Y1558835*
X2064848Y1558848*
X2064623Y1559073*
X2064610Y1559094*
X2064475Y1559545*
X2064473Y1559556*
X2064428Y1560142*
Y1560146*
Y1560149*
X2064473Y1560780*
X2064475Y1560791*
X2064610Y1561242*
X2064620Y1561260*
X2064845Y1561530*
X2064870Y1561546*
X2065185Y1561636*
X2065213*
X2065528Y1561546*
X2065556Y1561526*
X2065737Y1561255*
X2065743Y1561242*
X2065878Y1560791*
X2065880Y1560780*
X2065925Y1560149*
Y1560146*
X2063526Y1561003D02*
X2063483Y1561387D01*
X2063271Y1561641*
X2062972Y1561855*
X2062542Y1561898*
X2062324Y1561855*
X2062322Y1561854*
X2062061Y1561811*
X2061847Y1561682*
X2061643Y1561519*
Y1561286*
X2061787Y1561402*
X2061792Y1561406*
X2062018Y1561541*
X2062034Y1561547*
X2062484Y1561637*
X2062502*
X2062773Y1561592*
X2062795Y1561583*
X2062975Y1561448*
X2062985Y1561438*
X2063120Y1561258*
X2063130Y1561236*
X2063175Y1560965*
Y1560957*
X2063174Y1560947*
X2063129Y1560722*
X2063128Y1560716*
X2063038Y1560445*
X2063029Y1560429*
X2062803Y1560159*
X2062800Y1560155*
X2061462Y1558818*
Y1558528*
X2063481*
Y1558788*
X2061908*
X2061874Y1558875*
X2062685Y1559641*
X2063087Y1560043*
X2063352Y1560396*
X2063483Y1560700*
X2063526Y1561003*
X2060731Y1561854D02*
X2060380D01*
Y1559830*
Y1559825*
X2060335Y1559374*
X2060329Y1559354*
X2060148Y1559039*
X2060136Y1559025*
X2059911Y1558844*
X2059886Y1558834*
X2059525Y1558789*
X2059513*
X2059152Y1558834*
X2059126Y1558845*
X2058856Y1559070*
X2058844Y1559084*
X2058664Y1559399*
X2058658Y1559419*
X2058613Y1559870*
X2058612Y1559875*
Y1561854*
X2058262*
Y1559834*
X2058350Y1559215*
X2058565Y1558828*
X2058952Y1558570*
X2059478Y1558483*
X2059781*
X2060043Y1558570*
X2060257Y1558655*
X2060428Y1558826*
X2060556Y1558997*
X2060643Y1559259*
X2060731Y1559567*
Y1561854*
X2047064Y1545938D02*
X2046945Y1546413D01*
X2046944Y1546418*
X2046886Y1546829*
X2046714Y1547116*
X2046248Y1547581*
X2045963Y1547638*
X2045611Y1547697*
X2045264Y1547639*
X2044975Y1547523*
X2044743Y1547349*
X2044510Y1547117*
X2044336Y1546768*
X2044217Y1546352*
X2044099Y1545878*
Y1544809*
X2044217Y1544336*
X2044336Y1543978*
X2044453Y1543686*
X2044685Y1543396*
X2044911Y1543226*
X2045200Y1543169*
X2045551Y1543110*
X2045903Y1543169*
X2046188Y1543226*
X2046652Y1543690*
X2046827Y1544040*
X2046946Y1544396*
X2047064Y1544869*
Y1545938*
X2046563Y1545343D02*
Y1545340D01*
X2046503Y1544558*
X2046500Y1544546*
X2046320Y1544005*
X2046311Y1543989*
X2046010Y1543628*
X2045988Y1543613*
X2045627Y1543493*
X2045598Y1543492*
X2045177Y1543612*
X2045155Y1543625*
X2044855Y1543926*
X2044842Y1543947*
X2044662Y1544548*
X2044660Y1544558*
X2044600Y1545340*
Y1545343*
Y1545347*
X2044660Y1546188*
X2044662Y1546199*
X2044842Y1546800*
X2044852Y1546818*
X2045152Y1547179*
X2045177Y1547195*
X2045598Y1547315*
X2045625*
X2046046Y1547195*
X2046074Y1547174*
X2046314Y1546814*
X2046320Y1546800*
X2046501Y1546199*
X2046503Y1546188*
X2046563Y1545347*
Y1545343*
X2043518Y1545938D02*
X2043399Y1546413D01*
X2043398Y1546418*
X2043339Y1546829*
X2043167Y1547116*
X2042702Y1547581*
X2042417Y1547638*
X2042065Y1547697*
X2041718Y1547639*
X2041429Y1547523*
X2041196Y1547349*
X2040964Y1547117*
X2040789Y1546768*
X2040671Y1546352*
X2040552Y1545878*
Y1544809*
X2040670Y1544336*
X2040670D02*
X2040790Y1543978D01*
X2040907Y1543686*
X2041138Y1543396*
X2041365Y1543226*
X2041653Y1543169*
X2042005Y1543110*
X2042357Y1543169*
X2042641Y1543226*
X2043106Y1543690*
X2043281Y1544040*
X2043399Y1544396*
X2043518Y1544869*
Y1545938*
X2043017Y1545343D02*
X2043016Y1545340D01*
X2042956Y1544558*
X2042954Y1544546*
X2042774Y1544005*
X2042765Y1543989*
X2042464Y1543628*
X2042441Y1543613*
X2042081Y1543493*
X2042051Y1543492*
X2041631Y1543612*
X2041609Y1543625*
X2041308Y1543926*
X2041296Y1543947*
X2041116Y1544548*
X2041114Y1544558*
X2041053Y1545340*
Y1545343*
Y1545347*
X2041114Y1546188*
X2041116Y1546199*
X2041296Y1546800*
X2041305Y1546818*
X2041606Y1547179*
X2041631Y1547195*
X2042051Y1547315*
X2042079*
X2042500Y1547195*
X2042527Y1547174*
X2042768Y1546814*
X2042774Y1546800*
X2042954Y1546199*
X2042956Y1546188*
X2043017Y1545347*
Y1545343*
X2040131Y1547638D02*
X2039636D01*
X2038387Y1544129*
X2038328Y1543713*
X2038230Y1543707*
X2038110Y1544126*
X2036861Y1547638*
X2036306*
X2037953Y1543169*
X2038544*
X2040131Y1547638*
X2039316Y1588440D02*
X2039274Y1588735D01*
X2039107Y1588985*
X2038852Y1589112*
X2038541Y1589201*
X2038505Y1589249*
Y1589294*
X2038539Y1589342*
X2038801Y1589429*
X2039011Y1589597*
X2039138Y1589850*
X2039181Y1590151*
X2039139Y1590445*
X2038928Y1590698*
X2038629Y1590869*
X2038240Y1590912*
X2037848Y1590869*
X2037523Y1590706*
Y1590463*
X2037764Y1590600*
X2037783Y1590606*
X2038143Y1590651*
X2038158*
X2038428Y1590606*
X2038438Y1590603*
X2038664Y1590513*
X2038690Y1590489*
X2038780Y1590309*
X2038785Y1590294*
X2038830Y1590024*
X2038831Y1590016*
X2038830Y1590006*
X2038784Y1589781*
X2038778Y1589765*
X2038643Y1589539*
X2038616Y1589517*
X2038346Y1589427*
X2038336Y1589425*
X2037975Y1589380*
X2037969*
X2037749*
Y1589119*
X2037969*
X2037975*
X2038380Y1589074*
X2038394Y1589070*
X2038710Y1588935*
X2038726Y1588924*
X2038906Y1588744*
X2038920Y1588717*
X2038965Y1588446*
Y1588430*
X2038920Y1588159*
X2038906Y1588132*
X2038726Y1587952*
X2038716Y1587944*
X2038491Y1587809*
X2038472Y1587802*
X2038156Y1587757*
X2038144*
X2037694Y1587802*
X2037672Y1587809*
X2037388Y1587987*
Y1587744*
X2037715Y1587540*
X2038150Y1587496*
X2038630Y1587540*
X2039017Y1587755*
X2039230Y1588053*
X2039316Y1588440*
X2035704Y1545113D02*
X2034121D01*
Y1544792*
X2035704*
Y1545113*
X2036747Y1590747D02*
X2036425Y1590868D01*
X2035986Y1590912*
X2035635Y1590868*
X2035326Y1590780*
X2035020Y1590649*
X2034759Y1590431*
X2034541Y1590170*
X2034410Y1589864*
X2034322Y1589511*
X2034278Y1589159*
X2034322Y1588763*
X2034409Y1588456*
X2034541Y1588193*
X2034716Y1587931*
X2034931Y1587759*
X2035192Y1587628*
X2035500Y1587540*
X2035851Y1587496*
X2036379Y1587540*
X2036747Y1587704*
Y1588000*
X2036412Y1587851*
X2036396Y1587847*
X2035900Y1587802*
X2035895*
X2035625*
X2035606Y1587805*
X2035381Y1587896*
X2035369Y1587902*
X2035009Y1588173*
X2034997Y1588185*
X2034727Y1588590*
X2034719Y1588610*
X2034629Y1589151*
X2034628Y1589159*
X2034629Y1589166*
X2034674Y1589482*
Y1589483*
X2034719Y1589753*
X2034725Y1589771*
X2034996Y1590222*
X2035009Y1590236*
X2035189Y1590371*
X2035193Y1590374*
X2035419Y1590509*
X2035436Y1590516*
X2035977Y1590606*
X2035991*
X2036397Y1590561*
X2036407Y1590559*
X2036747Y1590446*
Y1590747*
X2036984Y1648447D02*
X2036268D01*
X2036218Y1648497*
Y1651540*
X2035100Y1651209*
Y1650908*
X2035803Y1651114*
X2035867Y1651066*
Y1648497*
X2035817Y1648447*
X2035100*
Y1648186*
X2036984*
Y1648447*
X2033457Y1543169D02*
X2031752Y1547638D01*
X2031220*
X2029515Y1543169*
X2030068*
X2030477Y1544338*
X2030524Y1544372*
X2032388*
X2032434Y1544340*
X2032903Y1543169*
X2033457*
X2032268Y1544813D02*
X2030705D01*
X2030658Y1544879*
X2031319Y1546802*
X2031320Y1546805*
X2031440Y1547105*
X2031534Y1547102*
X2031594Y1546922*
X2031596Y1546906*
Y1546795*
X2032314Y1544880*
X2032268Y1544813*
X2034550Y1651512D02*
X2032215D01*
Y1651206*
X2033157*
X2033207Y1651156*
Y1648186*
X2033558*
Y1651156*
X2033608Y1651206*
X2034550*
Y1651512*
X2029031Y1544323D02*
X2028974Y1544667D01*
X2028802Y1545011*
X2028514Y1545241*
X2028038Y1545479*
X2028032Y1545565*
X2028391Y1545805*
X2028680Y1546035*
X2028793Y1546319*
X2028851Y1546666*
X2028794Y1547065*
X2028507Y1547410*
X2028163Y1547639*
X2027640Y1547697*
X2027173Y1547639*
X2026712Y1547408*
X2026484Y1547066*
X2026368Y1546604*
X2026425Y1546319*
X2026540Y1546033*
X2026829Y1545744*
X2027124Y1545567*
X2027123Y1545480*
X2026708Y1545243*
X2026418Y1544953*
X2026245Y1544606*
X2026188Y1544263*
X2026304Y1543799*
X2026533Y1543398*
X2026993Y1543168*
X2027520Y1543110*
X2028166Y1543168*
X2028628Y1543399*
X2028915Y1543801*
X2029031Y1544323*
X2028349Y1546594D02*
X2028289Y1546353D01*
X2028285Y1546343*
X2028165Y1546102*
X2028156Y1546089*
X2027975Y1545909*
X2027966Y1545902*
X2027665Y1545721*
X2027614*
X2027313Y1545902*
X2027309Y1545904*
X2027068Y1546085*
X2027054Y1546102*
X2026933Y1546343*
X2026930Y1546353*
X2026870Y1546594*
X2026870D02*
Y1546618D01*
X2026930Y1546858*
X2026933Y1546868*
X2027054Y1547109*
X2027076Y1547131*
X2027316Y1547251*
X2027329Y1547256*
X2027630Y1547316*
X2027651Y1547315*
X2027892Y1547255*
X2027902Y1547251*
X2028143Y1547131*
X2028162Y1547114*
X2028282Y1546934*
X2028289Y1546916*
X2028350Y1546615*
X2028349Y1546594*
X2028530Y1544252D02*
X2028470Y1543951D01*
X2028461Y1543931*
X2028280Y1543690*
X2028259Y1543674*
X2027958Y1543554*
X2027950Y1543551*
X2027649Y1543491*
X2027631*
X2027270Y1543551*
X2027260Y1543554*
X2026960Y1543674*
X2026938Y1543690*
X2026758Y1543931*
X2026749Y1543951*
X2026689Y1544252*
Y1544271*
X2026749Y1544572*
X2026755Y1544588*
X2026935Y1544888*
X2026948Y1544903*
X2027189Y1545083*
X2027196Y1545088*
X2027557Y1545268*
X2027599Y1545269*
X2028020Y1545089*
X2028030Y1545083*
X2028270Y1544903*
X2028283Y1544888*
X2028464Y1544588*
X2028470Y1544572*
X2028530Y1544271*
Y1544252*
X2025420Y1543420D02*
X2025318Y1543623D01*
X2025115Y1543725*
X2024912Y1543623*
X2024810Y1543420*
X2024912Y1543217*
X2025115Y1543115*
X2025318Y1543217*
X2025420Y1543420*
X2024103Y1545938D02*
X2023984Y1546413D01*
X2023983Y1546418*
X2023925Y1546829*
X2023753Y1547116*
X2023287Y1547581*
X2023002Y1547638*
X2022650Y1547697*
X2022303Y1547639*
X2022014Y1547523*
X2021782Y1547349*
X2021550Y1547117*
X2021375Y1546768*
X2021256Y1546352*
X2021138Y1545878*
Y1544809*
X2021256Y1544336*
X2021375Y1543978*
X2021492Y1543686*
X2021724Y1543396*
X2021950Y1543226*
X2022239Y1543169*
X2022590Y1543110*
X2022942Y1543169*
X2023227Y1543226*
X2023691Y1543690*
X2023866Y1544040*
X2023985Y1544396*
X2024103Y1544869*
Y1545938*
X2023602Y1545343D02*
Y1545340D01*
X2023542Y1544558*
X2023539Y1544546*
X2023359Y1544005*
X2023350Y1543989*
X2023050Y1543628*
X2023027Y1543613*
X2022666Y1543493*
X2022637Y1543492*
X2022216Y1543612*
X2022194Y1543625*
X2021894Y1543926*
X2021881Y1543947*
X2021701Y1544548*
X2021699Y1544558*
X2021639Y1545340*
Y1545343*
Y1545347*
X2021699Y1546188*
X2021701Y1546199*
X2021881Y1546800*
X2021891Y1546818*
X2022191Y1547179*
X2022216Y1547195*
X2022637Y1547315*
X2022664*
X2023085Y1547195*
X2023113Y1547174*
X2023353Y1546814*
X2023360Y1546800*
X2023540Y1546199*
X2023542Y1546188*
X2023602Y1545347*
Y1545343*
X2020377Y1545113D02*
X2018794D01*
Y1544792*
X2020377*
Y1545113*
X2018132Y1547638D02*
X2017637D01*
X2016388Y1544129*
X2016329Y1543713*
X2016231Y1543707*
X2016111Y1544126*
X2014861Y1547638*
X2014307*
X2015953Y1543169*
X2016544*
X2018132Y1547638*
X2013764Y1546486D02*
X2013707Y1547006D01*
X2013420Y1547350*
X2013015Y1547639*
X2012435Y1547697*
X2012142Y1547639*
X2012140Y1547638*
X2011789Y1547580*
X2011499Y1547406*
X2011220Y1547183*
Y1546830*
X2011439Y1547005*
X2011445Y1547009*
X2011745Y1547189*
X2011761Y1547196*
X2012362Y1547316*
X2012380*
X2012741Y1547256*
X2012763Y1547247*
X2013003Y1547066*
X2013013Y1547056*
X2013194Y1546816*
X2013203Y1546794*
X2013263Y1546434*
X2013264Y1546425*
X2013263Y1546416*
X2013263D02*
X2013203Y1546115D01*
X2013201Y1546109*
X2013081Y1545748*
X2013072Y1545732*
X2012771Y1545371*
X2012768Y1545368*
X2010980Y1543580*
Y1543169*
X2013705*
Y1543550*
X2011591*
X2011556Y1543637*
X2012638Y1544658*
X2013176Y1545196*
X2013531Y1545669*
X2013706Y1546078*
X2013764Y1546486*
X2010218Y1543550D02*
X2009247D01*
X2009197Y1543600*
Y1547681*
X2007674Y1547229*
Y1546793*
X2008631Y1547074*
X2008696Y1547026*
Y1543600*
X2008646Y1543550*
X2007674*
Y1543169*
X2010218*
Y1543550*
X2006612Y1545113D02*
X2005029D01*
Y1544792*
X2006612*
Y1545113*
X2004367Y1547638D02*
X2003872D01*
X2002624Y1544129*
X2002564Y1543713*
X2002467Y1543707*
X2002347Y1544126*
X2001097Y1547638*
X2000543*
X2002189Y1543169*
X2002780*
X2004367Y1547638*
X2005691Y1561256D02*
X2005573Y1561668D01*
X2005337Y1562317*
X2005107Y1562547*
X2004878Y1562718*
X2004298Y1562834*
X2003716Y1562718*
X2003253Y1562428*
X2002963Y1561965*
X2002847Y1561324*
X2002963Y1560799*
X2003193Y1560338*
X2003654Y1560108*
X2004120Y1559991*
X2004470Y1560050*
X2004754Y1560106*
X2004922Y1560274*
X2005100Y1560511*
X2005140Y1560531*
X2005200*
X2005249Y1560474*
X2005129Y1559692*
X2005125Y1559679*
X2004885Y1559139*
X2004872Y1559121*
X2004451Y1558760*
X2004441Y1558753*
X2004200Y1558633*
X2004178Y1558628*
X2003877*
X2003870*
X2003450Y1558689*
X2003437Y1558692*
X2003086Y1558843*
Y1558468*
X2003411Y1558306*
X2003877Y1558248*
X2004287Y1558306*
X2004638Y1558423*
X2004928Y1558597*
X2005219Y1558888*
X2005394Y1559239*
X2005573Y1559715*
X2005691Y1560187*
Y1561256*
X2005190Y1561263D02*
X2005189Y1561253D01*
X2005129Y1560952*
X2005122Y1560936*
X2004942Y1560636*
X2004925Y1560619*
X2004624Y1560438*
X2004609Y1560432*
X2004308Y1560372*
X2004290*
X2003929Y1560432*
X2003912Y1560438*
X2003611Y1560619*
X2003592Y1560639*
X2003412Y1561000*
X2003407Y1561015*
X2003347Y1561436*
Y1561443*
Y1561451*
X2003407Y1561812*
X2003414Y1561829*
X2003594Y1562130*
X2003606Y1562143*
X2003906Y1562384*
X2003928Y1562394*
X2004228Y1562454*
X2004246*
X2004607Y1562394*
X2004630Y1562384*
X2004931Y1562143*
X2004945Y1562124*
X2005126Y1561703*
X2005129Y1561690*
X2005189Y1561270*
X2005190Y1561263*
X2000120Y1545938D02*
X2000002Y1546413D01*
X2000001Y1546418*
X1999942Y1546829*
X1999770Y1547116*
X1999304Y1547581*
X1999019Y1547638*
X1998668Y1547697*
X1998321Y1547639*
X1998031Y1547523*
X1997799Y1547349*
X1997567Y1547117*
X1997392Y1546768*
X1997274Y1546352*
X1997155Y1545878*
Y1544809*
X1997273Y1544336*
X1997392Y1543978*
X1997509Y1543686*
X1997741Y1543396*
X1997967Y1543226*
X1998256Y1543169*
X1998608Y1543110*
X1998959Y1543169*
X1999244Y1543226*
X1999709Y1543690*
X1999884Y1544040*
X2000002Y1544396*
X2000120Y1544869*
Y1545938*
X1999619Y1545343D02*
Y1545340D01*
X1999559Y1544558*
X1999557Y1544546*
X1999376Y1544005*
X1999367Y1543989*
X1999067Y1543628*
X1999044Y1543613*
X1998684Y1543493*
X1998654Y1543492*
X1998233Y1543612*
X1998212Y1543625*
X1997911Y1543926*
X1997899Y1543947*
X1997718Y1544548*
X1997716Y1544558*
X1997656Y1545340*
Y1545343*
Y1545347*
X1997716Y1546188*
X1997718Y1546199*
X1997899Y1546800*
X1997908Y1546818*
X1998209Y1547179*
X1998233Y1547195*
X1998654Y1547315*
X1998682*
X1999102Y1547195*
X1999130Y1547174*
X1999371Y1546814*
X1999377Y1546800*
X1999557Y1546199*
X1999559Y1546188*
X1999619Y1545347*
Y1545343*
X2002205Y1561076D02*
X2002086Y1561551D01*
X2002085Y1561556*
X2002026Y1561967*
X2001854Y1562253*
X2001388Y1562719*
X2001104Y1562776*
X2000752Y1562835*
X2000405Y1562777*
X2000115Y1562661*
X1999883Y1562487*
X1999651Y1562255*
X1999476Y1561906*
X1999358Y1561490*
X1999239Y1561016*
Y1559946*
X1999357Y1559473*
X1999477Y1559116*
X1999593Y1558824*
X1999825Y1558534*
X2000052Y1558364*
X2000340Y1558306*
X2000692Y1558248*
X2001043Y1558306*
X2001328Y1558363*
X2001793Y1558828*
X2001968Y1559178*
X2002086Y1559533*
X2002205Y1560006*
Y1561076*
X2001704Y1560481D02*
X2001703Y1560477D01*
X2001643Y1559696*
X2001641Y1559684*
X2001461Y1559143*
X2001451Y1559127*
X2001151Y1558766*
X2001128Y1558751*
X2000768Y1558631*
X2000738Y1558630*
X2000317Y1558750*
X2000296Y1558763*
X1999995Y1559063*
X1999983Y1559084*
X1999802Y1559685*
X1999800Y1559696*
X1999740Y1560477*
Y1560481*
Y1560485*
X1999800Y1561326*
X1999802Y1561337*
X1999983Y1561938*
X1999992Y1561956*
X2000293Y1562316*
X2000317Y1562332*
X2000738Y1562453*
X2000766*
X2001186Y1562332*
X2001214Y1562312*
X2001455Y1561951*
X2001461Y1561938*
X2001641Y1561337*
X2001643Y1561326*
X2001703Y1560485*
X2001704Y1560481*
X1996454Y1546486D02*
X1996396Y1547006D01*
X1996109Y1547350*
X1995704Y1547639*
X1995124Y1547697*
X1994831Y1547639*
X1994829Y1547638*
X1994478Y1547580*
X1994188Y1547406*
X1993909Y1547183*
Y1546830*
X1994129Y1547005*
X1994134Y1547009*
X1994435Y1547189*
X1994450Y1547196*
X1995052Y1547316*
X1995070*
X1995430Y1547256*
X1995452Y1547247*
X1995692Y1547066*
X1995702Y1547056*
X1995883Y1546816*
X1995892Y1546794*
X1995952Y1546434*
X1995953Y1546425*
X1995952Y1546416*
X1995952D02*
X1995892Y1546115D01*
X1995890Y1546109*
X1995770Y1545748*
X1995761Y1545732*
X1995460Y1545371*
X1995457Y1545368*
X1993669Y1543580*
Y1543169*
X1996394*
Y1543550*
X1994280*
X1994246Y1543637*
X1995327Y1544658*
X1995865Y1545196*
X1996220Y1545669*
X1996395Y1546078*
X1996454Y1546486*
X1998538Y1558688D02*
X1997566D01*
X1997516Y1558738*
Y1562818*
X1995993Y1562367*
Y1561930*
X1996951Y1562212*
X1997015Y1562164*
Y1558738*
X1996965Y1558688*
X1995993*
Y1558307*
X1998538*
Y1558688*
X1992907Y1546486D02*
X1992849Y1547006D01*
X1992563Y1547350*
X1992158Y1547639*
X1991578Y1547697*
X1991284Y1547639*
X1991283Y1547638*
X1990932Y1547580*
X1990642Y1547406*
X1990363Y1547183*
Y1546830*
X1990582Y1547005*
X1990588Y1547009*
X1990888Y1547189*
X1990904Y1547196*
X1991505Y1547316*
X1991523*
X1991884Y1547256*
X1991906Y1547247*
X1992146Y1547066*
X1992156Y1547056*
X1992336Y1546816*
X1992346Y1546794*
X1992406Y1546434*
X1992407Y1546425*
X1992406Y1546416*
X1992406D02*
X1992345Y1546115D01*
X1992344Y1546109*
X1992224Y1545748*
X1992215Y1545732*
X1991914Y1545371*
X1991911Y1545368*
X1990122Y1543580*
Y1543169*
X1992848*
Y1543550*
X1990734*
X1990699Y1543637*
X1991781Y1544658*
X1992319Y1545196*
X1992674Y1545669*
X1992849Y1546078*
X1992907Y1546486*
X1995112Y1561076D02*
X1994993Y1561551D01*
X1994992Y1561556*
X1994934Y1561967*
X1994762Y1562253*
X1994296Y1562719*
X1994011Y1562776*
X1993659Y1562835*
X1993312Y1562777*
X1993023Y1562661*
X1992791Y1562487*
X1992558Y1562255*
X1992384Y1561906*
X1992265Y1561490*
X1992146Y1561016*
Y1559946*
X1992265Y1559473*
X1992384Y1559116*
X1992501Y1558824*
X1992733Y1558534*
X1992959Y1558364*
X1993248Y1558306*
X1993599Y1558248*
X1993951Y1558306*
X1994236Y1558363*
X1994700Y1558828*
X1994875Y1559178*
X1994994Y1559533*
X1995112Y1560006*
Y1561076*
X1994611Y1560481D02*
Y1560477D01*
X1994551Y1559696*
X1994548Y1559684*
X1994368Y1559143*
X1994359Y1559127*
X1994058Y1558766*
X1994036Y1558751*
X1993675Y1558631*
X1993646Y1558630*
X1993225Y1558750*
X1993203Y1558763*
X1992903Y1559063*
X1992890Y1559084*
X1992710Y1559685*
X1992708Y1559696*
X1992648Y1560477*
Y1560481*
Y1560485*
X1992708Y1561326*
X1992710Y1561337*
X1992890Y1561938*
X1992900Y1561956*
X1993200Y1562316*
X1993225Y1562332*
X1993646Y1562453*
X1993673*
X1994094Y1562332*
X1994122Y1562312*
X1994362Y1561951*
X1994368Y1561938*
X1994549Y1561337*
X1994551Y1561326*
X1994611Y1560485*
Y1560481*
X1996837Y1599012D02*
X1996795Y1599397D01*
X1996583Y1599651*
X1996283Y1599864*
X1995853Y1599907*
X1995635Y1599864*
X1995634*
X1995373Y1599820*
X1995158Y1599691*
X1994954Y1599528*
Y1599296*
X1995098Y1599411*
X1995104Y1599415*
X1995329Y1599550*
X1995345Y1599556*
X1995796Y1599646*
X1995814Y1599647*
X1996084Y1599602*
X1996106Y1599592*
X1996287Y1599457*
X1996297Y1599447*
X1996432Y1599267*
X1996441Y1599245*
X1996486Y1598974*
X1996487Y1598966*
X1996486Y1598956*
X1996441Y1598731*
X1996439Y1598725*
X1996349Y1598454*
X1996340Y1598438*
X1996115Y1598168*
X1996112Y1598164*
X1994774Y1596827*
Y1596537*
X1996793*
Y1596797*
X1995220*
X1995185Y1596884*
X1995996Y1597650*
X1996399Y1598052*
X1996664Y1598405*
X1996794Y1598709*
X1996837Y1599012*
X1994268Y1596842D02*
X1992921D01*
X1992921D02*
X1992871Y1596892D01*
X1992871D02*
Y1598020D01*
X1992921Y1598070*
X1994088*
Y1598375*
X1992921*
X1992871Y1598425*
Y1599507*
X1992921Y1599557*
X1994178*
Y1599863*
X1992520*
Y1596537*
X1994268*
Y1596842*
X1989301Y1545113D02*
X1987718D01*
Y1544792*
X1989301*
Y1545113*
X1991384Y1559640D02*
X1991268Y1560223D01*
X1991039Y1560624*
X1990578Y1560854*
X1989928Y1560972*
X1989572*
X1989522Y1561022*
Y1562344*
X1989572Y1562394*
X1991205*
Y1562775*
X1989021*
Y1560539*
X1989385Y1560591*
X1989392*
X1989692*
X1989698*
X1990179Y1560531*
X1990195Y1560526*
X1990556Y1560346*
X1990573Y1560332*
X1990813Y1560032*
X1990823Y1560009*
X1990884Y1559648*
Y1559640*
Y1559633*
X1990824Y1559212*
X1990813Y1559188*
X1990573Y1558887*
X1990559Y1558876*
X1990259Y1558695*
X1990240Y1558689*
X1989819Y1558628*
X1989806*
X1989325Y1558688*
X1989309Y1558693*
X1988901Y1558898*
Y1558527*
X1989287Y1558306*
X1989811Y1558248*
X1990457Y1558365*
X1990980Y1558656*
X1991268Y1559059*
X1991384Y1559640*
X1991744Y1599743D02*
X1991422Y1599864D01*
X1990983Y1599908*
X1990632Y1599864*
X1990323Y1599776*
X1990017Y1599644*
X1989755Y1599427*
X1989538Y1599165*
X1989407Y1598860*
X1989318Y1598506*
X1989274Y1598154*
X1989318Y1597759*
X1989406Y1597452*
X1989538Y1597188*
X1989712Y1596927*
X1989927Y1596755*
X1990189Y1596624*
X1990496Y1596536*
X1990848Y1596492*
X1991375Y1596536*
X1991744Y1596700*
Y1596996*
X1991408Y1596847*
X1991392Y1596843*
X1990897Y1596798*
X1990892Y1596797*
X1990622*
X1990603Y1596801*
X1990378Y1596891*
X1990366Y1596898*
X1990005Y1597168*
X1989994Y1597180*
X1989723Y1597586*
X1989716Y1597606*
X1989626Y1598147*
X1989625Y1598155*
Y1598162*
X1989670Y1598477*
X1989671Y1598479*
X1989716Y1598749*
X1989722Y1598767*
X1989993Y1599217*
X1990005Y1599232*
X1990186Y1599367*
X1990190Y1599370*
X1990415Y1599505*
X1990433Y1599511*
X1990974Y1599602*
X1990988*
X1991393Y1599557*
X1991404Y1599555*
X1991744Y1599441*
Y1599743*
X1987098Y1543169D02*
X1986305Y1544473D01*
X1986066Y1544771*
X1986064Y1544775*
X1985949Y1544947*
X1985597Y1545182*
X1985607Y1545270*
X1986078Y1545447*
X1986366Y1545735*
X1986538Y1546021*
X1986596Y1546482*
X1986479Y1546947*
X1986250Y1547349*
X1985790Y1547579*
X1985261Y1547638*
X1983931*
Y1543169*
X1984433*
Y1545043*
X1984483Y1545093*
X1984903*
X1984915Y1545091*
X1985156Y1545031*
X1985160Y1545030*
X1985340Y1544970*
X1985364Y1544953*
X1985544Y1544713*
X1985784Y1544413*
X1985788Y1544406*
X1986495Y1543169*
X1987098*
X1986095Y1546425D02*
Y1546417D01*
X1986035Y1546056*
X1986025Y1546035*
X1985845Y1545794*
X1985831Y1545781*
X1985530Y1545601*
X1985513Y1545595*
X1985152Y1545534*
X1985144*
X1984483*
X1984433Y1545584*
Y1547147*
X1984483Y1547197*
X1985144*
X1985151Y1547196*
X1985572Y1547136*
X1985587Y1547131*
X1985827Y1547011*
X1985845Y1546996*
X1986025Y1546756*
X1986034Y1546736*
X1986094Y1546435*
X1986095Y1546425*
X1987899Y1558688D02*
X1986927D01*
X1986877Y1558738*
Y1562818*
X1985354Y1562367*
Y1561930*
X1986312Y1562212*
X1986376Y1562164*
Y1558738*
X1986326Y1558688*
X1985354*
Y1558307*
X1987899*
Y1558688*
X1982990Y1543610D02*
X1981177D01*
X1981127Y1543660*
Y1545163*
X1981177Y1545213*
X1982750*
Y1545654*
X1981177*
X1981127Y1545704*
Y1547147*
X1981177Y1547197*
X1982870*
Y1547638*
X1980626*
Y1543169*
X1982990*
Y1543610*
X1984473Y1561076D02*
X1984354Y1561551D01*
X1984353Y1561556*
X1984295Y1561967*
X1984123Y1562253*
X1983657Y1562719*
X1983372Y1562776*
X1983020Y1562835*
X1982673Y1562777*
X1982384Y1562661*
X1982152Y1562487*
X1981919Y1562255*
X1981745Y1561906*
X1981626Y1561490*
X1981508Y1561016*
Y1559946*
X1981626Y1559473*
X1981745Y1559116*
X1981862Y1558824*
X1982094Y1558534*
X1982320Y1558364*
X1982609Y1558306*
X1982960Y1558248*
X1983312Y1558306*
X1983597Y1558363*
X1984061Y1558828*
X1984236Y1559178*
X1984355Y1559533*
X1984473Y1560006*
Y1561076*
X1983972Y1560481D02*
Y1560477D01*
X1983912Y1559696*
X1983909Y1559684*
X1983729Y1559143*
X1983720Y1559127*
X1983419Y1558766*
X1983397Y1558751*
X1983036Y1558631*
X1983007Y1558630*
X1982586Y1558750*
X1982564Y1558763*
X1982264Y1559063*
X1982251Y1559084*
X1982071Y1559685*
X1982069Y1559696*
X1982009Y1560477*
Y1560481*
Y1560485*
X1982069Y1561326*
X1982071Y1561337*
X1982251Y1561938*
X1982261Y1561956*
X1982561Y1562316*
X1982586Y1562332*
X1983007Y1562453*
X1983034*
X1983455Y1562332*
X1983483Y1562312*
X1983723Y1561951*
X1983729Y1561938*
X1983910Y1561337*
X1983912Y1561326*
X1983972Y1560485*
Y1560481*
X1979848Y1547638D02*
X1979292D01*
X1978401Y1544192*
X1978341Y1543774*
X1978292Y1543731*
X1978231*
X1978182Y1543774*
X1978122Y1544192*
X1977231Y1547638*
X1976707*
X1975756Y1544250*
X1975696Y1543951*
X1975694Y1543945*
X1975634Y1543765*
X1975587Y1543731*
X1975527*
X1975477Y1543774*
X1975417Y1544252*
X1974526Y1547638*
X1973970*
X1975264Y1543169*
X1975850*
X1976800Y1546435*
X1976859Y1546912*
X1976909Y1546956*
X1976969*
X1977019Y1546912*
X1977078Y1546435*
X1977969Y1543169*
X1978554*
X1979848Y1547638*
X1980806Y1561624D02*
X1980748Y1562144D01*
X1980462Y1562488*
X1980057Y1562777*
X1979476Y1562835*
X1979183Y1562776*
X1979182*
X1978830Y1562717*
X1978541Y1562544*
X1978262Y1562320*
Y1561968*
X1978481Y1562143*
X1978487Y1562147*
X1978787Y1562327*
X1978803Y1562333*
X1979404Y1562454*
X1979422*
X1979783Y1562394*
X1979805Y1562384*
X1980045Y1562204*
X1980055Y1562194*
X1980235Y1561954*
X1980245Y1561932*
X1980305Y1561571*
Y1561563*
X1980304Y1561553*
X1980244Y1561253*
X1980243Y1561247*
X1980123Y1560886*
X1980114Y1560870*
X1979813Y1560509*
X1979810Y1560506*
X1978021Y1558717*
Y1558307*
X1980746*
Y1558688*
X1978633*
X1978598Y1558774*
X1979680Y1559796*
X1980218Y1560334*
X1980572Y1560807*
X1980748Y1561216*
X1980806Y1561624*
X1977254Y1558558D02*
X1977153Y1558761D01*
X1976950Y1558862*
X1976746Y1558761*
X1976645Y1558558*
X1976746Y1558355*
X1976950Y1558253*
X1977153Y1558355*
X1977254Y1558558*
Y1561202D02*
X1977153Y1561406D01*
X1976950Y1561507*
X1976746Y1561406*
X1976645Y1561202*
X1976746Y1560999*
X1976950Y1560898*
X1977153Y1560999*
X1977254Y1561202*
X1976298Y1563022D02*
X1975928Y1563075D01*
X1975525Y1563018*
X1975182Y1562789*
X1974954Y1562447*
X1974896Y1561981*
Y1561503*
X1974846Y1561453*
X1974355*
Y1561072*
X1974846*
X1974896Y1561022*
Y1558307*
X1975397*
Y1561022*
X1975447Y1561072*
X1976178*
Y1561453*
X1975447*
X1975397Y1561503*
Y1561984*
X1975398Y1561994*
X1975458Y1562294*
X1975460Y1562300*
X1975520Y1562481*
X1975539Y1562506*
X1975720Y1562627*
X1975735Y1562633*
X1975976Y1562694*
X1975996*
X1976298Y1562644*
Y1563022*
X1973553Y1545463D02*
X1973494Y1545938D01*
X1973434Y1546352*
X1973260Y1546757*
X1972672Y1547346*
X1972323Y1547521*
X1971910Y1547639*
X1971499Y1547697*
X1971029Y1547638*
X1970615Y1547520*
X1970206Y1547345*
X1969915Y1547055*
X1969680Y1546702*
X1969503Y1546288*
X1969385Y1545875*
X1969326Y1545344*
X1969385Y1544869*
X1969444Y1544458*
X1969679Y1544047*
X1969914Y1543695*
X1970204Y1543462*
X1970556Y1543286*
X1970968Y1543169*
X1971439Y1543110*
X1971910Y1543169*
X1972323Y1543286*
X1972672Y1543461*
X1972965Y1543754*
X1973201Y1544049*
X1973435Y1544458*
X1973493Y1544929*
X1973553Y1545463*
X1973052Y1545403D02*
Y1545396D01*
X1972931Y1544614*
X1972926Y1544598*
X1972625Y1544057*
X1972611Y1544041*
X1972130Y1543680*
X1972119Y1543674*
X1971819Y1543554*
X1971800Y1543550*
X1971079*
X1971060Y1543554*
X1970760Y1543674*
X1970756Y1543676*
X1970515Y1543796*
X1970502Y1543805*
X1970262Y1544046*
X1970253Y1544059*
X1969952Y1544660*
X1969947Y1544674*
X1969827Y1545395*
Y1545412*
X1969947Y1546133*
X1969952Y1546147*
X1970253Y1546748*
X1970267Y1546766*
X1970508Y1546946*
X1970512Y1546949*
X1970813Y1547129*
X1970828Y1547136*
X1971430Y1547256*
X1971448*
X1972109Y1547136*
X1972130Y1547126*
X1972611Y1546766*
X1972625Y1546750*
X1972926Y1546209*
X1972931Y1546192*
X1973052Y1545411*
Y1545403*
X1973833Y1559157D02*
X1973776Y1559443D01*
X1973666Y1559664*
X1973378Y1559837*
X1972962Y1560075*
X1972606Y1560193*
X1972594Y1560199*
X1972414Y1560319*
X1972397Y1560339*
X1972337Y1560459*
X1972334Y1560465*
X1972274Y1560646*
Y1560677*
X1972334Y1560858*
X1972346Y1560877*
X1972466Y1560997*
X1972488Y1561010*
X1972909Y1561130*
X1972929Y1561132*
X1973350Y1561072*
X1973365Y1561067*
X1973654Y1560923*
Y1561292*
X1973327Y1561455*
X1972981Y1561513*
X1972515Y1561454*
X1972112Y1561282*
X1971886Y1560999*
X1971772Y1560601*
X1971828Y1560378*
X1971942Y1560150*
X1972170Y1559922*
X1972581Y1559746*
X1972584Y1559745*
X1973185Y1559444*
X1973208Y1559422*
X1973268Y1559301*
X1973270Y1559295*
X1973330Y1559115*
Y1559083*
X1973270Y1558903*
X1973258Y1558883*
X1973138Y1558763*
X1973130Y1558757*
X1972950Y1558636*
X1972922Y1558628*
X1972622*
X1972616*
X1972135Y1558688*
X1972116Y1558695*
X1971770Y1558892*
Y1558527*
X1972157Y1558305*
X1972563Y1558248*
X1973090Y1558306*
X1973495Y1558480*
X1973777Y1558762*
X1973833Y1559157*
X1972456Y1631661D02*
X1972125Y1632778D01*
X1971823*
X1971823D02*
X1972030Y1632075D01*
X1971982Y1632011*
X1969413*
X1969363Y1632061*
Y1632778*
X1969102*
Y1630894*
X1969363*
Y1631611*
X1969413Y1631661*
X1972456*
X1972473Y1634270D02*
X1972429Y1634621D01*
X1972341Y1634930*
X1972209Y1635236*
X1971992Y1635497*
X1971730Y1635715*
X1971425Y1635846*
X1971071Y1635934*
X1970719Y1635978*
X1970324Y1635934*
X1970017Y1635846*
X1969753Y1635715*
X1969492Y1635540*
X1969320Y1635325*
X1969189Y1635064*
X1969101Y1634756*
X1969057Y1634404*
X1969101Y1633877*
X1969265Y1633509*
X1969561*
X1969412Y1633844*
X1969408Y1633860*
X1969363Y1634356*
Y1634360*
Y1634631*
X1969366Y1634649*
X1969366D02*
X1969456Y1634875D01*
X1969463Y1634886*
X1969733Y1635247*
X1969745Y1635259*
X1970151Y1635529*
X1970171Y1635537*
X1970712Y1635627*
X1970727*
X1971042Y1635582*
X1971044*
X1971314Y1635537*
X1971332Y1635530*
X1971782Y1635260*
X1971797Y1635247*
X1971932Y1635067*
X1971935Y1635062*
X1972070Y1634837*
X1972076Y1634819*
X1972167Y1634279*
Y1634270*
Y1634265*
X1972122Y1633859*
X1972120Y1633849*
X1972006Y1633509*
X1972308*
X1972429Y1633831*
X1972473Y1634270*
X1968684Y1546305D02*
X1968567Y1546886D01*
X1968280Y1547288*
X1967817Y1547519*
X1967167Y1547638*
X1965959*
Y1543169*
X1966461*
Y1544802*
X1966511Y1544852*
X1967109*
X1967697Y1544911*
X1968223Y1545203*
X1968451Y1545432*
X1968566Y1545718*
X1968684Y1546305*
X1968183Y1546245D02*
Y1546237D01*
X1968123Y1545876*
X1968112Y1545853*
X1967872Y1545553*
X1967859Y1545541*
X1967558Y1545361*
X1967539Y1545354*
X1967058Y1545294*
X1967052Y1545293*
X1967052D02*
X1966511D01*
X1966461Y1545343*
Y1547147*
X1966511Y1547197*
X1967112*
X1967119Y1547196*
X1967539Y1547136*
X1967555Y1547131*
X1967915Y1546951*
X1967933Y1546936*
X1968113Y1546696*
X1968123Y1546673*
X1968183Y1546252*
Y1546245*
X1961432Y1601650D02*
X1960716D01*
X1960666Y1601700*
Y1604744*
X1959549Y1604413*
Y1604111*
X1960251Y1604318*
X1960315Y1604270*
Y1601700*
X1960265Y1601650*
X1959549*
Y1601389*
X1961432*
Y1601650*
X1958637Y1604716D02*
X1958287D01*
Y1602692*
X1958286Y1602687*
X1958241Y1602236*
X1958235Y1602216*
X1958055Y1601901*
X1958042Y1601886*
X1957817Y1601706*
X1957792Y1601696*
X1957431Y1601650*
X1957419*
X1957058Y1601696*
X1957032Y1601707*
X1956762Y1601932*
X1956751Y1601946*
X1956570Y1602261*
X1956564Y1602281*
X1956519Y1602732*
Y1602737*
Y1604716*
X1956168*
Y1602695*
X1956256Y1602077*
X1956471Y1601690*
X1956858Y1601432*
X1957384Y1601344*
X1957687*
X1957949Y1601431*
X1958163Y1601517*
X1958334Y1601688*
X1958462Y1601859*
X1958549Y1602121*
X1958637Y1602428*
Y1604716*
X1940518Y1550495D02*
X1940017D01*
Y1547004*
X1940075Y1546770*
X1940027Y1546708*
X1939967*
X1939922Y1546735*
X1939863Y1546853*
X1939745Y1547031*
X1939744Y1547032*
X1937595Y1550495*
X1936891*
Y1546026*
X1937392*
Y1549823*
X1937485Y1549849*
X1937665Y1549549*
X1939874Y1546026*
X1940518*
Y1550495*
X1928382Y1546822D02*
X1928340Y1547117D01*
X1928173Y1547367*
X1927918Y1547495*
X1927607Y1547584*
X1927571Y1547632*
Y1547677*
X1927605Y1547724*
X1927867Y1547812*
X1928077Y1547979*
X1928204Y1548233*
X1928247Y1548533*
X1928205Y1548828*
X1927994Y1549080*
X1927695Y1549251*
X1927306Y1549294*
X1926914Y1549251*
X1926589Y1549088*
Y1548845*
X1926830Y1548982*
X1926849Y1548989*
X1927209Y1549034*
X1927224Y1549033*
X1927494Y1548988*
X1927504Y1548985*
X1927730Y1548895*
X1927756Y1548871*
X1927846Y1548691*
X1927851Y1548677*
X1927896Y1548406*
X1927897Y1548398*
X1927896Y1548388*
X1927850Y1548163*
X1927844Y1548147*
X1927709Y1547921*
X1927682Y1547900*
X1927412Y1547810*
X1927402Y1547807*
X1927041Y1547762*
X1927035*
X1926815*
Y1547501*
X1927035*
X1927041*
X1927446Y1547456*
X1927460Y1547452*
X1927776Y1547317*
X1927792Y1547306*
X1927972Y1547126*
X1927986Y1547099*
X1928031Y1546828*
Y1546812*
X1927986Y1546542*
X1927972Y1546514*
X1927792Y1546334*
X1927782Y1546327*
X1927557Y1546191*
X1927538Y1546185*
X1927222Y1546140*
X1927210Y1546139*
X1926760Y1546184*
X1926738Y1546192*
X1926454Y1546369*
Y1546127*
X1926781Y1545922*
X1927216Y1545879*
X1927696Y1545922*
X1928083Y1546137*
X1928296Y1546435*
X1928382Y1546822*
X1925993Y1549250D02*
X1923659D01*
Y1548944*
X1924601*
X1924651Y1548894*
Y1545924*
X1925002*
Y1548894*
X1925052Y1548944*
X1925993*
Y1549250*
X1918119Y1605566D02*
X1917403D01*
X1917353Y1605616*
Y1608660*
X1916236Y1608329*
Y1608027*
X1916938Y1608234*
X1917002Y1608186*
Y1605616*
X1916952Y1605566*
X1916236*
Y1605305*
X1918119*
Y1605566*
X1915664Y1608632D02*
X1915319D01*
X1914386Y1606010*
X1914342Y1605699*
X1914244Y1605693*
X1914154Y1606007*
X1913220Y1608632*
X1912831*
X1914057Y1605305*
X1914482*
X1915664Y1608632*
X1912625Y1605305D02*
X1912042Y1606264D01*
X1911864Y1606486*
X1911861Y1606490*
X1911777Y1606617*
X1911515Y1606792*
X1911525Y1606880*
X1911875Y1607012*
X1912089Y1607225*
X1912215Y1607436*
X1912258Y1607777*
X1912172Y1608122*
X1912002Y1608418*
X1911663Y1608588*
X1911269Y1608632*
X1910285*
Y1605305*
X1910636*
Y1606698*
X1910686Y1606748*
X1911001*
X1911013Y1606747*
X1911194Y1606701*
X1911197Y1606700*
X1911333Y1606655*
X1911357Y1606638*
X1911492Y1606458*
X1911671Y1606233*
X1911676Y1606227*
X1912202Y1605305*
X1912625*
X1911908Y1607735D02*
X1911907Y1607727D01*
X1911862Y1607456*
X1911853Y1607434*
X1911718Y1607254*
X1911703Y1607241*
X1911478Y1607106*
X1911460Y1607099*
X1911460D02*
X1911190Y1607054D01*
X1911182*
X1910686*
X1910636Y1607104*
Y1608276*
X1910686Y1608326*
X1911182*
X1911189Y1608325*
X1911504Y1608280*
X1911520Y1608275*
X1911700Y1608185*
X1911718Y1608171*
X1911853Y1607990*
X1911862Y1607970*
X1911907Y1607745*
X1911908Y1607735*
X1910462Y1627559D02*
X1910131Y1628676D01*
X1909829*
X1910036Y1627974*
X1909988Y1627910*
X1907418*
X1907368Y1627960*
Y1628676*
X1907107*
Y1626793*
X1907368*
Y1627509*
X1907418Y1627559*
X1910462*
X1910434Y1631111D02*
X1907107D01*
Y1629362*
X1907413*
Y1630710*
X1907463Y1630760*
X1908590*
X1908640Y1630710*
Y1629543*
X1908946*
Y1630710*
X1908996Y1630760*
X1910078*
X1910128Y1630710*
Y1629452*
X1910434*
Y1631111*
X1910478Y1632648D02*
X1910434Y1632999D01*
X1910346Y1633308*
X1910215Y1633614*
X1909997Y1633875*
X1909736Y1634093*
X1909431Y1634224*
X1909077Y1634312*
X1908725Y1634356*
X1908329Y1634312*
X1908022Y1634224*
X1907759Y1634092*
X1907497Y1633918*
X1907325Y1633703*
X1907194Y1633441*
X1907107Y1633134*
X1907063Y1632782*
X1907107Y1632255*
X1907270Y1631887*
X1907567*
X1907418Y1632222*
X1907418D02*
X1907413Y1632238D01*
X1907368Y1632734*
Y1632738*
Y1633009*
X1907372Y1633027*
X1907462Y1633253*
X1907468Y1633264*
X1907739Y1633625*
X1907751Y1633636*
X1908157Y1633907*
X1908176Y1633915*
X1908717Y1634005*
X1908733*
X1909048Y1633960*
X1909049*
X1909320Y1633915*
X1909337Y1633908*
X1909788Y1633638*
X1909802Y1633625*
X1909938Y1633445*
X1909940Y1633440*
X1910076Y1633215*
X1910082Y1633197*
X1910172Y1632656*
X1910173Y1632648*
Y1632643*
X1910128Y1632237*
X1910125Y1632227*
X1910012Y1631887*
X1910314*
X1910434Y1632209*
X1910478Y1632648*
X1901774Y1606334D02*
X1901057D01*
X1901007Y1606384*
Y1609427*
X1899890Y1609096*
Y1608795*
X1900592Y1609001*
X1900656Y1608953*
Y1606384*
X1900606Y1606334*
X1899890*
Y1606073*
X1901774*
Y1606334*
X1899204Y1609399D02*
X1897546D01*
Y1606073*
X1897897*
Y1607511*
X1897947Y1607561*
X1899114*
Y1607866*
X1897947*
X1897897Y1607916*
Y1609043*
X1897947Y1609093*
X1899204*
Y1609399*
X1888859Y1548896D02*
X1888816Y1549281D01*
X1888605Y1549535*
X1888305Y1549749*
X1887875Y1549792*
X1887657Y1549748*
X1887655*
X1887394Y1549704*
X1887180Y1549576*
X1886976Y1549412*
Y1549180*
X1887120Y1549295*
X1887126Y1549299*
X1887351Y1549434*
X1887367Y1549440*
X1887818Y1549531*
X1887836*
X1888106Y1549486*
X1888128Y1549476*
X1888308Y1549341*
X1888318Y1549331*
X1888454Y1549151*
X1888463Y1549129*
X1888508Y1548859*
X1888509Y1548850*
X1888508Y1548841*
X1888463Y1548615*
X1888461Y1548609*
X1888371Y1548339*
X1888362Y1548323*
X1888136Y1548052*
X1888133Y1548049*
X1886796Y1546711*
Y1546421*
X1888814*
Y1546682*
X1887241*
X1887207Y1546768*
X1888018Y1547534*
X1888421Y1547937*
X1888685Y1548290*
X1888816Y1548594*
X1888859Y1548896*
X1886425Y1549747D02*
X1884091D01*
Y1549441*
X1885032*
X1885082Y1549391*
Y1546421*
X1885433*
Y1549391*
X1885483Y1549441*
X1886425*
Y1549747*
X1887534Y1558402D02*
X1885841D01*
X1885791Y1558452*
Y1562429*
X1885290*
Y1557961*
X1887534*
Y1558402*
X1884100Y1549441D02*
Y1549747D01*
X1884200Y1549441D02*
Y1549747D01*
X1884300Y1549441D02*
Y1549747D01*
X1884400Y1549441D02*
Y1549747D01*
X1884500Y1549441D02*
Y1549747D01*
X1884600Y1549441D02*
Y1549747D01*
X1884700Y1549441D02*
Y1549747D01*
X1884800Y1549441D02*
Y1549747D01*
X1884900Y1549441D02*
Y1549747D01*
X1885000Y1549441D02*
Y1549747D01*
X1885100Y1546421D02*
Y1549747D01*
X1885200Y1546421D02*
Y1549747D01*
X1885300Y1546421D02*
Y1549747D01*
Y1557961D02*
Y1562429D01*
X1885400Y1546421D02*
Y1549747D01*
Y1557961D02*
Y1562429D01*
X1885500Y1549441D02*
Y1549747D01*
Y1557961D02*
Y1562429D01*
X1885600Y1549441D02*
Y1549747D01*
Y1557961D02*
Y1562429D01*
X1885700Y1549441D02*
Y1549747D01*
Y1557961D02*
Y1562429D01*
X1885800Y1549441D02*
Y1549747D01*
Y1557961D02*
Y1558423D01*
X1885900Y1549441D02*
Y1549747D01*
Y1557961D02*
Y1558402D01*
X1886000Y1549441D02*
Y1549747D01*
Y1557961D02*
Y1558402D01*
X1886100Y1549441D02*
Y1549747D01*
Y1557961D02*
Y1558402D01*
X1886200Y1549441D02*
Y1549747D01*
Y1557961D02*
Y1558402D01*
X1886300Y1549441D02*
Y1549747D01*
Y1557961D02*
Y1558402D01*
X1886400Y1549441D02*
Y1549747D01*
Y1557961D02*
Y1558402D01*
X1886500Y1557961D02*
Y1558402D01*
X1886600Y1557961D02*
Y1558402D01*
X1886700Y1557961D02*
Y1558402D01*
X1886800Y1546421D02*
Y1546715D01*
Y1557961D02*
Y1558402D01*
X1886900Y1546421D02*
Y1546815D01*
Y1557961D02*
Y1558402D01*
X1887000Y1546421D02*
Y1546915D01*
Y1549199D02*
Y1549432D01*
Y1557961D02*
Y1558402D01*
X1887100Y1546421D02*
Y1547015D01*
Y1549279D02*
Y1549512D01*
Y1557961D02*
Y1558402D01*
X1887200Y1546421D02*
Y1546704D01*
Y1546760D02*
Y1547115D01*
Y1549344D02*
Y1549588D01*
Y1557961D02*
Y1558402D01*
X1887300Y1546421D02*
Y1546682D01*
Y1546856D02*
Y1547215D01*
Y1549404D02*
Y1549648D01*
Y1557961D02*
Y1558402D01*
X1887400Y1546421D02*
Y1546682D01*
Y1546950D02*
Y1547315D01*
Y1549447D02*
Y1549705D01*
Y1557961D02*
Y1558402D01*
X1887500Y1546421D02*
Y1546682D01*
Y1547045D02*
Y1547415D01*
Y1549467D02*
Y1549722D01*
Y1557961D02*
Y1558402D01*
X1887600Y1546421D02*
Y1546682D01*
Y1547139D02*
Y1547515D01*
Y1549487D02*
Y1549739D01*
X1887700Y1546421D02*
Y1546682D01*
Y1547234D02*
Y1547615D01*
Y1549507D02*
Y1549757D01*
X1887800Y1546421D02*
Y1546682D01*
Y1547328D02*
Y1547715D01*
Y1549527D02*
Y1549777D01*
X1887900Y1546421D02*
Y1546682D01*
Y1547422D02*
Y1547815D01*
Y1549520D02*
Y1549789D01*
X1888000Y1546421D02*
Y1546682D01*
Y1547517D02*
Y1547915D01*
Y1549503D02*
Y1549779D01*
X1888100Y1546421D02*
Y1546682D01*
Y1547616D02*
Y1548015D01*
Y1549487D02*
Y1549769D01*
X1888200Y1546421D02*
Y1546682D01*
Y1547716D02*
Y1548128D01*
Y1549422D02*
Y1549759D01*
X1888300Y1546421D02*
Y1546682D01*
Y1547816D02*
Y1548248D01*
Y1549347D02*
Y1549749D01*
X1888400Y1546421D02*
Y1546682D01*
Y1547916D02*
Y1548426D01*
Y1549222D02*
Y1549681D01*
X1888500Y1546421D02*
Y1546682D01*
Y1548042D02*
Y1548803D01*
Y1548906D02*
Y1549609D01*
X1888600Y1546421D02*
Y1546682D01*
Y1548176D02*
Y1549538D01*
X1888700Y1546421D02*
Y1546682D01*
Y1548323D02*
Y1549420D01*
X1888800Y1546421D02*
Y1546682D01*
Y1548557D02*
Y1549300D01*
X1897600Y1606073D02*
Y1609399D01*
X1897700Y1606073D02*
Y1609399D01*
X1897800Y1606073D02*
Y1609399D01*
X1897900Y1607529D02*
Y1607899D01*
Y1609061D02*
Y1609399D01*
X1898000Y1607561D02*
Y1607866D01*
Y1609093D02*
Y1609399D01*
X1898100Y1607561D02*
Y1607866D01*
Y1609093D02*
Y1609399D01*
X1898200Y1607561D02*
Y1607866D01*
Y1609093D02*
Y1609399D01*
X1898300Y1607561D02*
Y1607866D01*
Y1609093D02*
Y1609399D01*
X1898400Y1607561D02*
Y1607866D01*
Y1609093D02*
Y1609399D01*
X1898500Y1607561D02*
Y1607866D01*
Y1609093D02*
Y1609399D01*
X1898600Y1607561D02*
Y1607866D01*
Y1609093D02*
Y1609399D01*
X1898700Y1607561D02*
Y1607866D01*
Y1609093D02*
Y1609399D01*
X1898800Y1607561D02*
Y1607866D01*
Y1609093D02*
Y1609399D01*
X1898900Y1607561D02*
Y1607866D01*
Y1609093D02*
Y1609399D01*
X1899000Y1607561D02*
Y1607866D01*
Y1609093D02*
Y1609399D01*
X1899100Y1607561D02*
Y1607866D01*
Y1609093D02*
Y1609399D01*
X1899200Y1609093D02*
Y1609399D01*
X1899900Y1606073D02*
Y1606334D01*
Y1608798D02*
Y1609099D01*
X1900000Y1606073D02*
Y1606334D01*
Y1608827D02*
Y1609129D01*
X1900100Y1606073D02*
Y1606334D01*
Y1608857D02*
Y1609159D01*
X1900200Y1606073D02*
Y1606334D01*
Y1608886D02*
Y1609188D01*
X1900300Y1606073D02*
Y1606334D01*
Y1608915D02*
Y1609218D01*
X1900400Y1606073D02*
Y1606334D01*
Y1608945D02*
Y1609247D01*
X1900500Y1606073D02*
Y1606334D01*
Y1608974D02*
Y1609277D01*
X1900600Y1606073D02*
Y1606334D01*
Y1609003D02*
Y1609307D01*
X1900700Y1606073D02*
Y1609336D01*
X1900800Y1606073D02*
Y1609366D01*
X1900900Y1606073D02*
Y1609396D01*
X1901000Y1606073D02*
Y1609425D01*
X1901100Y1606073D02*
Y1606334D01*
X1901200Y1606073D02*
Y1606334D01*
X1901300Y1606073D02*
Y1606334D01*
X1901400Y1606073D02*
Y1606334D01*
X1901500Y1606073D02*
Y1606334D01*
X1901600Y1606073D02*
Y1606334D01*
X1901700Y1606073D02*
Y1606334D01*
X1907100Y1632334D02*
Y1633081D01*
X1907200Y1626793D02*
Y1628676D01*
Y1629362D02*
Y1631111D01*
Y1632045D02*
Y1633453D01*
X1907300Y1626793D02*
Y1628676D01*
Y1629362D02*
Y1631111D01*
Y1631887D02*
Y1633653D01*
X1907400Y1627556D02*
Y1627913D01*
Y1629362D02*
Y1631111D01*
Y1631887D02*
Y1632385D01*
Y1633098D02*
Y1633796D01*
X1907500Y1627559D02*
Y1627910D01*
Y1630760D02*
Y1631111D01*
Y1631887D02*
Y1632037D01*
Y1633307D02*
Y1633920D01*
X1907600Y1627559D02*
Y1627910D01*
Y1630760D02*
Y1631111D01*
Y1633440D02*
Y1633987D01*
X1907700Y1627559D02*
Y1627910D01*
Y1630760D02*
Y1631111D01*
Y1633573D02*
Y1634053D01*
X1907800Y1627559D02*
Y1627910D01*
Y1630760D02*
Y1631111D01*
Y1633669D02*
Y1634113D01*
X1907900Y1627559D02*
Y1627910D01*
Y1630760D02*
Y1631111D01*
Y1633736D02*
Y1634163D01*
X1908000Y1627559D02*
Y1627910D01*
Y1630760D02*
Y1631111D01*
Y1633802D02*
Y1634213D01*
X1908100Y1627559D02*
Y1627910D01*
Y1630760D02*
Y1631111D01*
Y1633869D02*
Y1634246D01*
X1908200Y1627559D02*
Y1627910D01*
Y1630760D02*
Y1631111D01*
Y1633919D02*
Y1634275D01*
X1908300Y1627559D02*
Y1627910D01*
Y1630760D02*
Y1631111D01*
Y1633935D02*
Y1634304D01*
X1908400Y1627559D02*
Y1627910D01*
Y1630760D02*
Y1631111D01*
Y1633952D02*
Y1634320D01*
X1908500Y1627559D02*
Y1627910D01*
Y1630760D02*
Y1631111D01*
Y1633969D02*
Y1634331D01*
X1908600Y1627559D02*
Y1627910D01*
Y1630759D02*
Y1631111D01*
Y1633985D02*
Y1634342D01*
X1908700Y1627559D02*
Y1627910D01*
Y1629543D02*
Y1631111D01*
Y1634002D02*
Y1634353D01*
X1908800Y1627559D02*
Y1627910D01*
Y1629543D02*
Y1631111D01*
Y1633995D02*
Y1634347D01*
X1908900Y1627559D02*
Y1627910D01*
Y1629543D02*
Y1631111D01*
Y1633981D02*
Y1634334D01*
X1909000Y1627559D02*
Y1627910D01*
Y1630760D02*
Y1631111D01*
Y1633967D02*
Y1634322D01*
X1909100Y1627559D02*
Y1627910D01*
Y1630760D02*
Y1631111D01*
Y1633951D02*
Y1634306D01*
X1909200Y1627559D02*
Y1627910D01*
Y1630760D02*
Y1631111D01*
Y1633935D02*
Y1634281D01*
X1909300Y1627559D02*
Y1627910D01*
Y1630760D02*
Y1631111D01*
Y1633918D02*
Y1634256D01*
X1909400Y1627559D02*
Y1627910D01*
Y1630760D02*
Y1631111D01*
Y1633871D02*
Y1634231D01*
X1909500Y1627559D02*
Y1627910D01*
Y1630760D02*
Y1631111D01*
Y1633811D02*
Y1634194D01*
X1909600Y1627559D02*
Y1627910D01*
Y1630760D02*
Y1631111D01*
Y1633751D02*
Y1634151D01*
X1909700Y1627559D02*
Y1627910D01*
Y1630760D02*
Y1631111D01*
Y1633691D02*
Y1634108D01*
X1909800Y1627559D02*
Y1627910D01*
Y1630760D02*
Y1631111D01*
Y1633628D02*
Y1634039D01*
X1909900Y1627559D02*
Y1627910D01*
Y1628435D02*
Y1628676D01*
Y1630760D02*
Y1631111D01*
Y1633495D02*
Y1633956D01*
X1910000Y1627559D02*
Y1627911D01*
Y1628095D02*
Y1628676D01*
Y1630760D02*
Y1631111D01*
Y1633341D02*
Y1633872D01*
X1910100Y1627559D02*
Y1628676D01*
Y1630755D02*
Y1631111D01*
Y1631887D02*
Y1632151D01*
Y1633090D02*
Y1633752D01*
X1910200Y1627559D02*
Y1628442D01*
Y1629452D02*
Y1631111D01*
Y1631887D02*
Y1633632D01*
X1910300Y1605305D02*
Y1608632D01*
Y1627559D02*
Y1628105D01*
Y1629452D02*
Y1631111D01*
Y1631887D02*
Y1633415D01*
X1910400Y1605305D02*
Y1608632D01*
Y1627559D02*
Y1627767D01*
Y1629452D02*
Y1631111D01*
Y1632117D02*
Y1633119D01*
X1910500Y1605305D02*
Y1608632D01*
X1910600Y1605305D02*
Y1608632D01*
X1910700Y1606748D02*
Y1607054D01*
Y1608326D02*
Y1608632D01*
X1910800Y1606748D02*
Y1607054D01*
Y1608326D02*
Y1608632D01*
X1910900Y1606748D02*
Y1607054D01*
Y1608326D02*
Y1608632D01*
X1911000Y1606748D02*
Y1607054D01*
Y1608326D02*
Y1608632D01*
X1911100Y1606725D02*
Y1607054D01*
Y1608326D02*
Y1608632D01*
X1911200Y1606700D02*
Y1607056D01*
Y1608324D02*
Y1608632D01*
X1911300Y1606666D02*
Y1607073D01*
Y1608309D02*
Y1608628D01*
X1911400Y1606580D02*
Y1607089D01*
Y1608295D02*
Y1608617D01*
X1911500Y1606448D02*
Y1606807D01*
Y1606860D02*
Y1607119D01*
Y1608281D02*
Y1608606D01*
X1911600Y1606323D02*
Y1606735D01*
Y1606908D02*
Y1607179D01*
Y1608235D02*
Y1608595D01*
X1911700Y1606185D02*
Y1606668D01*
Y1606946D02*
Y1607239D01*
Y1608185D02*
Y1608569D01*
X1911800Y1606010D02*
Y1606582D01*
Y1606983D02*
Y1607364D01*
Y1608061D02*
Y1608519D01*
X1911900Y1605835D02*
Y1606441D01*
Y1607036D02*
Y1607684D01*
Y1607779D02*
Y1608469D01*
X1912000Y1605660D02*
Y1606316D01*
Y1607136D02*
Y1608419D01*
X1912100Y1605485D02*
Y1606169D01*
Y1607244D02*
Y1608247D01*
X1912200Y1605310D02*
Y1606004D01*
Y1607411D02*
Y1608008D01*
X1912300Y1605305D02*
Y1605840D01*
X1912400Y1605305D02*
Y1605676D01*
X1912500Y1605305D02*
Y1605511D01*
X1912600Y1605305D02*
Y1605347D01*
X1912900Y1608445D02*
Y1608632D01*
X1913000Y1608173D02*
Y1608632D01*
X1913100Y1607902D02*
Y1608632D01*
X1913200Y1607630D02*
Y1608632D01*
X1913300Y1607359D02*
Y1608407D01*
X1913400Y1607088D02*
Y1608126D01*
X1913500Y1606816D02*
Y1607845D01*
X1913600Y1606545D02*
Y1607564D01*
X1913700Y1606273D02*
Y1607283D01*
X1913800Y1606002D02*
Y1607002D01*
X1913900Y1605730D02*
Y1606721D01*
X1914000Y1605459D02*
Y1606440D01*
X1914100Y1605305D02*
Y1606159D01*
X1914200Y1605305D02*
Y1605847D01*
X1914300Y1605305D02*
Y1605657D01*
X1914400Y1605305D02*
Y1606049D01*
X1914500Y1605355D02*
Y1606330D01*
X1914600Y1605637D02*
Y1606611D01*
X1914700Y1605918D02*
Y1606892D01*
X1914800Y1606200D02*
Y1607173D01*
X1914900Y1606481D02*
Y1607454D01*
X1915000Y1606763D02*
Y1607735D01*
X1915100Y1607044D02*
Y1608016D01*
X1915200Y1607326D02*
Y1608297D01*
X1915300Y1607607D02*
Y1608578D01*
X1915400Y1607889D02*
Y1608632D01*
X1915500Y1608170D02*
Y1608632D01*
X1915600Y1608452D02*
Y1608632D01*
X1916300Y1605305D02*
Y1605566D01*
Y1608046D02*
Y1608348D01*
X1916400Y1605305D02*
Y1605566D01*
Y1608075D02*
Y1608377D01*
X1916500Y1605305D02*
Y1605566D01*
Y1608105D02*
Y1608407D01*
X1916600Y1605305D02*
Y1605566D01*
Y1608134D02*
Y1608437D01*
X1916700Y1605305D02*
Y1605566D01*
Y1608164D02*
Y1608466D01*
X1916800Y1605305D02*
Y1605566D01*
Y1608193D02*
Y1608496D01*
X1916900Y1605305D02*
Y1605566D01*
Y1608223D02*
Y1608526D01*
X1917000Y1605305D02*
Y1605602D01*
Y1608199D02*
Y1608555D01*
X1917100Y1605305D02*
Y1608585D01*
X1917200Y1605305D02*
Y1608614D01*
X1917300Y1605305D02*
Y1608644D01*
X1917400Y1605305D02*
Y1605566D01*
X1917500Y1605305D02*
Y1605566D01*
X1917600Y1605305D02*
Y1605566D01*
X1917700Y1605305D02*
Y1605566D01*
X1917800Y1605305D02*
Y1605566D01*
X1917900Y1605305D02*
Y1605566D01*
X1918000Y1605305D02*
Y1605566D01*
X1918100Y1605305D02*
Y1605566D01*
X1923700Y1548944D02*
Y1549250D01*
X1923800Y1548944D02*
Y1549250D01*
X1923900Y1548944D02*
Y1549250D01*
X1924000Y1548944D02*
Y1549250D01*
X1924100Y1548944D02*
Y1549250D01*
X1924200Y1548944D02*
Y1549250D01*
X1924300Y1548944D02*
Y1549250D01*
X1924400Y1548944D02*
Y1549250D01*
X1924500Y1548944D02*
Y1549250D01*
X1924600Y1548944D02*
Y1549250D01*
X1924700Y1545924D02*
Y1549250D01*
X1924800Y1545924D02*
Y1549250D01*
X1924900Y1545924D02*
Y1549250D01*
X1925000Y1545924D02*
Y1549250D01*
X1925100Y1548944D02*
Y1549250D01*
X1925200Y1548944D02*
Y1549250D01*
X1925300Y1548944D02*
Y1549250D01*
X1925400Y1548944D02*
Y1549250D01*
X1925500Y1548944D02*
Y1549250D01*
X1925600Y1548944D02*
Y1549250D01*
X1925700Y1548944D02*
Y1549250D01*
X1925800Y1548944D02*
Y1549250D01*
X1925900Y1548944D02*
Y1549250D01*
X1926500Y1546098D02*
Y1546341D01*
X1926600Y1546035D02*
Y1546278D01*
Y1548851D02*
Y1549094D01*
X1926700Y1545973D02*
Y1546216D01*
Y1548908D02*
Y1549144D01*
X1926800Y1545920D02*
Y1546180D01*
Y1548965D02*
Y1549194D01*
X1926900Y1545910D02*
Y1546170D01*
Y1547501D02*
Y1547762D01*
Y1548995D02*
Y1549244D01*
X1927000Y1545900D02*
Y1546160D01*
Y1547501D02*
Y1547762D01*
Y1549008D02*
Y1549260D01*
X1927100Y1545890D02*
Y1546150D01*
Y1547494D02*
Y1547770D01*
Y1549020D02*
Y1549272D01*
X1927200Y1545880D02*
Y1546140D01*
Y1547483D02*
Y1547782D01*
Y1549033D02*
Y1549283D01*
X1927300Y1545886D02*
Y1546151D01*
Y1547472D02*
Y1547795D01*
Y1549021D02*
Y1549294D01*
X1927400Y1545895D02*
Y1546165D01*
Y1547461D02*
Y1547807D01*
Y1549004D02*
Y1549284D01*
X1927500Y1545905D02*
Y1546179D01*
Y1547435D02*
Y1547839D01*
Y1548987D02*
Y1549273D01*
X1927600Y1545914D02*
Y1546217D01*
Y1547392D02*
Y1547586D01*
Y1547722D02*
Y1547872D01*
Y1548947D02*
Y1549262D01*
X1927700Y1545924D02*
Y1546277D01*
Y1547350D02*
Y1547557D01*
Y1547756D02*
Y1547910D01*
Y1548907D02*
Y1549248D01*
X1927800Y1545980D02*
Y1546342D01*
Y1547298D02*
Y1547529D01*
Y1547789D02*
Y1548073D01*
Y1548783D02*
Y1549191D01*
X1927900Y1546036D02*
Y1546442D01*
Y1547198D02*
Y1547500D01*
Y1547838D02*
Y1549134D01*
X1928000Y1546091D02*
Y1546626D01*
Y1547015D02*
Y1547454D01*
Y1547918D02*
Y1549073D01*
X1928100Y1546161D02*
Y1547404D01*
Y1548025D02*
Y1548953D01*
X1928200Y1546301D02*
Y1547327D01*
Y1548225D02*
Y1548833D01*
X1928300Y1546454D02*
Y1547177D01*
X1936900Y1546026D02*
Y1550495D01*
X1937000Y1546026D02*
Y1550495D01*
X1937100Y1546026D02*
Y1550495D01*
X1937200Y1546026D02*
Y1550495D01*
X1937300Y1546026D02*
Y1550495D01*
X1937400Y1549850D02*
Y1550495D01*
X1937500Y1549824D02*
Y1550495D01*
X1937600Y1549658D02*
Y1550486D01*
X1937700Y1549493D02*
Y1550325D01*
X1937800Y1549334D02*
Y1550164D01*
X1937900Y1549174D02*
Y1550003D01*
X1938000Y1549015D02*
Y1549842D01*
X1938100Y1548856D02*
Y1549681D01*
X1938200Y1548696D02*
Y1549519D01*
X1938300Y1548537D02*
Y1549358D01*
X1938400Y1548377D02*
Y1549197D01*
X1938500Y1548218D02*
Y1549036D01*
X1938600Y1548058D02*
Y1548875D01*
X1938700Y1547899D02*
Y1548714D01*
X1938800Y1547739D02*
Y1548553D01*
X1938900Y1547580D02*
Y1548392D01*
X1939000Y1547420D02*
Y1548231D01*
X1939100Y1547261D02*
Y1548069D01*
X1939200Y1547102D02*
Y1547908D01*
X1939300Y1546942D02*
Y1547747D01*
X1939400Y1546783D02*
Y1547586D01*
X1939500Y1546623D02*
Y1547425D01*
X1939600Y1546464D02*
Y1547264D01*
X1939700Y1546304D02*
Y1547103D01*
X1939800Y1546145D02*
Y1546948D01*
X1939900Y1546026D02*
Y1546780D01*
X1940000Y1546026D02*
Y1546708D01*
X1940100Y1546026D02*
Y1550495D01*
X1940200Y1546026D02*
Y1550495D01*
X1940300Y1546026D02*
Y1550495D01*
X1940400Y1546026D02*
Y1550495D01*
X1940500Y1546026D02*
Y1550495D01*
X1956200Y1602470D02*
Y1604716D01*
X1956300Y1601998D02*
Y1604716D01*
X1956400Y1601818D02*
Y1604716D01*
X1956500Y1601671D02*
Y1604716D01*
X1956600Y1601604D02*
Y1602209D01*
X1956700Y1601537D02*
Y1602034D01*
X1956800Y1601471D02*
Y1601900D01*
X1956900Y1601425D02*
Y1601817D01*
X1957000Y1601408D02*
Y1601734D01*
X1957100Y1601392D02*
Y1601690D01*
X1957200Y1601375D02*
Y1601678D01*
X1957300Y1601358D02*
Y1601665D01*
X1957400Y1601344D02*
Y1601653D01*
X1957500Y1601344D02*
Y1601659D01*
X1957600Y1601344D02*
Y1601672D01*
X1957700Y1601349D02*
Y1601684D01*
X1957800Y1601382D02*
Y1601697D01*
X1957900Y1601415D02*
Y1601773D01*
X1958000Y1601452D02*
Y1601853D01*
X1958100Y1601492D02*
Y1601980D01*
X1958200Y1601554D02*
Y1602155D01*
X1958300Y1601654D02*
Y1604716D01*
X1958400Y1601776D02*
Y1604716D01*
X1958500Y1601972D02*
Y1604716D01*
X1958600Y1602298D02*
Y1604716D01*
X1959600Y1601389D02*
Y1601650D01*
Y1604126D02*
Y1604428D01*
X1959700Y1601389D02*
Y1601650D01*
Y1604156D02*
Y1604457D01*
X1959800Y1601389D02*
Y1601650D01*
Y1604185D02*
Y1604487D01*
X1959900Y1601389D02*
Y1601650D01*
Y1604214D02*
Y1604517D01*
X1960000Y1601389D02*
Y1601650D01*
Y1604244D02*
Y1604546D01*
X1960100Y1601389D02*
Y1601650D01*
Y1604273D02*
Y1604576D01*
X1960200Y1601389D02*
Y1601650D01*
Y1604303D02*
Y1604606D01*
X1960300Y1601389D02*
Y1601664D01*
Y1604305D02*
Y1604635D01*
X1960400Y1601389D02*
Y1604665D01*
X1960500Y1601389D02*
Y1604694D01*
X1960600Y1601389D02*
Y1604724D01*
X1960700Y1601389D02*
Y1601653D01*
X1960800Y1601389D02*
Y1601650D01*
X1960900Y1601389D02*
Y1601650D01*
X1961000Y1601389D02*
Y1601650D01*
X1961100Y1601389D02*
Y1601650D01*
X1961200Y1601389D02*
Y1601650D01*
X1961300Y1601389D02*
Y1601650D01*
X1961400Y1601389D02*
Y1601650D01*
X1966000Y1543169D02*
Y1547638D01*
X1966100Y1543169D02*
Y1547638D01*
X1966200Y1543169D02*
Y1547638D01*
X1966300Y1543169D02*
Y1547638D01*
X1966400Y1543169D02*
Y1547638D01*
X1966500Y1544851D02*
Y1545295D01*
Y1547195D02*
Y1547638D01*
X1966600Y1544852D02*
Y1545293D01*
Y1547197D02*
Y1547638D01*
X1966700Y1544852D02*
Y1545293D01*
Y1547197D02*
Y1547638D01*
X1966800Y1544852D02*
Y1545293D01*
Y1547197D02*
Y1547638D01*
X1966900Y1544852D02*
Y1545293D01*
Y1547197D02*
Y1547638D01*
X1967000Y1544852D02*
Y1545293D01*
Y1547197D02*
Y1547638D01*
X1967100Y1544852D02*
Y1545299D01*
Y1547197D02*
Y1547638D01*
X1967200Y1544862D02*
Y1545312D01*
Y1547184D02*
Y1547632D01*
X1967300Y1544872D02*
Y1545324D01*
Y1547170D02*
Y1547613D01*
X1967400Y1544882D02*
Y1545337D01*
Y1547156D02*
Y1547595D01*
X1967500Y1544892D02*
Y1545349D01*
Y1547142D02*
Y1547577D01*
X1967600Y1544902D02*
Y1545386D01*
Y1547109D02*
Y1547559D01*
X1967700Y1544913D02*
Y1545446D01*
Y1547059D02*
Y1547541D01*
X1967800Y1544968D02*
Y1545506D01*
Y1547009D02*
Y1547522D01*
X1967900Y1545024D02*
Y1545588D01*
Y1546959D02*
Y1547478D01*
X1968000Y1545079D02*
Y1545713D01*
Y1546847D02*
Y1547428D01*
X1968100Y1545135D02*
Y1545838D01*
Y1546713D02*
Y1547378D01*
X1968200Y1545190D02*
Y1547328D01*
X1968300Y1545280D02*
Y1547260D01*
X1968400Y1545380D02*
Y1547120D01*
X1968500Y1545553D02*
Y1546980D01*
X1968600Y1545888D02*
Y1546723D01*
X1969100Y1633889D02*
Y1634748D01*
X1969200Y1630894D02*
Y1632778D01*
Y1633654D02*
Y1635086D01*
X1969300Y1630894D02*
Y1632778D01*
Y1633509D02*
Y1635286D01*
X1969400Y1544765D02*
Y1545928D01*
Y1631659D02*
Y1632013D01*
Y1633509D02*
Y1633946D01*
Y1634734D02*
Y1635426D01*
X1969500Y1544360D02*
Y1546278D01*
Y1631661D02*
Y1632011D01*
Y1633509D02*
Y1633646D01*
Y1634936D02*
Y1635546D01*
X1969600Y1544185D02*
Y1546515D01*
Y1631661D02*
Y1632011D01*
Y1635069D02*
Y1635612D01*
X1969700Y1544015D02*
Y1546732D01*
Y1631661D02*
Y1632011D01*
Y1635203D02*
Y1635679D01*
X1969800Y1543865D02*
Y1546882D01*
Y1631661D02*
Y1632011D01*
Y1635295D02*
Y1635738D01*
X1969900Y1543715D02*
Y1544959D01*
Y1545848D02*
Y1547032D01*
Y1631661D02*
Y1632011D01*
Y1635362D02*
Y1635788D01*
X1970000Y1543626D02*
Y1544564D01*
Y1546243D02*
Y1547139D01*
Y1631661D02*
Y1632011D01*
Y1635428D02*
Y1635838D01*
X1970100Y1543546D02*
Y1544364D01*
Y1546443D02*
Y1547239D01*
Y1631661D02*
Y1632011D01*
Y1635495D02*
Y1635870D01*
X1970200Y1543466D02*
Y1544164D01*
Y1546643D02*
Y1547339D01*
Y1631661D02*
Y1632011D01*
Y1635542D02*
Y1635899D01*
X1970300Y1543414D02*
Y1544008D01*
Y1546790D02*
Y1547385D01*
Y1631661D02*
Y1632011D01*
Y1635558D02*
Y1635927D01*
X1970400Y1543364D02*
Y1543908D01*
Y1546865D02*
Y1547428D01*
Y1631661D02*
Y1632011D01*
Y1635575D02*
Y1635943D01*
X1970500Y1543314D02*
Y1543808D01*
Y1546940D02*
Y1547471D01*
Y1631661D02*
Y1632011D01*
Y1635592D02*
Y1635954D01*
X1970600Y1543274D02*
Y1543754D01*
Y1547002D02*
Y1547514D01*
Y1631661D02*
Y1632011D01*
Y1635608D02*
Y1635965D01*
X1970700Y1543245D02*
Y1543704D01*
Y1547062D02*
Y1547545D01*
Y1631661D02*
Y1632011D01*
Y1635625D02*
Y1635976D01*
X1970800Y1543217D02*
Y1543658D01*
Y1547122D02*
Y1547573D01*
Y1631661D02*
Y1632011D01*
Y1635617D02*
Y1635968D01*
X1970900Y1543188D02*
Y1543618D01*
Y1547150D02*
Y1547602D01*
Y1631661D02*
Y1632011D01*
Y1635602D02*
Y1635956D01*
X1971000Y1543165D02*
Y1543578D01*
Y1547170D02*
Y1547630D01*
Y1631661D02*
Y1632011D01*
Y1635588D02*
Y1635943D01*
X1971100Y1543152D02*
Y1543550D01*
Y1547190D02*
Y1547647D01*
Y1631661D02*
Y1632011D01*
Y1635572D02*
Y1635927D01*
X1971200Y1543140D02*
Y1543550D01*
Y1547210D02*
Y1547660D01*
Y1631661D02*
Y1632011D01*
Y1635556D02*
Y1635902D01*
X1971300Y1543127D02*
Y1543550D01*
Y1547230D02*
Y1547672D01*
Y1631661D02*
Y1632011D01*
Y1635539D02*
Y1635877D01*
X1971400Y1543115D02*
Y1543550D01*
Y1547250D02*
Y1547685D01*
Y1631661D02*
Y1632011D01*
Y1635489D02*
Y1635852D01*
X1971500Y1543117D02*
Y1543550D01*
Y1547246D02*
Y1547697D01*
Y1631661D02*
Y1632011D01*
Y1635429D02*
Y1635814D01*
X1971600Y1543130D02*
Y1543550D01*
Y1547228D02*
Y1547683D01*
Y1631661D02*
Y1632011D01*
Y1635369D02*
Y1635771D01*
X1971700Y1543142D02*
Y1543550D01*
Y1547210D02*
Y1547668D01*
Y1631661D02*
Y1632011D01*
Y1635309D02*
Y1635728D01*
X1971800Y1543155D02*
Y1543550D01*
Y1547192D02*
Y1547654D01*
Y1558510D02*
Y1558875D01*
Y1560488D02*
Y1560699D01*
Y1631661D02*
Y1632011D01*
Y1635243D02*
Y1635657D01*
X1971900Y1543167D02*
Y1543586D01*
Y1547174D02*
Y1547640D01*
Y1558453D02*
Y1558818D01*
Y1560233D02*
Y1561017D01*
Y1631661D02*
Y1632011D01*
Y1632518D02*
Y1632778D01*
Y1635109D02*
Y1635573D01*
X1972000Y1543194D02*
Y1543626D01*
Y1547156D02*
Y1547613D01*
Y1558395D02*
Y1558761D01*
Y1560092D02*
Y1561142D01*
Y1631661D02*
Y1632015D01*
Y1632178D02*
Y1632778D01*
Y1634954D02*
Y1635487D01*
X1972100Y1543223D02*
Y1543666D01*
Y1547137D02*
Y1547584D01*
Y1558338D02*
Y1558704D01*
Y1559992D02*
Y1561267D01*
Y1631661D02*
Y1632778D01*
Y1633509D02*
Y1633790D01*
Y1634678D02*
Y1635367D01*
X1972200Y1543251D02*
Y1543733D01*
Y1547074D02*
Y1547556D01*
Y1558299D02*
Y1558680D01*
Y1559909D02*
Y1561319D01*
Y1631661D02*
Y1632525D01*
Y1633509D02*
Y1635247D01*
X1972300Y1543280D02*
Y1543808D01*
Y1546999D02*
Y1547527D01*
Y1558285D02*
Y1558668D01*
Y1559866D02*
Y1560567D01*
Y1560756D02*
Y1561362D01*
Y1631661D02*
Y1632187D01*
Y1633509D02*
Y1635024D01*
X1972400Y1543325D02*
Y1543883D01*
Y1546924D02*
Y1547482D01*
Y1558271D02*
Y1558655D01*
Y1559823D02*
Y1560333D01*
Y1560931D02*
Y1561405D01*
Y1631661D02*
Y1631850D01*
Y1633754D02*
Y1634722D01*
X1972500Y1543375D02*
Y1543958D01*
Y1546849D02*
Y1547432D01*
Y1558256D02*
Y1558643D01*
Y1559781D02*
Y1560262D01*
Y1561014D02*
Y1561448D01*
X1972600Y1543425D02*
Y1544033D01*
Y1546774D02*
Y1547382D01*
Y1558252D02*
Y1558630D01*
Y1559737D02*
Y1560196D01*
Y1561042D02*
Y1561465D01*
X1972700Y1543489D02*
Y1544192D01*
Y1546615D02*
Y1547318D01*
Y1558263D02*
Y1558628D01*
Y1559687D02*
Y1560162D01*
Y1561071D02*
Y1561477D01*
X1972800Y1543589D02*
Y1544372D01*
Y1546435D02*
Y1547218D01*
Y1558274D02*
Y1558628D01*
Y1559637D02*
Y1560129D01*
Y1561099D02*
Y1561490D01*
X1972900Y1543689D02*
Y1544552D01*
Y1546255D02*
Y1547118D01*
Y1558285D02*
Y1558628D01*
Y1559587D02*
Y1560095D01*
Y1561128D02*
Y1561502D01*
X1973000Y1543798D02*
Y1545061D01*
Y1545746D02*
Y1547018D01*
Y1558296D02*
Y1558670D01*
Y1559537D02*
Y1560053D01*
Y1561122D02*
Y1561509D01*
X1973100Y1543923D02*
Y1546918D01*
Y1558310D02*
Y1558736D01*
Y1559487D02*
Y1559996D01*
Y1561107D02*
Y1561493D01*
X1973200Y1544048D02*
Y1546818D01*
Y1558353D02*
Y1558825D01*
Y1559433D02*
Y1559939D01*
Y1561093D02*
Y1561476D01*
X1973300Y1544222D02*
Y1546665D01*
Y1558396D02*
Y1558992D01*
Y1559206D02*
Y1559882D01*
Y1561079D02*
Y1561459D01*
X1973400Y1544397D02*
Y1546432D01*
Y1558439D02*
Y1559824D01*
Y1561050D02*
Y1561419D01*
X1973500Y1544988D02*
Y1545886D01*
Y1558485D02*
Y1559764D01*
Y1561000D02*
Y1561369D01*
X1973600Y1558585D02*
Y1559704D01*
Y1560950D02*
Y1561319D01*
X1973700Y1558685D02*
Y1559595D01*
X1973800Y1558924D02*
Y1559324D01*
X1974000Y1547535D02*
Y1547638D01*
X1974100Y1547189D02*
Y1547638D01*
X1974200Y1546844D02*
Y1547638D01*
X1974300Y1546498D02*
Y1547638D01*
X1974400Y1546153D02*
Y1547638D01*
Y1561072D02*
Y1561453D01*
X1974500Y1545807D02*
Y1547638D01*
Y1561072D02*
Y1561453D01*
X1974600Y1545462D02*
Y1547358D01*
Y1561072D02*
Y1561453D01*
X1974700Y1545117D02*
Y1546978D01*
Y1561072D02*
Y1561453D01*
X1974800Y1544771D02*
Y1546598D01*
Y1561072D02*
Y1561453D01*
X1974900Y1544426D02*
Y1546218D01*
Y1558307D02*
Y1562014D01*
X1975000Y1544080D02*
Y1545838D01*
Y1558307D02*
Y1562516D01*
X1975100Y1543735D02*
Y1545458D01*
Y1558307D02*
Y1562666D01*
X1975200Y1543389D02*
Y1545078D01*
Y1558307D02*
Y1562801D01*
X1975300Y1543169D02*
Y1544698D01*
Y1558307D02*
Y1562868D01*
X1975400Y1543169D02*
Y1544318D01*
Y1561040D02*
Y1561486D01*
Y1562005D02*
Y1562934D01*
X1975500Y1543169D02*
Y1543738D01*
Y1561072D02*
Y1561453D01*
Y1562422D02*
Y1563001D01*
X1975600Y1543169D02*
Y1543732D01*
Y1561072D02*
Y1561453D01*
Y1562547D02*
Y1563029D01*
X1975700Y1543169D02*
Y1543972D01*
Y1561072D02*
Y1561453D01*
Y1562613D02*
Y1563043D01*
X1975800Y1543169D02*
Y1544408D01*
Y1561072D02*
Y1561453D01*
Y1562650D02*
Y1563057D01*
X1975900Y1543342D02*
Y1544764D01*
Y1561072D02*
Y1561453D01*
Y1562675D02*
Y1563071D01*
X1976000Y1543686D02*
Y1545121D01*
Y1561072D02*
Y1561453D01*
Y1562694D02*
Y1563065D01*
X1976100Y1544030D02*
Y1545477D01*
Y1561072D02*
Y1561453D01*
Y1562677D02*
Y1563051D01*
X1976200Y1544374D02*
Y1545833D01*
Y1562660D02*
Y1563036D01*
X1976300Y1544717D02*
Y1546189D01*
X1976400Y1545061D02*
Y1546546D01*
X1976500Y1545405D02*
Y1546902D01*
X1976600Y1545749D02*
Y1547258D01*
X1976700Y1546092D02*
Y1547614D01*
Y1558447D02*
Y1558668D01*
Y1561092D02*
Y1561313D01*
X1976800Y1546437D02*
Y1547638D01*
Y1558328D02*
Y1558788D01*
Y1560972D02*
Y1561432D01*
X1976900Y1546955D02*
Y1547638D01*
Y1558278D02*
Y1558838D01*
Y1560922D02*
Y1561482D01*
X1977000Y1546946D02*
Y1547638D01*
Y1558278D02*
Y1558837D01*
Y1560923D02*
Y1561482D01*
X1977100Y1546356D02*
Y1547638D01*
Y1558328D02*
Y1558787D01*
Y1560973D02*
Y1561432D01*
X1977200Y1545989D02*
Y1547638D01*
Y1558449D02*
Y1558666D01*
Y1561094D02*
Y1561311D01*
X1977300Y1545623D02*
Y1547371D01*
X1977400Y1545256D02*
Y1546984D01*
X1977500Y1544889D02*
Y1546597D01*
X1977600Y1544523D02*
Y1546211D01*
X1977700Y1544156D02*
Y1545824D01*
X1977800Y1543789D02*
Y1545437D01*
X1977900Y1543423D02*
Y1545051D01*
X1978000Y1543169D02*
Y1544664D01*
X1978100Y1543169D02*
Y1544277D01*
Y1558307D02*
Y1558796D01*
X1978200Y1543169D02*
Y1543742D01*
Y1558307D02*
Y1558896D01*
X1978300Y1543169D02*
Y1543731D01*
Y1558307D02*
Y1558996D01*
Y1561998D02*
Y1562351D01*
X1978400Y1543169D02*
Y1544186D01*
Y1558307D02*
Y1559096D01*
Y1562078D02*
Y1562431D01*
X1978500Y1543169D02*
Y1544575D01*
Y1558307D02*
Y1559196D01*
Y1562155D02*
Y1562511D01*
X1978600Y1543327D02*
Y1544962D01*
Y1558307D02*
Y1558700D01*
Y1558776D02*
Y1559296D01*
Y1562215D02*
Y1562579D01*
X1978700Y1543672D02*
Y1545349D01*
Y1558307D02*
Y1558688D01*
Y1558871D02*
Y1559396D01*
Y1562275D02*
Y1562639D01*
X1978800Y1544018D02*
Y1545735D01*
Y1558307D02*
Y1558688D01*
Y1558965D02*
Y1559496D01*
Y1562333D02*
Y1562699D01*
X1978900Y1544363D02*
Y1546122D01*
Y1558307D02*
Y1558688D01*
Y1559059D02*
Y1559596D01*
Y1562353D02*
Y1562729D01*
X1979000Y1544709D02*
Y1546509D01*
Y1558307D02*
Y1558688D01*
Y1559154D02*
Y1559696D01*
Y1562373D02*
Y1562746D01*
X1979100Y1545054D02*
Y1546895D01*
Y1558307D02*
Y1558688D01*
Y1559248D02*
Y1559796D01*
Y1562393D02*
Y1562762D01*
X1979200Y1545399D02*
Y1547282D01*
Y1558307D02*
Y1558688D01*
Y1559343D02*
Y1559896D01*
Y1562413D02*
Y1562780D01*
X1979300Y1545745D02*
Y1547638D01*
Y1558307D02*
Y1558688D01*
Y1559437D02*
Y1559996D01*
Y1562433D02*
Y1562800D01*
X1979400Y1546090D02*
Y1547638D01*
Y1558307D02*
Y1558688D01*
Y1559532D02*
Y1560096D01*
Y1562453D02*
Y1562820D01*
X1979500Y1546436D02*
Y1547638D01*
Y1558307D02*
Y1558688D01*
Y1559626D02*
Y1560196D01*
Y1562441D02*
Y1562833D01*
X1979600Y1546781D02*
Y1547638D01*
Y1558307D02*
Y1558688D01*
Y1559721D02*
Y1560296D01*
Y1562424D02*
Y1562823D01*
X1979700Y1547127D02*
Y1547638D01*
Y1558307D02*
Y1558688D01*
Y1559816D02*
Y1560396D01*
Y1562408D02*
Y1562813D01*
X1979800Y1547472D02*
Y1547638D01*
Y1558307D02*
Y1558688D01*
Y1559916D02*
Y1560496D01*
Y1562388D02*
Y1562803D01*
X1979900Y1558307D02*
Y1558688D01*
Y1560016D02*
Y1560614D01*
Y1562313D02*
Y1562793D01*
X1980000Y1558307D02*
Y1558688D01*
Y1560116D02*
Y1560734D01*
Y1562238D02*
Y1562783D01*
X1980100Y1558307D02*
Y1558688D01*
Y1560216D02*
Y1560854D01*
Y1562134D02*
Y1562746D01*
X1980200Y1558307D02*
Y1558688D01*
Y1560316D02*
Y1561119D01*
Y1562001D02*
Y1562675D01*
X1980300Y1558307D02*
Y1558688D01*
Y1560444D02*
Y1561531D01*
Y1561600D02*
Y1562603D01*
X1980400Y1558307D02*
Y1558688D01*
Y1560577D02*
Y1562532D01*
X1980500Y1558307D02*
Y1558688D01*
Y1560710D02*
Y1562442D01*
X1980600Y1558307D02*
Y1558688D01*
Y1560871D02*
Y1562322D01*
X1980700Y1543169D02*
Y1547638D01*
Y1558307D02*
Y1558688D01*
Y1561105D02*
Y1562202D01*
X1980800Y1543169D02*
Y1547638D01*
Y1561581D02*
Y1561679D01*
X1980900Y1543169D02*
Y1547638D01*
X1981000Y1543169D02*
Y1547638D01*
X1981100Y1543169D02*
Y1547638D01*
X1981200Y1543169D02*
Y1543610D01*
Y1545213D02*
Y1545654D01*
Y1547197D02*
Y1547638D01*
X1981300Y1543169D02*
Y1543610D01*
Y1545213D02*
Y1545654D01*
Y1547197D02*
Y1547638D01*
X1981400Y1543169D02*
Y1543610D01*
Y1545213D02*
Y1545654D01*
Y1547197D02*
Y1547638D01*
X1981500Y1543169D02*
Y1543610D01*
Y1545213D02*
Y1545654D01*
Y1547197D02*
Y1547638D01*
X1981600Y1543169D02*
Y1543610D01*
Y1545213D02*
Y1545654D01*
Y1547197D02*
Y1547638D01*
Y1559577D02*
Y1561386D01*
X1981700Y1543169D02*
Y1543610D01*
Y1545213D02*
Y1545654D01*
Y1547197D02*
Y1547638D01*
Y1559251D02*
Y1561749D01*
X1981800Y1543169D02*
Y1543610D01*
Y1545213D02*
Y1545654D01*
Y1547197D02*
Y1547638D01*
Y1558978D02*
Y1562016D01*
X1981900Y1543169D02*
Y1543610D01*
Y1545213D02*
Y1545654D01*
Y1547197D02*
Y1547638D01*
Y1558776D02*
Y1562216D01*
X1982000Y1543169D02*
Y1543610D01*
Y1545213D02*
Y1545654D01*
Y1547197D02*
Y1547638D01*
Y1558651D02*
Y1562335D01*
X1982100Y1543169D02*
Y1543610D01*
Y1545213D02*
Y1545654D01*
Y1547197D02*
Y1547638D01*
Y1558529D02*
Y1559588D01*
Y1561434D02*
Y1562435D01*
X1982200Y1543169D02*
Y1543610D01*
Y1545213D02*
Y1545654D01*
Y1547197D02*
Y1547638D01*
Y1558454D02*
Y1559255D01*
Y1561768D02*
Y1562523D01*
X1982300Y1543169D02*
Y1543610D01*
Y1545213D02*
Y1545654D01*
Y1547197D02*
Y1547638D01*
Y1558379D02*
Y1559027D01*
Y1562003D02*
Y1562598D01*
X1982400Y1543169D02*
Y1543610D01*
Y1545213D02*
Y1545654D01*
Y1547197D02*
Y1547638D01*
Y1558348D02*
Y1558927D01*
Y1562123D02*
Y1562668D01*
X1982500Y1543169D02*
Y1543610D01*
Y1545213D02*
Y1545654D01*
Y1547197D02*
Y1547638D01*
Y1558328D02*
Y1558827D01*
Y1562243D02*
Y1562708D01*
X1982600Y1543169D02*
Y1543610D01*
Y1545213D02*
Y1545654D01*
Y1547197D02*
Y1547638D01*
Y1558308D02*
Y1558746D01*
Y1562337D02*
Y1562748D01*
X1982700Y1543169D02*
Y1543610D01*
Y1545213D02*
Y1545654D01*
Y1547197D02*
Y1547638D01*
Y1558291D02*
Y1558717D01*
Y1562365D02*
Y1562781D01*
X1982800Y1543169D02*
Y1543610D01*
Y1547197D02*
Y1547638D01*
Y1558275D02*
Y1558689D01*
Y1562394D02*
Y1562798D01*
X1982900Y1543169D02*
Y1543610D01*
Y1558258D02*
Y1558660D01*
Y1562422D02*
Y1562815D01*
X1983000Y1558254D02*
Y1558632D01*
Y1562451D02*
Y1562831D01*
X1983100Y1558271D02*
Y1558652D01*
Y1562434D02*
Y1562821D01*
X1983200Y1558288D02*
Y1558685D01*
Y1562405D02*
Y1562805D01*
X1983300Y1558304D02*
Y1558718D01*
Y1562377D02*
Y1562788D01*
X1983400Y1558324D02*
Y1558752D01*
Y1562348D02*
Y1562771D01*
X1983500Y1558344D02*
Y1558863D01*
Y1562286D02*
Y1562751D01*
X1983600Y1558367D02*
Y1558983D01*
Y1562136D02*
Y1562731D01*
X1983700Y1558467D02*
Y1559103D01*
Y1561986D02*
Y1562676D01*
X1983800Y1558567D02*
Y1559356D01*
Y1561703D02*
Y1562576D01*
X1983900Y1558667D02*
Y1559656D01*
Y1561369D02*
Y1562476D01*
X1984000Y1543169D02*
Y1547638D01*
Y1558767D02*
Y1562376D01*
X1984100Y1543169D02*
Y1547638D01*
Y1558905D02*
Y1562276D01*
X1984200Y1543169D02*
Y1547638D01*
Y1559105D02*
Y1562124D01*
X1984300Y1543169D02*
Y1547638D01*
Y1559369D02*
Y1561929D01*
X1984400Y1543169D02*
Y1547638D01*
Y1559714D02*
Y1561368D01*
X1984500Y1545093D02*
Y1545534D01*
Y1547197D02*
Y1547638D01*
X1984600Y1545093D02*
Y1545534D01*
Y1547197D02*
Y1547638D01*
X1984700Y1545093D02*
Y1545534D01*
Y1547197D02*
Y1547638D01*
X1984800Y1545093D02*
Y1545534D01*
Y1547197D02*
Y1547638D01*
X1984900Y1545093D02*
Y1545534D01*
Y1547197D02*
Y1547638D01*
X1985000Y1545070D02*
Y1545534D01*
Y1547197D02*
Y1547638D01*
X1985100Y1545045D02*
Y1545534D01*
Y1547197D02*
Y1547638D01*
X1985200Y1545017D02*
Y1545543D01*
Y1547189D02*
Y1547638D01*
X1985300Y1544983D02*
Y1545559D01*
Y1547175D02*
Y1547633D01*
X1985400Y1544905D02*
Y1545576D01*
Y1547160D02*
Y1547622D01*
Y1558307D02*
Y1558688D01*
Y1561944D02*
Y1562381D01*
X1985500Y1544771D02*
Y1545593D01*
Y1547146D02*
Y1547611D01*
Y1558307D02*
Y1558688D01*
Y1561973D02*
Y1562410D01*
X1985600Y1544643D02*
Y1545179D01*
Y1545267D02*
Y1545643D01*
Y1547125D02*
Y1547600D01*
Y1558307D02*
Y1558688D01*
Y1562003D02*
Y1562440D01*
X1985700Y1544518D02*
Y1545113D01*
Y1545305D02*
Y1545703D01*
Y1547075D02*
Y1547589D01*
Y1558307D02*
Y1558688D01*
Y1562032D02*
Y1562470D01*
X1985800Y1544386D02*
Y1545046D01*
Y1545342D02*
Y1545763D01*
Y1547025D02*
Y1547574D01*
Y1558307D02*
Y1558688D01*
Y1562062D02*
Y1562499D01*
X1985900Y1544211D02*
Y1544979D01*
Y1545380D02*
Y1545868D01*
Y1546923D02*
Y1547524D01*
Y1558307D02*
Y1558688D01*
Y1562091D02*
Y1562529D01*
X1986000Y1544036D02*
Y1544870D01*
Y1545417D02*
Y1546001D01*
Y1546789D02*
Y1547474D01*
Y1558307D02*
Y1558688D01*
Y1562120D02*
Y1562559D01*
X1986100Y1543861D02*
Y1544729D01*
Y1545469D02*
Y1547424D01*
Y1558307D02*
Y1558688D01*
Y1562150D02*
Y1562588D01*
X1986200Y1543686D02*
Y1544604D01*
Y1545569D02*
Y1547374D01*
Y1558307D02*
Y1558688D01*
Y1562179D02*
Y1562618D01*
X1986300Y1543511D02*
Y1544479D01*
Y1545669D02*
Y1547261D01*
Y1558307D02*
Y1558688D01*
Y1562209D02*
Y1562647D01*
X1986400Y1543336D02*
Y1544317D01*
Y1545791D02*
Y1547086D01*
Y1558307D02*
Y1562677D01*
X1986500Y1543169D02*
Y1544152D01*
Y1545958D02*
Y1546865D01*
Y1558307D02*
Y1562707D01*
X1986600Y1543169D02*
Y1543988D01*
Y1558307D02*
Y1562736D01*
X1986700Y1543169D02*
Y1543824D01*
Y1558307D02*
Y1562766D01*
X1986800Y1543169D02*
Y1543660D01*
Y1558307D02*
Y1562796D01*
X1986900Y1543169D02*
Y1543495D01*
Y1558307D02*
Y1558696D01*
X1987000Y1543169D02*
Y1543331D01*
Y1558307D02*
Y1558688D01*
X1987100Y1558307D02*
Y1558688D01*
X1987200Y1558307D02*
Y1558688D01*
X1987300Y1558307D02*
Y1558688D01*
X1987400Y1558307D02*
Y1558688D01*
X1987500Y1558307D02*
Y1558688D01*
X1987600Y1558307D02*
Y1558688D01*
X1987700Y1558307D02*
Y1558688D01*
X1987800Y1544792D02*
Y1545113D01*
Y1558307D02*
Y1558688D01*
X1987900Y1544792D02*
Y1545113D01*
X1988000Y1544792D02*
Y1545113D01*
X1988100Y1544792D02*
Y1545113D01*
X1988200Y1544792D02*
Y1545113D01*
X1988300Y1544792D02*
Y1545113D01*
X1988400Y1544792D02*
Y1545113D01*
X1988500Y1544792D02*
Y1545113D01*
X1988600Y1544792D02*
Y1545113D01*
X1988700Y1544792D02*
Y1545113D01*
X1988800Y1544792D02*
Y1545113D01*
X1988900Y1544792D02*
Y1545113D01*
X1989000Y1544792D02*
Y1545113D01*
Y1558470D02*
Y1558848D01*
X1989100Y1544792D02*
Y1545113D01*
Y1558413D02*
Y1558798D01*
Y1560550D02*
Y1562775D01*
X1989200Y1544792D02*
Y1545113D01*
Y1558356D02*
Y1558748D01*
Y1560564D02*
Y1562775D01*
X1989300Y1544792D02*
Y1545113D01*
Y1558304D02*
Y1558698D01*
Y1560579D02*
Y1562775D01*
Y1597924D02*
Y1598359D01*
X1989400Y1558293D02*
Y1558679D01*
Y1560591D02*
Y1562775D01*
Y1597473D02*
Y1598833D01*
X1989500Y1558282D02*
Y1558667D01*
Y1560591D02*
Y1562775D01*
Y1597264D02*
Y1599077D01*
X1989600Y1558271D02*
Y1558654D01*
Y1560591D02*
Y1560972D01*
Y1562394D02*
Y1562775D01*
Y1597095D02*
Y1599240D01*
X1989700Y1558260D02*
Y1558642D01*
Y1560591D02*
Y1560972D01*
Y1562394D02*
Y1562775D01*
Y1596945D02*
Y1597700D01*
Y1598655D02*
Y1599360D01*
X1989800Y1558249D02*
Y1558629D01*
Y1560578D02*
Y1560972D01*
Y1562394D02*
Y1562775D01*
Y1596856D02*
Y1597471D01*
Y1598896D02*
Y1599464D01*
X1989900Y1558264D02*
Y1558640D01*
Y1560566D02*
Y1560972D01*
Y1562394D02*
Y1562775D01*
Y1596776D02*
Y1597321D01*
Y1599063D02*
Y1599547D01*
X1990000Y1558282D02*
Y1558654D01*
Y1560553D02*
Y1560959D01*
Y1562394D02*
Y1562775D01*
Y1596718D02*
Y1597173D01*
Y1599227D02*
Y1599630D01*
X1990100Y1558300D02*
Y1558669D01*
Y1560541D02*
Y1560941D01*
Y1562394D02*
Y1562775D01*
Y1596668D02*
Y1597097D01*
Y1599302D02*
Y1599680D01*
X1990200Y1543169D02*
Y1543657D01*
Y1558318D02*
Y1558683D01*
Y1560524D02*
Y1560923D01*
Y1562394D02*
Y1562775D01*
Y1596621D02*
Y1597022D01*
Y1599376D02*
Y1599723D01*
X1990300Y1543169D02*
Y1543757D01*
Y1558337D02*
Y1558720D01*
Y1560474D02*
Y1560905D01*
Y1562394D02*
Y1562775D01*
Y1596592D02*
Y1596947D01*
Y1599436D02*
Y1599766D01*
X1990400Y1543169D02*
Y1543857D01*
Y1546860D02*
Y1547212D01*
Y1558355D02*
Y1558780D01*
Y1560424D02*
Y1560886D01*
Y1562394D02*
Y1562775D01*
Y1596563D02*
Y1596882D01*
Y1599496D02*
Y1599798D01*
X1990500Y1543169D02*
Y1543957D01*
Y1546940D02*
Y1547292D01*
Y1558389D02*
Y1558840D01*
Y1560374D02*
Y1560868D01*
Y1562394D02*
Y1562775D01*
Y1596535D02*
Y1596842D01*
Y1599523D02*
Y1599826D01*
X1990600Y1543169D02*
Y1544057D01*
Y1547017D02*
Y1547372D01*
Y1558445D02*
Y1558921D01*
Y1560298D02*
Y1560843D01*
Y1562394D02*
Y1562775D01*
Y1596523D02*
Y1596802D01*
Y1599539D02*
Y1599855D01*
X1990700Y1543169D02*
Y1543563D01*
Y1543637D02*
Y1544157D01*
Y1547077D02*
Y1547441D01*
Y1558500D02*
Y1559046D01*
Y1560173D02*
Y1560793D01*
Y1562394D02*
Y1562775D01*
Y1596510D02*
Y1596797D01*
Y1599556D02*
Y1599872D01*
X1990800Y1543169D02*
Y1543550D01*
Y1543732D02*
Y1544257D01*
Y1547137D02*
Y1547501D01*
Y1558556D02*
Y1559171D01*
Y1560048D02*
Y1560743D01*
Y1562394D02*
Y1562775D01*
Y1596498D02*
Y1596797D01*
Y1599573D02*
Y1599885D01*
X1990900Y1543169D02*
Y1543550D01*
Y1543826D02*
Y1544357D01*
Y1547195D02*
Y1547561D01*
Y1558611D02*
Y1560693D01*
Y1562394D02*
Y1562775D01*
Y1596496D02*
Y1596798D01*
Y1599589D02*
Y1599897D01*
X1991000Y1543169D02*
Y1543550D01*
Y1543921D02*
Y1544457D01*
Y1547215D02*
Y1547591D01*
Y1558683D02*
Y1560643D01*
Y1562394D02*
Y1562775D01*
Y1596505D02*
Y1596807D01*
Y1599601D02*
Y1599906D01*
X1991100Y1543169D02*
Y1543550D01*
Y1544015D02*
Y1544557D01*
Y1547235D02*
Y1547608D01*
Y1558823D02*
Y1560516D01*
Y1562394D02*
Y1562775D01*
Y1596513D02*
Y1596816D01*
Y1599589D02*
Y1599896D01*
X1991200Y1543169D02*
Y1543550D01*
Y1544109D02*
Y1544657D01*
Y1547255D02*
Y1547624D01*
Y1558963D02*
Y1560341D01*
Y1562394D02*
Y1562775D01*
Y1596521D02*
Y1596825D01*
Y1599578D02*
Y1599886D01*
X1991300Y1543169D02*
Y1543550D01*
Y1544204D02*
Y1544757D01*
Y1547275D02*
Y1547642D01*
Y1559218D02*
Y1560061D01*
Y1596530D02*
Y1596834D01*
Y1599567D02*
Y1599876D01*
X1991400Y1543169D02*
Y1543550D01*
Y1544298D02*
Y1544857D01*
Y1547295D02*
Y1547662D01*
Y1596547D02*
Y1596844D01*
Y1599556D02*
Y1599866D01*
X1991500Y1543169D02*
Y1543550D01*
Y1544393D02*
Y1544957D01*
Y1547315D02*
Y1547682D01*
Y1596591D02*
Y1596888D01*
Y1599522D02*
Y1599834D01*
X1991600Y1543169D02*
Y1543550D01*
Y1544487D02*
Y1545057D01*
Y1547303D02*
Y1547695D01*
Y1596636D02*
Y1596932D01*
Y1599489D02*
Y1599797D01*
X1991700Y1543169D02*
Y1543550D01*
Y1544582D02*
Y1545157D01*
Y1547287D02*
Y1547685D01*
Y1596680D02*
Y1596976D01*
Y1599456D02*
Y1599759D01*
X1991800Y1543169D02*
Y1543550D01*
Y1544677D02*
Y1545257D01*
Y1547270D02*
Y1547675D01*
X1991900Y1543169D02*
Y1543550D01*
Y1544777D02*
Y1545357D01*
Y1547250D02*
Y1547665D01*
X1992000Y1543169D02*
Y1543550D01*
Y1544877D02*
Y1545475D01*
Y1547176D02*
Y1547655D01*
X1992100Y1543169D02*
Y1543550D01*
Y1544977D02*
Y1545595D01*
Y1547101D02*
Y1547645D01*
X1992200Y1543169D02*
Y1543550D01*
Y1545077D02*
Y1545715D01*
Y1546998D02*
Y1547609D01*
Y1559732D02*
Y1561230D01*
X1992300Y1543169D02*
Y1543550D01*
Y1545177D02*
Y1545977D01*
Y1546865D02*
Y1547538D01*
Y1559368D02*
Y1561613D01*
X1992400Y1543169D02*
Y1543550D01*
Y1545304D02*
Y1546388D01*
Y1546469D02*
Y1547466D01*
Y1559076D02*
Y1561938D01*
X1992500Y1543169D02*
Y1543550D01*
Y1545438D02*
Y1547395D01*
Y1558826D02*
Y1562138D01*
X1992600Y1543169D02*
Y1543550D01*
Y1545571D02*
Y1547305D01*
Y1558700D02*
Y1562296D01*
Y1596537D02*
Y1599863D01*
X1992700Y1543169D02*
Y1543550D01*
Y1545731D02*
Y1547185D01*
Y1558575D02*
Y1559798D01*
Y1561217D02*
Y1562396D01*
Y1596537D02*
Y1599863D01*
X1992800Y1543169D02*
Y1543550D01*
Y1545964D02*
Y1547065D01*
Y1558483D02*
Y1559385D01*
Y1561638D02*
Y1562494D01*
Y1596537D02*
Y1599863D01*
X1992900Y1546436D02*
Y1546551D01*
Y1558408D02*
Y1559066D01*
Y1561956D02*
Y1562569D01*
Y1596537D02*
Y1596847D01*
Y1598065D02*
Y1598380D01*
Y1599553D02*
Y1599863D01*
X1993000Y1558356D02*
Y1558966D01*
Y1562076D02*
Y1562644D01*
Y1596537D02*
Y1596842D01*
Y1598070D02*
Y1598375D01*
Y1599557D02*
Y1599863D01*
X1993100Y1558336D02*
Y1558866D01*
Y1562196D02*
Y1562692D01*
Y1596537D02*
Y1596842D01*
Y1598070D02*
Y1598375D01*
Y1599557D02*
Y1599863D01*
X1993200Y1558316D02*
Y1558766D01*
Y1562316D02*
Y1562732D01*
Y1596537D02*
Y1596842D01*
Y1598070D02*
Y1598375D01*
Y1599557D02*
Y1599863D01*
X1993300Y1558298D02*
Y1558729D01*
Y1562354D02*
Y1562772D01*
Y1596537D02*
Y1596842D01*
Y1598070D02*
Y1598375D01*
Y1599557D02*
Y1599863D01*
X1993400Y1558281D02*
Y1558700D01*
Y1562383D02*
Y1562792D01*
Y1596537D02*
Y1596842D01*
Y1598070D02*
Y1598375D01*
Y1599557D02*
Y1599863D01*
X1993500Y1558264D02*
Y1558671D01*
Y1562411D02*
Y1562808D01*
Y1596537D02*
Y1596842D01*
Y1598070D02*
Y1598375D01*
Y1599557D02*
Y1599863D01*
X1993600Y1558248D02*
Y1558643D01*
Y1562440D02*
Y1562825D01*
Y1596537D02*
Y1596842D01*
Y1598070D02*
Y1598375D01*
Y1599557D02*
Y1599863D01*
X1993700Y1543169D02*
Y1543611D01*
Y1558265D02*
Y1558639D01*
Y1562445D02*
Y1562828D01*
Y1596537D02*
Y1596842D01*
Y1598070D02*
Y1598375D01*
Y1599557D02*
Y1599863D01*
X1993800Y1543169D02*
Y1543711D01*
Y1558281D02*
Y1558672D01*
Y1562416D02*
Y1562811D01*
Y1596537D02*
Y1596842D01*
Y1598070D02*
Y1598375D01*
Y1599557D02*
Y1599863D01*
X1993900Y1543169D02*
Y1543811D01*
Y1558298D02*
Y1558706D01*
Y1562388D02*
Y1562795D01*
Y1596537D02*
Y1596842D01*
Y1598070D02*
Y1598375D01*
Y1599557D02*
Y1599863D01*
X1994000Y1543169D02*
Y1543911D01*
Y1546902D02*
Y1547255D01*
Y1558316D02*
Y1558739D01*
Y1562359D02*
Y1562778D01*
Y1596537D02*
Y1596842D01*
Y1598070D02*
Y1598375D01*
Y1599557D02*
Y1599863D01*
X1994100Y1543169D02*
Y1544011D01*
Y1546982D02*
Y1547335D01*
Y1558336D02*
Y1558816D01*
Y1562330D02*
Y1562758D01*
Y1596537D02*
Y1596842D01*
Y1599557D02*
Y1599863D01*
X1994200Y1543169D02*
Y1544111D01*
Y1547049D02*
Y1547413D01*
Y1558356D02*
Y1558936D01*
Y1562195D02*
Y1562738D01*
Y1596537D02*
Y1596842D01*
X1994300Y1543169D02*
Y1543550D01*
Y1543688D02*
Y1544211D01*
Y1547109D02*
Y1547473D01*
Y1558428D02*
Y1559056D01*
Y1562045D02*
Y1562715D01*
X1994400Y1543169D02*
Y1543550D01*
Y1543782D02*
Y1544311D01*
Y1547169D02*
Y1547533D01*
Y1558528D02*
Y1559239D01*
Y1561833D02*
Y1562615D01*
X1994500Y1543169D02*
Y1543550D01*
Y1543877D02*
Y1544411D01*
Y1547206D02*
Y1547583D01*
Y1558628D02*
Y1559539D01*
Y1561499D02*
Y1562515D01*
X1994600Y1543169D02*
Y1543550D01*
Y1543971D02*
Y1544511D01*
Y1547226D02*
Y1547600D01*
Y1558728D02*
Y1560338D01*
Y1560635D02*
Y1562415D01*
X1994700Y1543169D02*
Y1543550D01*
Y1544066D02*
Y1544611D01*
Y1547246D02*
Y1547617D01*
Y1558828D02*
Y1562315D01*
X1994800Y1543169D02*
Y1543550D01*
Y1544160D02*
Y1544711D01*
Y1547266D02*
Y1547633D01*
Y1559028D02*
Y1562189D01*
Y1596537D02*
Y1596853D01*
X1994900Y1543169D02*
Y1543550D01*
Y1544255D02*
Y1544811D01*
Y1547286D02*
Y1547652D01*
Y1559252D02*
Y1562023D01*
Y1596537D02*
Y1596953D01*
X1995000Y1543169D02*
Y1543550D01*
Y1544349D02*
Y1544911D01*
Y1547306D02*
Y1547672D01*
Y1559559D02*
Y1561524D01*
Y1596537D02*
Y1597053D01*
Y1599332D02*
Y1599565D01*
X1995100Y1543169D02*
Y1543550D01*
Y1544444D02*
Y1545011D01*
Y1547311D02*
Y1547692D01*
Y1559959D02*
Y1561124D01*
Y1596537D02*
Y1597153D01*
Y1599412D02*
Y1599645D01*
X1995200Y1543169D02*
Y1543550D01*
Y1544538D02*
Y1545111D01*
Y1547294D02*
Y1547690D01*
Y1596537D02*
Y1596801D01*
Y1596898D02*
Y1597253D01*
Y1599472D02*
Y1599717D01*
X1995300Y1543169D02*
Y1543550D01*
Y1544632D02*
Y1545211D01*
Y1547278D02*
Y1547680D01*
Y1596537D02*
Y1596797D01*
Y1596992D02*
Y1597353D01*
Y1599532D02*
Y1599777D01*
X1995400Y1543169D02*
Y1543550D01*
Y1544731D02*
Y1545311D01*
Y1547261D02*
Y1547670D01*
Y1596537D02*
Y1596797D01*
Y1597086D02*
Y1597453D01*
Y1599567D02*
Y1599825D01*
X1995500Y1543169D02*
Y1543550D01*
Y1544831D02*
Y1545419D01*
Y1547211D02*
Y1547660D01*
Y1596537D02*
Y1596797D01*
Y1597181D02*
Y1597553D01*
Y1599587D02*
Y1599841D01*
X1995600Y1543169D02*
Y1543550D01*
Y1544931D02*
Y1545539D01*
Y1547136D02*
Y1547650D01*
Y1596537D02*
Y1596797D01*
Y1597275D02*
Y1597653D01*
Y1599607D02*
Y1599858D01*
X1995700Y1543169D02*
Y1543550D01*
Y1545031D02*
Y1545659D01*
Y1547059D02*
Y1547640D01*
Y1596537D02*
Y1596797D01*
Y1597370D02*
Y1597753D01*
Y1599627D02*
Y1599877D01*
X1995800Y1543169D02*
Y1543550D01*
Y1545131D02*
Y1545838D01*
Y1546926D02*
Y1547571D01*
Y1596537D02*
Y1596797D01*
Y1597464D02*
Y1597853D01*
Y1599647D02*
Y1599897D01*
X1995900Y1543169D02*
Y1543550D01*
Y1545243D02*
Y1546156D01*
Y1546747D02*
Y1547499D01*
Y1596537D02*
Y1596797D01*
Y1597559D02*
Y1597953D01*
Y1599632D02*
Y1599903D01*
X1996000Y1543169D02*
Y1543550D01*
Y1545376D02*
Y1547428D01*
Y1558307D02*
Y1558688D01*
Y1561932D02*
Y1562369D01*
Y1596537D02*
Y1596797D01*
Y1597653D02*
Y1598053D01*
Y1599616D02*
Y1599893D01*
X1996100Y1543169D02*
Y1543550D01*
Y1545509D02*
Y1547356D01*
Y1558307D02*
Y1558688D01*
Y1561962D02*
Y1562399D01*
Y1596537D02*
Y1596797D01*
Y1597753D02*
Y1598153D01*
Y1599596D02*
Y1599883D01*
X1996200Y1543169D02*
Y1543550D01*
Y1545643D02*
Y1547241D01*
Y1558307D02*
Y1558688D01*
Y1561991D02*
Y1562429D01*
Y1596537D02*
Y1596797D01*
Y1597853D02*
Y1598270D01*
Y1599522D02*
Y1599873D01*
X1996300Y1543169D02*
Y1543550D01*
Y1545856D02*
Y1547121D01*
Y1558307D02*
Y1558688D01*
Y1562021D02*
Y1562458D01*
Y1596537D02*
Y1596797D01*
Y1597953D02*
Y1598390D01*
Y1599442D02*
Y1599853D01*
X1996400Y1546111D02*
Y1546968D01*
Y1558307D02*
Y1558688D01*
Y1562050D02*
Y1562488D01*
Y1596537D02*
Y1596797D01*
Y1598054D02*
Y1598607D01*
Y1599309D02*
Y1599781D01*
X1996500Y1558307D02*
Y1558688D01*
Y1562079D02*
Y1562517D01*
Y1596537D02*
Y1596797D01*
Y1598187D02*
Y1599710D01*
X1996600Y1558307D02*
Y1558688D01*
Y1562109D02*
Y1562547D01*
Y1596537D02*
Y1596797D01*
Y1598320D02*
Y1599630D01*
X1996700Y1558307D02*
Y1558688D01*
Y1562138D02*
Y1562577D01*
Y1596537D02*
Y1596797D01*
Y1598490D02*
Y1599510D01*
X1996800Y1558307D02*
Y1558688D01*
Y1562168D02*
Y1562606D01*
Y1598751D02*
Y1599348D01*
X1996900Y1558307D02*
Y1558688D01*
Y1562197D02*
Y1562636D01*
X1997000Y1558307D02*
Y1558702D01*
Y1562200D02*
Y1562666D01*
X1997100Y1558307D02*
Y1562695D01*
X1997200Y1544629D02*
Y1546058D01*
Y1558307D02*
Y1562725D01*
X1997300Y1544255D02*
Y1546445D01*
Y1558307D02*
Y1562754D01*
X1997400Y1543959D02*
Y1546783D01*
Y1558307D02*
Y1562784D01*
X1997500Y1543709D02*
Y1546983D01*
Y1558307D02*
Y1562814D01*
X1997600Y1543572D02*
Y1547150D01*
Y1558307D02*
Y1558688D01*
X1997700Y1543447D02*
Y1544770D01*
Y1545960D02*
Y1547250D01*
Y1558307D02*
Y1558688D01*
X1997800Y1543352D02*
Y1544275D01*
Y1546472D02*
Y1547350D01*
Y1558307D02*
Y1558688D01*
X1997900Y1543277D02*
Y1543943D01*
Y1546804D02*
Y1547425D01*
Y1558307D02*
Y1558688D01*
X1998000Y1543220D02*
Y1543837D01*
Y1546928D02*
Y1547500D01*
Y1558307D02*
Y1558688D01*
X1998100Y1543200D02*
Y1543737D01*
Y1547048D02*
Y1547551D01*
Y1558307D02*
Y1558688D01*
X1998200Y1543180D02*
Y1543637D01*
Y1547168D02*
Y1547591D01*
Y1558307D02*
Y1558688D01*
X1998300Y1543161D02*
Y1543593D01*
Y1547214D02*
Y1547631D01*
Y1558307D02*
Y1558688D01*
X1998400Y1543145D02*
Y1543565D01*
Y1547242D02*
Y1547652D01*
Y1558307D02*
Y1558688D01*
X1998500Y1543128D02*
Y1543536D01*
Y1547271D02*
Y1547669D01*
Y1558307D02*
Y1558688D01*
X1998600Y1543111D02*
Y1543508D01*
Y1547299D02*
Y1547686D01*
X1998700Y1543125D02*
Y1543498D01*
Y1547310D02*
Y1547692D01*
X1998800Y1543142D02*
Y1543532D01*
Y1547281D02*
Y1547675D01*
X1998900Y1543159D02*
Y1543565D01*
Y1547252D02*
Y1547658D01*
X1999000Y1543177D02*
Y1543598D01*
Y1547224D02*
Y1547642D01*
X1999100Y1543197D02*
Y1543668D01*
Y1547195D02*
Y1547622D01*
X1999200Y1543217D02*
Y1543788D01*
Y1547070D02*
Y1547602D01*
X1999300Y1543281D02*
Y1543908D01*
Y1546920D02*
Y1547582D01*
Y1559703D02*
Y1561260D01*
X1999400Y1543381D02*
Y1544076D01*
Y1546723D02*
Y1547486D01*
Y1559345D02*
Y1561638D01*
X1999500Y1543481D02*
Y1544376D01*
Y1546390D02*
Y1547386D01*
Y1559057D02*
Y1561953D01*
X1999600Y1543581D02*
Y1545089D01*
Y1545617D02*
Y1547286D01*
Y1558815D02*
Y1562153D01*
X1999700Y1543681D02*
Y1547186D01*
Y1558690D02*
Y1562304D01*
X1999800Y1543873D02*
Y1547066D01*
Y1558565D02*
Y1559702D01*
Y1561320D02*
Y1562404D01*
X1999900Y1544089D02*
Y1546899D01*
Y1558478D02*
Y1559360D01*
Y1561662D02*
Y1562500D01*
X2000000Y1544389D02*
Y1546423D01*
Y1558403D02*
Y1559059D01*
Y1561965D02*
Y1562575D01*
X2000100Y1544787D02*
Y1546020D01*
Y1558354D02*
Y1558959D01*
Y1562085D02*
Y1562650D01*
X2000200Y1558334D02*
Y1558859D01*
Y1562205D02*
Y1562695D01*
X2000300Y1558314D02*
Y1558759D01*
Y1562323D02*
Y1562735D01*
X2000400Y1558296D02*
Y1558727D01*
Y1562356D02*
Y1562775D01*
X2000500Y1558280D02*
Y1558698D01*
Y1562385D02*
Y1562793D01*
X2000600Y1547482D02*
Y1547638D01*
Y1558263D02*
Y1558669D01*
Y1562413D02*
Y1562809D01*
X2000700Y1547211D02*
Y1547638D01*
Y1558249D02*
Y1558641D01*
Y1562442D02*
Y1562826D01*
X2000800Y1546939D02*
Y1547638D01*
Y1558266D02*
Y1558641D01*
Y1562443D02*
Y1562827D01*
X2000900Y1546668D02*
Y1547638D01*
Y1558283D02*
Y1558675D01*
Y1562414D02*
Y1562810D01*
X2001000Y1546396D02*
Y1547638D01*
Y1558299D02*
Y1558708D01*
Y1562386D02*
Y1562793D01*
X2001100Y1546125D02*
Y1547629D01*
Y1558318D02*
Y1558741D01*
Y1562357D02*
Y1562777D01*
X2001200Y1545853D02*
Y1547348D01*
Y1558338D02*
Y1558825D01*
Y1562326D02*
Y1562757D01*
X2001300Y1545582D02*
Y1547067D01*
Y1558358D02*
Y1558945D01*
Y1562183D02*
Y1562737D01*
X2001400Y1545311D02*
Y1546786D01*
Y1558435D02*
Y1559065D01*
Y1562033D02*
Y1562708D01*
X2001500Y1545039D02*
Y1546505D01*
Y1558535D02*
Y1559261D01*
Y1561808D02*
Y1562608D01*
X2001600Y1544768D02*
Y1546224D01*
Y1558635D02*
Y1559561D01*
Y1561475D02*
Y1562508D01*
X2001700Y1544496D02*
Y1545943D01*
Y1558735D02*
Y1560434D01*
Y1560532D02*
Y1562408D01*
X2001800Y1544225D02*
Y1545662D01*
Y1558842D02*
Y1562308D01*
X2001900Y1543953D02*
Y1545381D01*
Y1559042D02*
Y1562177D01*
X2002000Y1543682D02*
Y1545100D01*
Y1559274D02*
Y1562010D01*
X2002100Y1543411D02*
Y1544819D01*
Y1559588D02*
Y1561494D01*
X2002200Y1543169D02*
Y1544538D01*
Y1559988D02*
Y1561094D01*
X2002300Y1543169D02*
Y1544257D01*
X2002400Y1543169D02*
Y1543940D01*
X2002500Y1543169D02*
Y1543673D01*
X2002600Y1543169D02*
Y1543965D01*
X2002700Y1543169D02*
Y1544344D01*
X2002800Y1543226D02*
Y1544625D01*
X2002900Y1543508D02*
Y1544906D01*
Y1561083D02*
Y1561618D01*
X2003000Y1543789D02*
Y1545187D01*
Y1560725D02*
Y1562024D01*
X2003100Y1544071D02*
Y1545468D01*
Y1558461D02*
Y1558837D01*
Y1560525D02*
Y1562184D01*
X2003200Y1544352D02*
Y1545749D01*
Y1558411D02*
Y1558794D01*
Y1560335D02*
Y1562344D01*
X2003300Y1544634D02*
Y1546030D01*
Y1558361D02*
Y1558751D01*
Y1560285D02*
Y1562458D01*
X2003400Y1544915D02*
Y1546311D01*
Y1558311D02*
Y1558708D01*
Y1560235D02*
Y1561066D01*
Y1561767D02*
Y1562521D01*
X2003500Y1545196D02*
Y1546592D01*
Y1558295D02*
Y1558681D01*
Y1560185D02*
Y1560824D01*
Y1561973D02*
Y1562583D01*
X2003600Y1545478D02*
Y1546873D01*
Y1558282D02*
Y1558667D01*
Y1560135D02*
Y1560628D01*
Y1562138D02*
Y1562646D01*
X2003700Y1545759D02*
Y1547154D01*
Y1558270D02*
Y1558653D01*
Y1560096D02*
Y1560565D01*
Y1562218D02*
Y1562708D01*
X2003800Y1546041D02*
Y1547435D01*
Y1558257D02*
Y1558639D01*
Y1560071D02*
Y1560505D01*
Y1562298D02*
Y1562735D01*
X2003900Y1546322D02*
Y1547638D01*
Y1558251D02*
Y1558628D01*
Y1560046D02*
Y1560445D01*
Y1562378D02*
Y1562755D01*
X2004000Y1546604D02*
Y1547638D01*
Y1558265D02*
Y1558628D01*
Y1560021D02*
Y1560420D01*
Y1562408D02*
Y1562775D01*
X2004100Y1546885D02*
Y1547638D01*
Y1558279D02*
Y1558628D01*
Y1559996D02*
Y1560403D01*
Y1562428D02*
Y1562795D01*
X2004200Y1547167D02*
Y1547638D01*
Y1558294D02*
Y1558633D01*
Y1560005D02*
Y1560387D01*
Y1562448D02*
Y1562815D01*
X2004300Y1547448D02*
Y1547638D01*
Y1558311D02*
Y1558683D01*
Y1560021D02*
Y1560371D01*
Y1562445D02*
Y1562834D01*
X2004400Y1558344D02*
Y1558733D01*
Y1560038D02*
Y1560390D01*
Y1562428D02*
Y1562814D01*
X2004500Y1558377D02*
Y1558802D01*
Y1560056D02*
Y1560410D01*
Y1562412D02*
Y1562794D01*
X2004600Y1558411D02*
Y1558888D01*
Y1560076D02*
Y1560430D01*
Y1562395D02*
Y1562774D01*
X2004700Y1558460D02*
Y1558974D01*
Y1560096D02*
Y1560484D01*
Y1562328D02*
Y1562754D01*
X2004800Y1558520D02*
Y1559059D01*
Y1560152D02*
Y1560544D01*
Y1562248D02*
Y1562734D01*
X2004900Y1558580D02*
Y1559173D01*
Y1560252D02*
Y1560604D01*
Y1562168D02*
Y1562702D01*
X2005000Y1558669D02*
Y1559398D01*
Y1560378D02*
Y1560732D01*
Y1561996D02*
Y1562627D01*
X2005100Y1544792D02*
Y1545113D01*
Y1558769D02*
Y1559623D01*
Y1560512D02*
Y1560899D01*
Y1561763D02*
Y1562552D01*
X2005200Y1544792D02*
Y1545113D01*
Y1558869D02*
Y1560154D01*
Y1560531D02*
Y1562454D01*
X2005300Y1544792D02*
Y1545113D01*
Y1559050D02*
Y1562354D01*
X2005400Y1544792D02*
Y1545113D01*
Y1559254D02*
Y1562144D01*
X2005500Y1544792D02*
Y1545113D01*
Y1559521D02*
Y1561869D01*
X2005600Y1544792D02*
Y1545113D01*
Y1559824D02*
Y1561573D01*
X2005700Y1544792D02*
Y1545113D01*
X2005800Y1544792D02*
Y1545113D01*
X2005900Y1544792D02*
Y1545113D01*
X2006000Y1544792D02*
Y1545113D01*
X2006100Y1544792D02*
Y1545113D01*
X2006200Y1544792D02*
Y1545113D01*
X2006300Y1544792D02*
Y1545113D01*
X2006400Y1544792D02*
Y1545113D01*
X2006500Y1544792D02*
Y1545113D01*
X2006600Y1544792D02*
Y1545113D01*
X2007700Y1543169D02*
Y1543550D01*
Y1546800D02*
Y1547237D01*
X2007800Y1543169D02*
Y1543550D01*
Y1546830D02*
Y1547267D01*
X2007900Y1543169D02*
Y1543550D01*
Y1546859D02*
Y1547297D01*
X2008000Y1543169D02*
Y1543550D01*
Y1546889D02*
Y1547326D01*
X2008100Y1543169D02*
Y1543550D01*
Y1546918D02*
Y1547356D01*
X2008200Y1543169D02*
Y1543550D01*
Y1546947D02*
Y1547385D01*
X2008300Y1543169D02*
Y1543550D01*
Y1546977D02*
Y1547415D01*
X2008400Y1543169D02*
Y1543550D01*
Y1547006D02*
Y1547445D01*
X2008500Y1543169D02*
Y1543550D01*
Y1547036D02*
Y1547474D01*
X2008600Y1543169D02*
Y1543550D01*
Y1547065D02*
Y1547504D01*
X2008700Y1543169D02*
Y1547534D01*
X2008800Y1543169D02*
Y1547563D01*
X2008900Y1543169D02*
Y1547593D01*
X2009000Y1543169D02*
Y1547622D01*
X2009100Y1543169D02*
Y1547652D01*
X2009200Y1543169D02*
Y1543582D01*
X2009300Y1543169D02*
Y1543550D01*
X2009400Y1543169D02*
Y1543550D01*
X2009500Y1543169D02*
Y1543550D01*
X2009600Y1543169D02*
Y1543550D01*
X2009700Y1543169D02*
Y1543550D01*
X2009800Y1543169D02*
Y1543550D01*
X2009900Y1543169D02*
Y1543550D01*
X2010000Y1543169D02*
Y1543550D01*
X2010100Y1543169D02*
Y1543550D01*
X2010200Y1543169D02*
Y1543550D01*
X2011000Y1543169D02*
Y1543600D01*
X2011100Y1543169D02*
Y1543700D01*
X2011200Y1543169D02*
Y1543800D01*
X2011300Y1543169D02*
Y1543900D01*
Y1546894D02*
Y1547247D01*
X2011400Y1543169D02*
Y1544000D01*
Y1546974D02*
Y1547327D01*
X2011500Y1543169D02*
Y1544100D01*
Y1547042D02*
Y1547406D01*
X2011600Y1543169D02*
Y1543550D01*
Y1543678D02*
Y1544200D01*
Y1547102D02*
Y1547466D01*
X2011700Y1543169D02*
Y1543550D01*
Y1543772D02*
Y1544300D01*
Y1547162D02*
Y1547526D01*
X2011800Y1543169D02*
Y1543550D01*
Y1543867D02*
Y1544400D01*
Y1547203D02*
Y1547582D01*
X2011900Y1543169D02*
Y1543550D01*
Y1543961D02*
Y1544500D01*
Y1547223D02*
Y1547598D01*
X2012000Y1543169D02*
Y1543550D01*
Y1544056D02*
Y1544600D01*
Y1547243D02*
Y1547615D01*
X2012100Y1543169D02*
Y1543550D01*
Y1544150D02*
Y1544700D01*
Y1547263D02*
Y1547632D01*
X2012200Y1543169D02*
Y1543550D01*
Y1544244D02*
Y1544800D01*
Y1547283D02*
Y1547650D01*
X2012300Y1543169D02*
Y1543550D01*
Y1544339D02*
Y1544900D01*
Y1547303D02*
Y1547670D01*
X2012400Y1543169D02*
Y1543550D01*
Y1544433D02*
Y1545000D01*
Y1547313D02*
Y1547690D01*
X2012500Y1543169D02*
Y1543550D01*
Y1544528D02*
Y1545100D01*
Y1547296D02*
Y1547691D01*
X2012600Y1543169D02*
Y1543550D01*
Y1544622D02*
Y1545200D01*
Y1547280D02*
Y1547681D01*
X2012700Y1543169D02*
Y1543550D01*
Y1544720D02*
Y1545300D01*
Y1547263D02*
Y1547671D01*
X2012800Y1543169D02*
Y1543550D01*
Y1544820D02*
Y1545406D01*
Y1547219D02*
Y1547661D01*
X2012900Y1543169D02*
Y1543550D01*
Y1544920D02*
Y1545526D01*
Y1547144D02*
Y1547651D01*
X2013000Y1543169D02*
Y1543550D01*
Y1545020D02*
Y1545646D01*
Y1547069D02*
Y1547641D01*
X2013100Y1543169D02*
Y1543550D01*
Y1545120D02*
Y1545806D01*
Y1546941D02*
Y1547578D01*
X2013200Y1543169D02*
Y1543550D01*
Y1545228D02*
Y1546106D01*
Y1546804D02*
Y1547507D01*
X2013300Y1543169D02*
Y1543550D01*
Y1545362D02*
Y1547436D01*
X2013400Y1543169D02*
Y1543550D01*
Y1545495D02*
Y1547364D01*
X2013500Y1543169D02*
Y1543550D01*
Y1545628D02*
Y1547254D01*
X2013600Y1543169D02*
Y1543550D01*
Y1545831D02*
Y1547134D01*
X2013700Y1543169D02*
Y1543550D01*
Y1546064D02*
Y1547014D01*
X2014400Y1547386D02*
Y1547638D01*
X2014500Y1547114D02*
Y1547638D01*
X2014600Y1546843D02*
Y1547638D01*
X2014700Y1546571D02*
Y1547638D01*
X2014800Y1546300D02*
Y1547638D01*
X2014900Y1546029D02*
Y1547529D01*
X2015000Y1545757D02*
Y1547248D01*
X2015100Y1545486D02*
Y1546967D01*
X2015200Y1545214D02*
Y1546686D01*
X2015300Y1544943D02*
Y1546405D01*
X2015400Y1544671D02*
Y1546124D01*
X2015500Y1544400D02*
Y1545843D01*
X2015600Y1544129D02*
Y1545562D01*
X2015700Y1543857D02*
Y1545281D01*
X2015800Y1543586D02*
Y1545001D01*
X2015900Y1543314D02*
Y1544720D01*
X2016000Y1543169D02*
Y1544439D01*
X2016100Y1543169D02*
Y1544158D01*
X2016200Y1543169D02*
Y1543815D01*
X2016300Y1543169D02*
Y1543675D01*
X2016400Y1543169D02*
Y1544163D01*
X2016500Y1543169D02*
Y1544444D01*
X2016600Y1543326D02*
Y1544725D01*
X2016700Y1543608D02*
Y1545006D01*
X2016800Y1543889D02*
Y1545287D01*
X2016900Y1544170D02*
Y1545568D01*
X2017000Y1544452D02*
Y1545849D01*
X2017100Y1544733D02*
Y1546130D01*
X2017200Y1545015D02*
Y1546410D01*
X2017300Y1545296D02*
Y1546691D01*
X2017400Y1545578D02*
Y1546972D01*
X2017500Y1545859D02*
Y1547253D01*
X2017600Y1546141D02*
Y1547534D01*
X2017700Y1546422D02*
Y1547638D01*
X2017800Y1546704D02*
Y1547638D01*
X2017900Y1546985D02*
Y1547638D01*
X2018000Y1547267D02*
Y1547638D01*
X2018100Y1547548D02*
Y1547638D01*
X2018800Y1544792D02*
Y1545113D01*
X2018900Y1544792D02*
Y1545113D01*
X2019000Y1544792D02*
Y1545113D01*
X2019100Y1544792D02*
Y1545113D01*
X2019200Y1544792D02*
Y1545113D01*
X2019300Y1544792D02*
Y1545113D01*
X2019400Y1544792D02*
Y1545113D01*
X2019500Y1544792D02*
Y1545113D01*
X2019600Y1544792D02*
Y1545113D01*
X2019700Y1544792D02*
Y1545113D01*
X2019800Y1544792D02*
Y1545113D01*
X2019900Y1544792D02*
Y1545113D01*
X2020000Y1544792D02*
Y1545113D01*
X2020100Y1544792D02*
Y1545113D01*
X2020200Y1544792D02*
Y1545113D01*
X2020300Y1544792D02*
Y1545113D01*
X2021200Y1544559D02*
Y1546127D01*
X2021300Y1544203D02*
Y1546506D01*
X2021400Y1543916D02*
Y1546818D01*
X2021500Y1543676D02*
Y1547018D01*
X2021600Y1543551D02*
Y1547167D01*
X2021700Y1543426D02*
Y1544551D01*
Y1546195D02*
Y1547267D01*
X2021800Y1543339D02*
Y1544218D01*
Y1546529D02*
Y1547363D01*
X2021900Y1543264D02*
Y1543919D01*
Y1546829D02*
Y1547438D01*
X2022000Y1543216D02*
Y1543819D01*
Y1546949D02*
Y1547513D01*
X2022100Y1543196D02*
Y1543719D01*
Y1547069D02*
Y1547558D01*
X2022200Y1543176D02*
Y1543620D01*
Y1547187D02*
Y1547598D01*
X2022300Y1543158D02*
Y1543588D01*
Y1547219D02*
Y1547638D01*
X2022400Y1543142D02*
Y1543560D01*
Y1547247D02*
Y1547655D01*
X2022500Y1543125D02*
Y1543531D01*
Y1547276D02*
Y1547672D01*
X2022600Y1543112D02*
Y1543503D01*
Y1547304D02*
Y1547689D01*
X2022700Y1543128D02*
Y1543504D01*
Y1547305D02*
Y1547689D01*
X2022800Y1543145D02*
Y1543537D01*
Y1547276D02*
Y1547672D01*
X2022900Y1543162D02*
Y1543571D01*
Y1547248D02*
Y1547655D01*
X2023000Y1543180D02*
Y1543604D01*
Y1547219D02*
Y1547639D01*
X2023100Y1543200D02*
Y1543689D01*
Y1547187D02*
Y1547619D01*
X2023200Y1543220D02*
Y1543809D01*
Y1547044D02*
Y1547599D01*
X2023300Y1543299D02*
Y1543929D01*
Y1546894D02*
Y1547568D01*
X2023400Y1543399D02*
Y1544128D01*
Y1546665D02*
Y1547468D01*
X2023500Y1543499D02*
Y1544428D01*
Y1546332D02*
Y1547368D01*
X2023600Y1543599D02*
Y1545315D01*
Y1545374D02*
Y1547268D01*
X2023700Y1543707D02*
Y1547168D01*
X2023800Y1543907D02*
Y1547037D01*
X2023900Y1544141D02*
Y1546870D01*
X2024000Y1544456D02*
Y1546351D01*
X2024100Y1544856D02*
Y1545951D01*
X2024900Y1543240D02*
Y1543600D01*
X2025000Y1543173D02*
Y1543667D01*
X2025100Y1543123D02*
Y1543717D01*
X2025200Y1543158D02*
Y1543682D01*
X2025300Y1543208D02*
Y1543632D01*
X2025400Y1543381D02*
Y1543459D01*
X2026200Y1544214D02*
Y1544337D01*
X2026300Y1543814D02*
Y1544717D01*
X2026400Y1543631D02*
Y1544917D01*
Y1546446D02*
Y1546731D01*
X2026500Y1543456D02*
Y1545035D01*
Y1546132D02*
Y1547091D01*
X2026600Y1543364D02*
Y1545135D01*
Y1545973D02*
Y1547241D01*
X2026700Y1543314D02*
Y1544195D01*
Y1544328D02*
Y1545235D01*
Y1545873D02*
Y1547391D01*
X2026800Y1543264D02*
Y1543875D01*
Y1544663D02*
Y1545296D01*
Y1545773D02*
Y1547452D01*
X2026900Y1543214D02*
Y1543741D01*
Y1544829D02*
Y1545353D01*
Y1545701D02*
Y1546472D01*
Y1546740D02*
Y1547502D01*
X2027000Y1543167D02*
Y1543658D01*
Y1544941D02*
Y1545410D01*
Y1545641D02*
Y1546210D01*
Y1547002D02*
Y1547552D01*
X2027100Y1543156D02*
Y1543618D01*
Y1545016D02*
Y1545467D01*
Y1545581D02*
Y1546061D01*
Y1547143D02*
Y1547602D01*
X2027200Y1543145D02*
Y1543578D01*
Y1545089D02*
Y1545986D01*
Y1547193D02*
Y1547642D01*
X2027300Y1543134D02*
Y1543546D01*
Y1545139D02*
Y1545911D01*
Y1547243D02*
Y1547655D01*
X2027400Y1543123D02*
Y1543529D01*
Y1545189D02*
Y1545849D01*
Y1547270D02*
Y1547667D01*
X2027500Y1543112D02*
Y1543513D01*
Y1545239D02*
Y1545789D01*
Y1547290D02*
Y1547680D01*
X2027600Y1543117D02*
Y1543496D01*
Y1545269D02*
Y1545729D01*
Y1547310D02*
Y1547692D01*
X2027700Y1543126D02*
Y1543501D01*
Y1545226D02*
Y1545742D01*
Y1547303D02*
Y1547691D01*
X2027800Y1543135D02*
Y1543521D01*
Y1545183D02*
Y1545802D01*
Y1547278D02*
Y1547680D01*
X2027900Y1543144D02*
Y1543541D01*
Y1545140D02*
Y1545862D01*
Y1547252D02*
Y1547668D01*
X2028000Y1543153D02*
Y1543570D01*
Y1545097D02*
Y1545934D01*
Y1547202D02*
Y1547657D01*
X2028100Y1543162D02*
Y1543610D01*
Y1545030D02*
Y1545448D01*
Y1545610D02*
Y1546034D01*
Y1547152D02*
Y1547646D01*
X2028200Y1543185D02*
Y1543650D01*
Y1544955D02*
Y1545398D01*
Y1545677D02*
Y1546173D01*
Y1547057D02*
Y1547614D01*
X2028300Y1543235D02*
Y1543717D01*
Y1544860D02*
Y1545348D01*
Y1545744D02*
Y1546397D01*
Y1546863D02*
Y1547548D01*
X2028400Y1543285D02*
Y1543850D01*
Y1544694D02*
Y1545298D01*
Y1545812D02*
Y1547481D01*
X2028500Y1543335D02*
Y1544102D01*
Y1544421D02*
Y1545248D01*
Y1545892D02*
Y1547414D01*
X2028600Y1543385D02*
Y1545172D01*
Y1545972D02*
Y1547298D01*
X2028700Y1543500D02*
Y1545092D01*
Y1546086D02*
Y1547178D01*
X2028800Y1543640D02*
Y1545012D01*
Y1546360D02*
Y1547023D01*
X2028900Y1543780D02*
Y1544814D01*
X2029000Y1544183D02*
Y1544509D01*
X2029600Y1543169D02*
Y1543392D01*
X2029700Y1543169D02*
Y1543654D01*
X2029800Y1543169D02*
Y1543916D01*
X2029900Y1543169D02*
Y1544178D01*
X2030000Y1543169D02*
Y1544440D01*
X2030100Y1543260D02*
Y1544702D01*
X2030200Y1543546D02*
Y1544964D01*
X2030300Y1543832D02*
Y1545226D01*
X2030400Y1544117D02*
Y1545488D01*
X2030500Y1544365D02*
Y1545750D01*
X2030600Y1544372D02*
Y1546012D01*
X2030700Y1544372D02*
Y1544813D01*
Y1545002D02*
Y1546275D01*
X2030800Y1544372D02*
Y1544813D01*
Y1545293D02*
Y1546537D01*
X2030900Y1544372D02*
Y1544813D01*
Y1545584D02*
Y1546799D01*
X2031000Y1544372D02*
Y1544813D01*
Y1545875D02*
Y1547061D01*
X2031100Y1544372D02*
Y1544813D01*
Y1546166D02*
Y1547323D01*
X2031200Y1544372D02*
Y1544813D01*
Y1546457D02*
Y1547585D01*
X2031300Y1544372D02*
Y1544813D01*
Y1546748D02*
Y1547638D01*
X2031400Y1544372D02*
Y1544813D01*
Y1547006D02*
Y1547638D01*
X2031500Y1544372D02*
Y1544813D01*
Y1547135D02*
Y1547638D01*
X2031600Y1544372D02*
Y1544813D01*
Y1546785D02*
Y1547638D01*
X2031700Y1544372D02*
Y1544813D01*
Y1546518D02*
Y1547638D01*
X2031800Y1544372D02*
Y1544813D01*
Y1546252D02*
Y1547513D01*
X2031900Y1544372D02*
Y1544813D01*
Y1545985D02*
Y1547250D01*
X2032000Y1544372D02*
Y1544813D01*
Y1545718D02*
Y1546988D01*
X2032100Y1544372D02*
Y1544813D01*
Y1545452D02*
Y1546726D01*
X2032200Y1544372D02*
Y1544813D01*
Y1545185D02*
Y1546464D01*
X2032300Y1544372D02*
Y1544824D01*
Y1544918D02*
Y1546202D01*
Y1651206D02*
Y1651512D01*
X2032400Y1544370D02*
Y1545940D01*
Y1651206D02*
Y1651512D01*
X2032500Y1544176D02*
Y1545678D01*
Y1651206D02*
Y1651512D01*
X2032600Y1543926D02*
Y1545416D01*
Y1651206D02*
Y1651512D01*
X2032700Y1543676D02*
Y1545154D01*
Y1651206D02*
Y1651512D01*
X2032800Y1543426D02*
Y1544892D01*
Y1651206D02*
Y1651512D01*
X2032900Y1543176D02*
Y1544630D01*
Y1651206D02*
Y1651512D01*
X2033000Y1543169D02*
Y1544368D01*
Y1651206D02*
Y1651512D01*
X2033100Y1543169D02*
Y1544106D01*
Y1651206D02*
Y1651512D01*
X2033200Y1543169D02*
Y1543844D01*
Y1651182D02*
Y1651512D01*
X2033300Y1543169D02*
Y1543581D01*
Y1648186D02*
Y1651512D01*
X2033400Y1543169D02*
Y1543319D01*
Y1648186D02*
Y1651512D01*
X2033500Y1648186D02*
Y1651512D01*
X2033600Y1651206D02*
Y1651512D01*
X2033700Y1651206D02*
Y1651512D01*
X2033800Y1651206D02*
Y1651512D01*
X2033900Y1651206D02*
Y1651512D01*
X2034000Y1651206D02*
Y1651512D01*
X2034100Y1651206D02*
Y1651512D01*
X2034200Y1544792D02*
Y1545113D01*
Y1651206D02*
Y1651512D01*
X2034300Y1544792D02*
Y1545113D01*
Y1588959D02*
Y1589337D01*
Y1651206D02*
Y1651512D01*
X2034400Y1544792D02*
Y1545113D01*
Y1588489D02*
Y1589824D01*
Y1651206D02*
Y1651512D01*
X2034500Y1544792D02*
Y1545113D01*
Y1588275D02*
Y1590074D01*
Y1651206D02*
Y1651512D01*
X2034600Y1544792D02*
Y1545113D01*
Y1588104D02*
Y1590240D01*
X2034700Y1544792D02*
Y1545113D01*
Y1587954D02*
Y1588724D01*
Y1589639D02*
Y1590360D01*
X2034800Y1544792D02*
Y1545113D01*
Y1587864D02*
Y1588481D01*
Y1589895D02*
Y1590465D01*
X2034900Y1544792D02*
Y1545113D01*
Y1587784D02*
Y1588331D01*
Y1590062D02*
Y1590549D01*
X2035000Y1544792D02*
Y1545113D01*
Y1587724D02*
Y1588181D01*
Y1590228D02*
Y1590632D01*
X2035100Y1544792D02*
Y1545113D01*
Y1587674D02*
Y1588104D01*
Y1590304D02*
Y1590683D01*
X2035200Y1544792D02*
Y1545113D01*
Y1587626D02*
Y1588029D01*
Y1590378D02*
Y1590726D01*
Y1648186D02*
Y1648447D01*
Y1650937D02*
Y1651239D01*
X2035300Y1544792D02*
Y1545113D01*
Y1587597D02*
Y1587954D01*
Y1590438D02*
Y1590769D01*
Y1648186D02*
Y1648447D01*
Y1650966D02*
Y1651268D01*
X2035400Y1544792D02*
Y1545113D01*
Y1587569D02*
Y1587888D01*
Y1590498D02*
Y1590801D01*
Y1648186D02*
Y1648447D01*
Y1650996D02*
Y1651298D01*
X2035500Y1544792D02*
Y1545113D01*
Y1587540D02*
Y1587848D01*
Y1590526D02*
Y1590830D01*
Y1648186D02*
Y1648447D01*
Y1651025D02*
Y1651328D01*
X2035600Y1544792D02*
Y1545113D01*
Y1587528D02*
Y1587808D01*
Y1590543D02*
Y1590858D01*
Y1648186D02*
Y1648447D01*
Y1651055D02*
Y1651357D01*
X2035700Y1544792D02*
Y1545113D01*
Y1587515D02*
Y1587802D01*
Y1590560D02*
Y1590876D01*
Y1648186D02*
Y1648447D01*
Y1651084D02*
Y1651387D01*
X2035800Y1587503D02*
Y1587802D01*
Y1590576D02*
Y1590889D01*
Y1648186D02*
Y1648447D01*
Y1651113D02*
Y1651416D01*
X2035900Y1587500D02*
Y1587802D01*
Y1590593D02*
Y1590901D01*
Y1648186D02*
Y1651446D01*
X2036000Y1587509D02*
Y1587811D01*
Y1590605D02*
Y1590911D01*
Y1648186D02*
Y1651476D01*
X2036100Y1587517D02*
Y1587820D01*
Y1590594D02*
Y1590901D01*
Y1648186D02*
Y1651505D01*
X2036200Y1587525D02*
Y1587829D01*
Y1590583D02*
Y1590891D01*
Y1648186D02*
Y1651535D01*
X2036300Y1587534D02*
Y1587838D01*
Y1590572D02*
Y1590881D01*
Y1648186D02*
Y1648447D01*
X2036400Y1547383D02*
Y1547638D01*
Y1587550D02*
Y1587848D01*
Y1590561D02*
Y1590871D01*
Y1648186D02*
Y1648447D01*
X2036500Y1547112D02*
Y1547638D01*
Y1587594D02*
Y1587891D01*
Y1590528D02*
Y1590840D01*
Y1648186D02*
Y1648447D01*
X2036600Y1546841D02*
Y1547638D01*
Y1587639D02*
Y1587935D01*
Y1590495D02*
Y1590803D01*
Y1648186D02*
Y1648447D01*
X2036700Y1546569D02*
Y1547638D01*
Y1587683D02*
Y1587979D01*
Y1590461D02*
Y1590765D01*
Y1648186D02*
Y1648447D01*
X2036800Y1546298D02*
Y1547638D01*
Y1648186D02*
Y1648447D01*
X2036900Y1546026D02*
Y1547527D01*
Y1648186D02*
Y1648447D01*
X2037000Y1545755D02*
Y1547246D01*
X2037100Y1545483D02*
Y1546965D01*
X2037200Y1545212D02*
Y1546684D01*
X2037300Y1544941D02*
Y1546403D01*
X2037400Y1544669D02*
Y1546122D01*
Y1587737D02*
Y1587980D01*
X2037500Y1544398D02*
Y1545841D01*
Y1587674D02*
Y1587917D01*
X2037600Y1544126D02*
Y1545560D01*
Y1587612D02*
Y1587855D01*
Y1590506D02*
Y1590745D01*
X2037700Y1543855D02*
Y1545279D01*
Y1587549D02*
Y1587801D01*
Y1590564D02*
Y1590795D01*
X2037800Y1543583D02*
Y1544998D01*
Y1587531D02*
Y1587791D01*
Y1589119D02*
Y1589380D01*
Y1590608D02*
Y1590845D01*
X2037900Y1543312D02*
Y1544717D01*
Y1587521D02*
Y1587781D01*
Y1589119D02*
Y1589380D01*
Y1590621D02*
Y1590874D01*
X2038000Y1543169D02*
Y1544436D01*
Y1587511D02*
Y1587771D01*
Y1589116D02*
Y1589383D01*
Y1590633D02*
Y1590885D01*
X2038100Y1543169D02*
Y1544155D01*
Y1587501D02*
Y1587761D01*
Y1589105D02*
Y1589396D01*
Y1590646D02*
Y1590897D01*
X2038200Y1543169D02*
Y1543812D01*
Y1587501D02*
Y1587764D01*
Y1589094D02*
Y1589408D01*
Y1590644D02*
Y1590908D01*
X2038300Y1543169D02*
Y1543675D01*
Y1587510D02*
Y1587778D01*
Y1589083D02*
Y1589421D01*
Y1590627D02*
Y1590905D01*
X2038400Y1543169D02*
Y1544165D01*
Y1587519D02*
Y1587792D01*
Y1589068D02*
Y1589445D01*
Y1590611D02*
Y1590894D01*
X2038500Y1543169D02*
Y1544446D01*
Y1587528D02*
Y1587815D01*
Y1589025D02*
Y1589479D01*
Y1590578D02*
Y1590883D01*
X2038600Y1543328D02*
Y1544727D01*
Y1587537D02*
Y1587875D01*
Y1588982D02*
Y1589185D01*
Y1589362D02*
Y1589512D01*
Y1590538D02*
Y1590872D01*
X2038700Y1543610D02*
Y1545008D01*
Y1587579D02*
Y1587935D01*
Y1588939D02*
Y1589156D01*
Y1589395D02*
Y1589634D01*
Y1590469D02*
Y1590828D01*
X2038800Y1543891D02*
Y1545289D01*
Y1587634D02*
Y1588026D01*
Y1588850D02*
Y1589127D01*
Y1589429D02*
Y1589858D01*
Y1590203D02*
Y1590771D01*
X2038900Y1544173D02*
Y1545570D01*
Y1587690D02*
Y1588126D01*
Y1588750D02*
Y1589089D01*
Y1589508D02*
Y1590714D01*
X2039000Y1544454D02*
Y1545851D01*
Y1587745D02*
Y1589039D01*
Y1589588D02*
Y1590612D01*
X2039100Y1544736D02*
Y1546132D01*
Y1587871D02*
Y1588989D01*
Y1589775D02*
Y1590492D01*
X2039200Y1545017D02*
Y1546413D01*
Y1588011D02*
Y1588846D01*
X2039300Y1545299D02*
Y1546694D01*
Y1588369D02*
Y1588550D01*
X2039400Y1545580D02*
Y1546975D01*
X2039500Y1545862D02*
Y1547256D01*
X2039600Y1546143D02*
Y1547537D01*
X2039700Y1546425D02*
Y1547638D01*
X2039800Y1546706D02*
Y1547638D01*
X2039900Y1546988D02*
Y1547638D01*
X2040000Y1547269D02*
Y1547638D01*
X2040100Y1547551D02*
Y1547638D01*
X2040600Y1544618D02*
Y1546069D01*
X2040700Y1544247D02*
Y1546455D01*
X2040800Y1543952D02*
Y1546789D01*
X2040900Y1543702D02*
Y1546989D01*
X2041000Y1543569D02*
Y1547153D01*
X2041100Y1543444D02*
Y1544735D01*
Y1545999D02*
Y1547253D01*
X2041200Y1543350D02*
Y1544266D01*
Y1546481D02*
Y1547352D01*
X2041300Y1543275D02*
Y1543937D01*
Y1546810D02*
Y1547427D01*
X2041400Y1543219D02*
Y1543834D01*
Y1546932D02*
Y1547502D01*
X2041500Y1543199D02*
Y1543734D01*
Y1547052D02*
Y1547552D01*
X2041600Y1543179D02*
Y1543634D01*
Y1547172D02*
Y1547592D01*
X2041700Y1543161D02*
Y1543592D01*
Y1547215D02*
Y1547632D01*
X2041800Y1543144D02*
Y1543564D01*
Y1547243D02*
Y1547653D01*
X2041900Y1543127D02*
Y1543535D01*
Y1547272D02*
Y1547669D01*
X2042000Y1543111D02*
Y1543507D01*
Y1547300D02*
Y1547686D01*
X2042100Y1543126D02*
Y1543499D01*
Y1547309D02*
Y1547691D01*
X2042200Y1543143D02*
Y1543532D01*
Y1547280D02*
Y1547674D01*
X2042300Y1543159D02*
Y1543566D01*
Y1547252D02*
Y1547658D01*
X2042400Y1543177D02*
Y1543599D01*
Y1547223D02*
Y1547641D01*
X2042500Y1543197D02*
Y1543671D01*
Y1547195D02*
Y1547622D01*
X2042600Y1543217D02*
Y1543791D01*
Y1547065D02*
Y1547602D01*
X2042700Y1543284D02*
Y1543911D01*
Y1546915D02*
Y1547582D01*
X2042800Y1543384D02*
Y1544084D01*
Y1546714D02*
Y1547483D01*
X2042900Y1543484D02*
Y1544384D01*
Y1546381D02*
Y1547383D01*
X2043000Y1543584D02*
Y1545125D01*
Y1545578D02*
Y1547283D01*
X2043100Y1543684D02*
Y1547183D01*
X2043200Y1543878D02*
Y1547061D01*
X2043300Y1544097D02*
Y1546895D01*
X2043400Y1544398D02*
Y1546409D01*
X2043500Y1544798D02*
Y1546009D01*
X2044100Y1544803D02*
Y1545884D01*
X2044200Y1544403D02*
Y1546284D01*
X2044300Y1544086D02*
Y1546643D01*
X2044400Y1543818D02*
Y1546896D01*
X2044500Y1543627D02*
Y1547096D01*
X2044600Y1543502D02*
Y1545337D01*
Y1545350D02*
Y1547207D01*
X2044700Y1543385D02*
Y1544420D01*
Y1546326D02*
Y1547307D01*
X2044800Y1543310D02*
Y1544087D01*
Y1546660D02*
Y1547392D01*
X2044900Y1543235D02*
Y1543880D01*
Y1546876D02*
Y1547467D01*
X2045000Y1543209D02*
Y1543780D01*
Y1546996D02*
Y1547533D01*
X2045100Y1543189D02*
Y1543680D01*
Y1547116D02*
Y1547573D01*
X2045200Y1543169D02*
Y1543606D01*
Y1547201D02*
Y1547613D01*
X2045300Y1543152D02*
Y1543577D01*
Y1547230D02*
Y1547645D01*
X2045400Y1543135D02*
Y1543549D01*
Y1547258D02*
Y1547662D01*
X2045500Y1543119D02*
Y1543520D01*
Y1547287D02*
Y1547678D01*
X2045600Y1543118D02*
Y1543491D01*
Y1547316D02*
Y1547695D01*
X2045700Y1543135D02*
Y1543517D01*
Y1547293D02*
Y1547682D01*
X2045800Y1543151D02*
Y1543550D01*
Y1547265D02*
Y1547666D01*
X2045900Y1543168D02*
Y1543584D01*
Y1547236D02*
Y1547649D01*
X2046000Y1543188D02*
Y1543619D01*
Y1547208D02*
Y1547631D01*
X2046100Y1543208D02*
Y1543736D01*
Y1547135D02*
Y1547611D01*
X2046200Y1543238D02*
Y1543856D01*
Y1546985D02*
Y1547591D01*
X2046300Y1543338D02*
Y1543976D01*
Y1546835D02*
Y1547529D01*
X2046400Y1543438D02*
Y1544245D01*
Y1546535D02*
Y1547429D01*
X2046500Y1543538D02*
Y1544545D01*
Y1546202D02*
Y1547329D01*
X2046600Y1543638D02*
Y1547229D01*
X2046700Y1543786D02*
Y1547129D01*
X2046800Y1543986D02*
Y1546972D01*
X2046900Y1544258D02*
Y1546728D01*
X2047000Y1544613D02*
Y1546194D01*
X2058300Y1559565D02*
Y1561854D01*
X2058400Y1559125D02*
Y1561854D01*
X2058500Y1558945D02*
Y1561854D01*
X2058600Y1558805D02*
Y1561854D01*
X2058700Y1558738D02*
Y1559337D01*
X2058800Y1558671D02*
Y1559162D01*
X2058900Y1558605D02*
Y1559033D01*
X2059000Y1558562D02*
Y1558950D01*
X2059100Y1558546D02*
Y1558867D01*
X2059200Y1558529D02*
Y1558828D01*
X2059300Y1558512D02*
Y1558815D01*
X2059400Y1558496D02*
Y1558803D01*
X2059500Y1558483D02*
Y1558790D01*
X2059600Y1558483D02*
Y1558798D01*
X2059700Y1558483D02*
Y1558810D01*
X2059800Y1558489D02*
Y1558823D01*
X2059900Y1558522D02*
Y1558838D01*
X2060000Y1558555D02*
Y1558916D01*
X2060100Y1558593D02*
Y1558996D01*
X2060200Y1558633D02*
Y1559129D01*
X2060300Y1558698D02*
Y1559304D01*
X2060400Y1558798D02*
Y1561854D01*
X2060500Y1558922D02*
Y1561854D01*
X2060600Y1559129D02*
Y1561854D01*
X2060700Y1559457D02*
Y1561854D01*
X2061500Y1558528D02*
Y1558855D01*
X2061600Y1558528D02*
Y1558955D01*
X2061700Y1558528D02*
Y1559055D01*
Y1561332D02*
Y1561565D01*
X2061800Y1558528D02*
Y1559155D01*
Y1561410D02*
Y1561645D01*
X2061900Y1558528D02*
Y1558789D01*
Y1558899D02*
Y1559255D01*
Y1561470D02*
Y1561714D01*
X2062000Y1558528D02*
Y1558788D01*
Y1558994D02*
Y1559355D01*
Y1561530D02*
Y1561774D01*
X2062100Y1558528D02*
Y1558788D01*
Y1559088D02*
Y1559455D01*
Y1561560D02*
Y1561817D01*
X2062200Y1558528D02*
Y1558788D01*
Y1559183D02*
Y1559555D01*
Y1561580D02*
Y1561834D01*
X2062300Y1558528D02*
Y1558788D01*
Y1559277D02*
Y1559655D01*
Y1561600D02*
Y1561851D01*
X2062400Y1558528D02*
Y1558788D01*
Y1559372D02*
Y1559755D01*
Y1561620D02*
Y1561870D01*
X2062500Y1558528D02*
Y1558788D01*
Y1559466D02*
Y1559855D01*
Y1561638D02*
Y1561890D01*
X2062600Y1558528D02*
Y1558788D01*
Y1559560D02*
Y1559955D01*
Y1561621D02*
Y1561892D01*
X2062700Y1558528D02*
Y1558788D01*
Y1559656D02*
Y1560055D01*
Y1561605D02*
Y1561882D01*
X2062800Y1558528D02*
Y1558788D01*
Y1559756D02*
Y1560155D01*
Y1561579D02*
Y1561872D01*
X2062900Y1558528D02*
Y1558788D01*
Y1559856D02*
Y1560275D01*
Y1561504D02*
Y1561862D01*
X2063000Y1558528D02*
Y1558788D01*
Y1559956D02*
Y1560395D01*
Y1561418D02*
Y1561835D01*
X2063100Y1558528D02*
Y1558788D01*
Y1560060D02*
Y1560633D01*
Y1561285D02*
Y1561764D01*
X2063200Y1558528D02*
Y1558788D01*
Y1560193D02*
Y1561692D01*
X2063300Y1558528D02*
Y1558788D01*
Y1560327D02*
Y1561607D01*
X2063400Y1558528D02*
Y1558788D01*
Y1560508D02*
Y1561487D01*
X2063500Y1560823D02*
Y1561235D01*
X2064100Y1559654D02*
Y1560637D01*
X2064200Y1559289D02*
Y1561020D01*
X2064300Y1559012D02*
Y1561301D01*
X2064400Y1558835D02*
Y1561485D01*
X2064500Y1558710D02*
Y1559462D01*
Y1560875D02*
Y1561585D01*
X2064600Y1558629D02*
Y1559128D01*
Y1561208D02*
Y1561674D01*
X2064700Y1558565D02*
Y1558996D01*
Y1561356D02*
Y1561749D01*
X2064800Y1558545D02*
Y1558896D01*
Y1561476D02*
Y1561798D01*
X2064900Y1558526D02*
Y1558827D01*
Y1561555D02*
Y1561838D01*
X2065000Y1558509D02*
Y1558798D01*
Y1561583D02*
Y1561865D01*
X2065100Y1558492D02*
Y1558769D01*
Y1561612D02*
Y1561882D01*
X2065200Y1558491D02*
Y1558743D01*
Y1561638D02*
Y1561898D01*
X2065300Y1558508D02*
Y1558774D01*
Y1561611D02*
Y1561881D01*
X2065400Y1558524D02*
Y1558807D01*
Y1561583D02*
Y1561865D01*
X2065500Y1558544D02*
Y1558844D01*
Y1561554D02*
Y1561847D01*
X2065600Y1558564D02*
Y1558962D01*
Y1561460D02*
Y1561827D01*
X2065700Y1558644D02*
Y1559082D01*
Y1561310D02*
Y1561783D01*
X2065800Y1558744D02*
Y1559311D01*
Y1561051D02*
Y1561683D01*
X2065900Y1558844D02*
Y1559815D01*
Y1560501D02*
Y1561583D01*
X2066000Y1558974D02*
Y1561483D01*
X2066100Y1559175D02*
Y1561327D01*
X2066200Y1559487D02*
Y1560894D01*
X2074900Y1553201D02*
Y1553942D01*
X2075000Y1553201D02*
Y1553942D01*
X2075100Y1553201D02*
Y1553942D01*
X2075200Y1553201D02*
Y1553942D01*
X2075300Y1553201D02*
Y1553942D01*
X2075400Y1553201D02*
Y1553942D01*
X2075500Y1553201D02*
Y1553942D01*
X2075600Y1553201D02*
Y1553942D01*
X2075700Y1553201D02*
Y1553942D01*
X2075800Y1553201D02*
Y1553942D01*
X2075900Y1553201D02*
Y1553942D01*
X2076000Y1553201D02*
Y1553942D01*
X2076100Y1553201D02*
Y1553942D01*
X2076200Y1553201D02*
Y1553942D01*
X2076300Y1553201D02*
Y1553942D01*
X2076400Y1553201D02*
Y1553942D01*
Y1578759D02*
Y1578807D01*
X2076500Y1553201D02*
Y1553942D01*
Y1573114D02*
Y1573465D01*
Y1575368D02*
Y1577116D01*
Y1578129D02*
Y1579344D01*
X2076600Y1553201D02*
Y1553942D01*
Y1573114D02*
Y1573465D01*
Y1575368D02*
Y1577116D01*
Y1577904D02*
Y1579588D01*
X2076700Y1553201D02*
Y1553942D01*
Y1573114D02*
Y1573465D01*
Y1575368D02*
Y1577116D01*
Y1577892D02*
Y1579758D01*
X2076800Y1553201D02*
Y1553942D01*
Y1573114D02*
Y1573465D01*
Y1576765D02*
Y1577116D01*
Y1577892D02*
Y1578121D01*
Y1579265D02*
Y1579883D01*
X2076900Y1553201D02*
Y1553942D01*
Y1573114D02*
Y1573465D01*
Y1576765D02*
Y1577116D01*
Y1577892D02*
Y1577896D01*
Y1579399D02*
Y1579969D01*
X2077000Y1553201D02*
Y1553942D01*
Y1573114D02*
Y1573465D01*
Y1576765D02*
Y1577116D01*
Y1579532D02*
Y1580035D01*
X2077100Y1553201D02*
Y1553942D01*
Y1573114D02*
Y1573465D01*
Y1576765D02*
Y1577116D01*
Y1579651D02*
Y1580101D01*
X2077200Y1553201D02*
Y1553942D01*
Y1573114D02*
Y1573465D01*
Y1576765D02*
Y1577116D01*
Y1579718D02*
Y1580151D01*
X2077300Y1553199D02*
Y1553944D01*
Y1572663D02*
Y1575042D01*
Y1576765D02*
Y1577116D01*
Y1579785D02*
Y1580201D01*
X2077400Y1550676D02*
Y1556467D01*
Y1572663D02*
Y1575042D01*
Y1576765D02*
Y1577116D01*
Y1579851D02*
Y1580242D01*
X2077500Y1550676D02*
Y1556467D01*
Y1572663D02*
Y1575042D01*
Y1576765D02*
Y1577116D01*
Y1579917D02*
Y1580271D01*
X2077600Y1550676D02*
Y1556467D01*
Y1573113D02*
Y1573465D01*
Y1574691D02*
Y1575009D01*
Y1576765D02*
Y1577116D01*
Y1579935D02*
Y1580299D01*
X2077700Y1550676D02*
Y1556467D01*
Y1573114D02*
Y1573465D01*
Y1574643D02*
Y1574943D01*
Y1576765D02*
Y1577116D01*
Y1579952D02*
Y1580321D01*
X2077800Y1550676D02*
Y1556467D01*
Y1573114D02*
Y1573465D01*
Y1574578D02*
Y1574877D01*
Y1576765D02*
Y1577116D01*
Y1579968D02*
Y1580333D01*
X2077900Y1550676D02*
Y1556467D01*
Y1573114D02*
Y1573465D01*
Y1574513D02*
Y1574811D01*
Y1576765D02*
Y1577116D01*
Y1579985D02*
Y1580344D01*
X2078000Y1550676D02*
Y1556467D01*
Y1573114D02*
Y1573465D01*
Y1574448D02*
Y1574745D01*
Y1575548D02*
Y1577116D01*
Y1580002D02*
Y1580355D01*
X2078100Y1553192D02*
Y1553951D01*
Y1573114D02*
Y1573465D01*
Y1574384D02*
Y1574679D01*
Y1575548D02*
Y1577116D01*
Y1580006D02*
Y1580356D01*
X2078200Y1553201D02*
Y1553942D01*
Y1573114D02*
Y1573465D01*
Y1574319D02*
Y1574613D01*
Y1575548D02*
Y1577116D01*
Y1579992D02*
Y1580344D01*
X2078300Y1553201D02*
Y1553942D01*
Y1573114D02*
Y1573465D01*
Y1574254D02*
Y1574547D01*
Y1576755D02*
Y1577116D01*
Y1579977D02*
Y1580331D01*
X2078400Y1553201D02*
Y1553942D01*
Y1573114D02*
Y1573465D01*
Y1574190D02*
Y1574481D01*
Y1576765D02*
Y1577116D01*
Y1579963D02*
Y1580319D01*
X2078500Y1553201D02*
Y1553942D01*
Y1573114D02*
Y1573465D01*
Y1574125D02*
Y1574415D01*
Y1576765D02*
Y1577116D01*
Y1579946D02*
Y1580295D01*
Y1633837D02*
Y1634832D01*
Y1635842D02*
Y1637500D01*
Y1638579D02*
Y1639487D01*
X2078600Y1553201D02*
Y1553942D01*
Y1573114D02*
Y1573465D01*
Y1574060D02*
Y1574349D01*
Y1576765D02*
Y1577116D01*
Y1579929D02*
Y1580270D01*
Y1633540D02*
Y1635066D01*
Y1635842D02*
Y1637500D01*
Y1638379D02*
Y1639662D01*
X2078700Y1553201D02*
Y1553942D01*
Y1573114D02*
Y1573465D01*
Y1573996D02*
Y1574283D01*
Y1576765D02*
Y1577116D01*
Y1579897D02*
Y1580245D01*
Y1633322D02*
Y1635066D01*
Y1635842D02*
Y1637500D01*
Y1638321D02*
Y1638810D01*
Y1639052D02*
Y1639779D01*
X2078800Y1553201D02*
Y1553942D01*
Y1573114D02*
Y1573465D01*
Y1573931D02*
Y1574217D01*
Y1576765D02*
Y1577116D01*
Y1579837D02*
Y1580214D01*
Y1633202D02*
Y1633870D01*
Y1634798D02*
Y1635066D01*
Y1635842D02*
Y1636198D01*
Y1638321D02*
Y1638448D01*
Y1639407D02*
Y1639862D01*
X2078900Y1553201D02*
Y1553942D01*
Y1573114D02*
Y1573465D01*
Y1573866D02*
Y1574151D01*
Y1576765D02*
Y1577116D01*
Y1579777D02*
Y1580171D01*
Y1633082D02*
Y1633613D01*
Y1635842D02*
Y1636193D01*
Y1639515D02*
Y1639938D01*
X2079000Y1553201D02*
Y1553942D01*
Y1573114D02*
Y1573465D01*
Y1573801D02*
Y1574085D01*
Y1576765D02*
Y1577116D01*
Y1579717D02*
Y1580129D01*
Y1632997D02*
Y1633459D01*
Y1635842D02*
Y1636193D01*
Y1639565D02*
Y1639953D01*
X2079100Y1553201D02*
Y1553942D01*
Y1573114D02*
Y1573465D01*
Y1573737D02*
Y1574019D01*
Y1576765D02*
Y1577116D01*
Y1579657D02*
Y1580074D01*
Y1632914D02*
Y1633326D01*
Y1635842D02*
Y1636193D01*
Y1639593D02*
Y1639967D01*
X2079200Y1553201D02*
Y1553942D01*
Y1573114D02*
Y1573465D01*
Y1573671D02*
Y1573953D01*
Y1576765D02*
Y1577116D01*
Y1579547D02*
Y1579991D01*
Y1632845D02*
Y1633263D01*
Y1635842D02*
Y1636193D01*
Y1639609D02*
Y1639977D01*
X2079300Y1553201D02*
Y1553942D01*
Y1573114D02*
Y1573465D01*
Y1573605D02*
Y1573887D01*
Y1576765D02*
Y1577116D01*
Y1579405D02*
Y1579907D01*
Y1632802D02*
Y1633203D01*
Y1635842D02*
Y1636193D01*
Y1639626D02*
Y1639962D01*
X2079400Y1553201D02*
Y1553942D01*
Y1573114D02*
Y1573465D01*
Y1573572D02*
Y1573821D01*
Y1576765D02*
Y1577116D01*
Y1577892D02*
Y1578051D01*
Y1579238D02*
Y1579799D01*
Y1632759D02*
Y1633143D01*
Y1635842D02*
Y1636193D01*
Y1639613D02*
Y1639948D01*
X2079500Y1553201D02*
Y1553942D01*
Y1573114D02*
Y1573755D01*
Y1575458D02*
Y1577116D01*
Y1577892D02*
Y1578580D01*
Y1578705D02*
Y1579679D01*
Y1632721D02*
Y1633083D01*
Y1635842D02*
Y1636193D01*
Y1639593D02*
Y1639928D01*
X2079600Y1553201D02*
Y1553942D01*
Y1573114D02*
Y1573689D01*
Y1575458D02*
Y1577116D01*
Y1577892D02*
Y1579502D01*
Y1632696D02*
Y1633035D01*
Y1635842D02*
Y1636193D01*
Y1639559D02*
Y1639878D01*
X2079700Y1553201D02*
Y1553942D01*
Y1573114D02*
Y1573623D01*
Y1575458D02*
Y1577116D01*
Y1578029D02*
Y1579247D01*
Y1632671D02*
Y1633018D01*
Y1635842D02*
Y1636193D01*
Y1639499D02*
Y1639828D01*
X2079800Y1553201D02*
Y1553942D01*
Y1578520D02*
Y1578759D01*
Y1632646D02*
Y1633001D01*
Y1635842D02*
Y1636193D01*
Y1639438D02*
Y1639732D01*
X2079900Y1553201D02*
Y1553942D01*
Y1632631D02*
Y1632986D01*
Y1635842D02*
Y1636193D01*
Y1639167D02*
Y1639607D01*
X2080000Y1553201D02*
Y1553942D01*
Y1632618D02*
Y1632971D01*
Y1635842D02*
Y1637410D01*
Y1638547D02*
Y1639324D01*
X2080100Y1553201D02*
Y1553942D01*
Y1632606D02*
Y1632957D01*
Y1635842D02*
Y1637410D01*
Y1638547D02*
Y1639305D01*
X2080200Y1553201D02*
Y1553942D01*
Y1632599D02*
Y1632950D01*
Y1635842D02*
Y1637410D01*
Y1638547D02*
Y1639571D01*
X2080300Y1553201D02*
Y1553942D01*
Y1632610D02*
Y1632967D01*
Y1635842D02*
Y1636194D01*
Y1639274D02*
Y1639805D01*
X2080400Y1553201D02*
Y1553942D01*
Y1632621D02*
Y1632984D01*
Y1635842D02*
Y1636193D01*
Y1639507D02*
Y1639938D01*
X2080500Y1553201D02*
Y1553942D01*
Y1632632D02*
Y1633000D01*
Y1635842D02*
Y1636193D01*
Y1639613D02*
Y1640005D01*
X2080600Y1553201D02*
Y1553942D01*
Y1632648D02*
Y1633017D01*
Y1635842D02*
Y1636193D01*
Y1639711D02*
Y1640072D01*
X2080700Y1632677D02*
Y1633034D01*
Y1635842D02*
Y1636193D01*
Y1639732D02*
Y1640086D01*
X2080800Y1632706D02*
Y1633082D01*
Y1635842D02*
Y1636193D01*
Y1639748D02*
Y1640100D01*
X2080900Y1632739D02*
Y1633149D01*
Y1635842D02*
Y1636193D01*
Y1639764D02*
Y1640113D01*
X2081000Y1632789D02*
Y1633216D01*
Y1635842D02*
Y1636193D01*
Y1639747D02*
Y1640091D01*
X2081100Y1632839D02*
Y1633282D01*
Y1635842D02*
Y1636193D01*
Y1639731D02*
Y1640068D01*
X2081200Y1632898D02*
Y1633378D01*
Y1635842D02*
Y1636193D01*
Y1639707D02*
Y1640046D01*
X2081300Y1632965D02*
Y1633511D01*
Y1635842D02*
Y1636193D01*
Y1639607D02*
Y1640015D01*
X2081400Y1633032D02*
Y1633644D01*
Y1634919D02*
Y1635066D01*
Y1635842D02*
Y1636193D01*
Y1638186D02*
Y1638269D01*
Y1639499D02*
Y1639944D01*
X2081500Y1633154D02*
Y1633851D01*
Y1634581D02*
Y1635066D01*
Y1635842D02*
Y1637590D01*
Y1638186D02*
Y1638429D01*
Y1639332D02*
Y1639872D01*
X2081600Y1633297D02*
Y1635066D01*
Y1635842D02*
Y1637590D01*
Y1638201D02*
Y1639779D01*
X2081700Y1633497D02*
Y1634910D01*
Y1635842D02*
Y1637590D01*
Y1638361D02*
Y1639599D01*
X2081800Y1633861D02*
Y1634633D01*
Y1638561D02*
Y1639372D01*
X2087900Y1554308D02*
Y1554614D01*
X2088000Y1554308D02*
Y1554614D01*
X2088100Y1554308D02*
Y1554614D01*
X2088200Y1554308D02*
Y1554614D01*
X2088300Y1554308D02*
Y1554614D01*
X2088400Y1554308D02*
Y1554614D01*
X2088500Y1554308D02*
Y1554614D01*
X2088600Y1554308D02*
Y1554614D01*
X2088700Y1554308D02*
Y1554614D01*
X2088800Y1554298D02*
Y1554614D01*
X2088900Y1551288D02*
Y1554614D01*
X2089000Y1551288D02*
Y1554614D01*
X2089100Y1551288D02*
Y1554614D01*
X2089200Y1554304D02*
Y1554614D01*
X2089300Y1554308D02*
Y1554614D01*
X2089400Y1554308D02*
Y1554614D01*
X2089500Y1554308D02*
Y1554614D01*
X2089600Y1554308D02*
Y1554614D01*
X2089700Y1554308D02*
Y1554614D01*
X2089800Y1554308D02*
Y1554614D01*
X2089900Y1554308D02*
Y1554614D01*
X2090000Y1554308D02*
Y1554614D01*
X2090100Y1554308D02*
Y1554614D01*
X2090400Y1552144D02*
Y1552467D01*
X2090500Y1552144D02*
Y1552619D01*
X2090600Y1552144D02*
Y1552770D01*
X2090700Y1552144D02*
Y1552922D01*
X2090800Y1552144D02*
Y1552405D01*
Y1552620D02*
Y1553073D01*
X2090900Y1552144D02*
Y1552405D01*
Y1552774D02*
Y1553225D01*
X2091000Y1552144D02*
Y1552405D01*
Y1552929D02*
Y1553376D01*
X2091100Y1552144D02*
Y1552405D01*
Y1553083D02*
Y1553528D01*
X2091200Y1552144D02*
Y1552405D01*
Y1553238D02*
Y1553680D01*
X2091300Y1552144D02*
Y1552405D01*
Y1553392D02*
Y1553831D01*
X2091400Y1552144D02*
Y1552405D01*
Y1553547D02*
Y1553983D01*
X2091500Y1552144D02*
Y1552405D01*
Y1553702D02*
Y1554134D01*
X2091600Y1552144D02*
Y1552405D01*
Y1553856D02*
Y1554286D01*
X2091700Y1552144D02*
Y1552405D01*
Y1554011D02*
Y1554437D01*
X2091800Y1552144D02*
Y1552405D01*
Y1554176D02*
Y1554589D01*
X2091900Y1552140D02*
Y1552409D01*
Y1554304D02*
Y1554614D01*
X2092000Y1551288D02*
Y1554614D01*
X2092100Y1551288D02*
Y1554614D01*
X2092200Y1551288D02*
Y1554614D01*
X2092300Y1552134D02*
Y1552416D01*
X2092400Y1552144D02*
Y1552405D01*
X2092500Y1552144D02*
Y1552405D01*
X2092600Y1552144D02*
Y1552405D01*
X2092700Y1552144D02*
Y1552405D01*
X2103700Y1554193D02*
Y1554498D01*
X2103800Y1554193D02*
Y1554498D01*
X2103900Y1554193D02*
Y1554498D01*
X2104000Y1554193D02*
Y1554498D01*
X2104100Y1554193D02*
Y1554498D01*
X2104200Y1554193D02*
Y1554498D01*
X2104300Y1554193D02*
Y1554498D01*
X2104400Y1554193D02*
Y1554498D01*
X2104500Y1554193D02*
Y1554498D01*
X2104600Y1554192D02*
Y1554498D01*
X2104700Y1551172D02*
Y1554498D01*
X2104800Y1551172D02*
Y1554498D01*
X2104900Y1551172D02*
Y1554498D01*
X2105000Y1554167D02*
Y1554498D01*
X2105100Y1554193D02*
Y1554498D01*
X2105200Y1554193D02*
Y1554498D01*
X2105300Y1554193D02*
Y1554498D01*
X2105400Y1554193D02*
Y1554498D01*
X2105500Y1554193D02*
Y1554498D01*
X2105600Y1554193D02*
Y1554498D01*
X2105700Y1554193D02*
Y1554498D01*
X2105800Y1554193D02*
Y1554498D01*
X2105900Y1554193D02*
Y1554498D01*
X2106600Y1551295D02*
Y1551551D01*
X2106700Y1551238D02*
Y1551501D01*
Y1552858D02*
Y1554498D01*
X2106800Y1551181D02*
Y1551451D01*
Y1552873D02*
Y1554498D01*
X2106900Y1551162D02*
Y1551426D01*
Y1552885D02*
Y1554498D01*
X2107000Y1551151D02*
Y1551413D01*
Y1552885D02*
Y1553154D01*
Y1554229D02*
Y1554498D01*
X2107100Y1551139D02*
Y1551401D01*
Y1552885D02*
Y1553146D01*
Y1554238D02*
Y1554498D01*
X2107200Y1551128D02*
Y1551388D01*
Y1552875D02*
Y1553146D01*
Y1554238D02*
Y1554498D01*
X2107300Y1551145D02*
Y1551400D01*
Y1552863D02*
Y1553145D01*
Y1554238D02*
Y1554498D01*
X2107400Y1551163D02*
Y1551415D01*
Y1552850D02*
Y1553127D01*
Y1554238D02*
Y1554498D01*
X2107500Y1551181D02*
Y1551429D01*
Y1552835D02*
Y1553108D01*
Y1554238D02*
Y1554498D01*
X2107600Y1551199D02*
Y1551471D01*
Y1552785D02*
Y1553090D01*
Y1554238D02*
Y1554498D01*
X2107700Y1551222D02*
Y1551531D01*
Y1552735D02*
Y1553072D01*
Y1554238D02*
Y1554498D01*
X2107800Y1551278D02*
Y1551602D01*
Y1552671D02*
Y1553047D01*
Y1554238D02*
Y1554498D01*
X2107900Y1551334D02*
Y1551727D01*
Y1552546D02*
Y1552997D01*
Y1554238D02*
Y1554498D01*
X2108000Y1551389D02*
Y1551987D01*
Y1552308D02*
Y1552947D01*
Y1554238D02*
Y1554498D01*
X2108100Y1551466D02*
Y1552897D01*
Y1554238D02*
Y1554498D01*
X2108200Y1551606D02*
Y1552745D01*
Y1554238D02*
Y1554498D01*
X2108300Y1551789D02*
Y1552529D01*
X2111200Y1600316D02*
Y1602199D01*
Y1602795D02*
Y1604453D01*
X2111300Y1600316D02*
Y1602199D01*
Y1602795D02*
Y1604453D01*
X2111400Y1600316D02*
Y1602199D01*
Y1602795D02*
Y1604453D01*
X2111500Y1601082D02*
Y1601433D01*
Y1604102D02*
Y1604453D01*
X2111600Y1601082D02*
Y1601433D01*
Y1604102D02*
Y1604453D01*
X2111700Y1601082D02*
Y1601433D01*
Y1604102D02*
Y1604453D01*
X2111800Y1601082D02*
Y1601433D01*
Y1604102D02*
Y1604453D01*
X2111900Y1601082D02*
Y1601433D01*
Y1604102D02*
Y1604453D01*
X2112000Y1601082D02*
Y1601433D01*
Y1604102D02*
Y1604453D01*
X2112100Y1601082D02*
Y1601433D01*
Y1604102D02*
Y1604453D01*
X2112200Y1601082D02*
Y1601433D01*
Y1604102D02*
Y1604453D01*
X2112300Y1601082D02*
Y1601433D01*
Y1604102D02*
Y1604453D01*
X2112400Y1601082D02*
Y1601433D01*
Y1604102D02*
Y1604453D01*
X2112500Y1601082D02*
Y1601433D01*
Y1604102D02*
Y1604453D01*
X2112600Y1601082D02*
Y1601433D01*
Y1604102D02*
Y1604453D01*
X2112700Y1601082D02*
Y1601433D01*
Y1604102D02*
Y1604453D01*
X2112800Y1601082D02*
Y1601433D01*
Y1604102D02*
Y1604453D01*
X2112900Y1601082D02*
Y1601433D01*
Y1604102D02*
Y1604453D01*
X2113000Y1601082D02*
Y1601433D01*
Y1604102D02*
Y1604453D01*
X2113100Y1601082D02*
Y1601433D01*
Y1604102D02*
Y1604453D01*
X2113200Y1601082D02*
Y1601433D01*
Y1604102D02*
Y1604453D01*
X2113300Y1601082D02*
Y1601433D01*
Y1604102D02*
Y1604453D01*
X2113400Y1601082D02*
Y1601433D01*
Y1604102D02*
Y1604453D01*
X2113500Y1601082D02*
Y1601433D01*
Y1604102D02*
Y1604453D01*
X2113600Y1601082D02*
Y1601433D01*
Y1604102D02*
Y1604453D01*
X2113700Y1601082D02*
Y1601433D01*
Y1604102D02*
Y1604453D01*
X2113800Y1601082D02*
Y1601433D01*
Y1604102D02*
Y1604453D01*
X2113900Y1601082D02*
Y1601433D01*
Y1602092D02*
Y1602199D01*
Y1604102D02*
Y1604453D01*
X2114000Y1601082D02*
Y1601433D01*
Y1601752D02*
Y1602199D01*
Y1604102D02*
Y1604453D01*
X2114100Y1601082D02*
Y1602199D01*
Y1604102D02*
Y1604453D01*
X2114200Y1601082D02*
Y1602098D01*
Y1604102D02*
Y1604453D01*
X2114300Y1601082D02*
Y1601761D01*
Y1604102D02*
Y1604453D01*
X2114400Y1601082D02*
Y1601423D01*
Y1604102D02*
Y1604453D01*
X2114500Y1601082D02*
Y1601086D01*
X2115000Y1552033D02*
Y1552775D01*
X2115100Y1552033D02*
Y1552775D01*
X2115200Y1552033D02*
Y1552775D01*
X2115300Y1552033D02*
Y1552775D01*
X2115400Y1552033D02*
Y1552775D01*
X2115500Y1552033D02*
Y1552775D01*
X2115600Y1552033D02*
Y1552775D01*
X2115700Y1552033D02*
Y1552775D01*
X2115800Y1552033D02*
Y1552775D01*
X2115900Y1552033D02*
Y1552775D01*
X2116000Y1552033D02*
Y1552775D01*
X2116100Y1552033D02*
Y1552775D01*
X2116200Y1552033D02*
Y1552775D01*
X2116300Y1552033D02*
Y1552775D01*
X2116400Y1552033D02*
Y1552775D01*
X2116500Y1552033D02*
Y1552775D01*
X2116600Y1552033D02*
Y1552775D01*
X2116700Y1552033D02*
Y1552775D01*
X2116800Y1552033D02*
Y1552775D01*
X2116900Y1552033D02*
Y1552775D01*
X2117000Y1552033D02*
Y1552775D01*
X2117100Y1552033D02*
Y1552775D01*
X2117200Y1552033D02*
Y1552775D01*
X2117300Y1552033D02*
Y1552775D01*
X2117400Y1552033D02*
Y1552775D01*
X2117500Y1552033D02*
Y1552775D01*
X2117600Y1552033D02*
Y1552775D01*
X2117700Y1552033D02*
Y1552775D01*
X2117800Y1552033D02*
Y1552775D01*
X2117900Y1552033D02*
Y1552775D01*
X2118000Y1552033D02*
Y1552775D01*
X2118100Y1552033D02*
Y1552775D01*
X2118200Y1552033D02*
Y1552775D01*
*
G04 PC Custom Flashes*
G04 Layer Name V00.pcb - flashes*
%LPD*%
*
*
G04 PC Circuitry*
G04 Layer Name V00.pcb - circuitry*
%LPD*%
*
G54D47*
X1964501Y1630665D02*
G75*
G03X1964501I-25590J0D01*
G01X1913320*
X1959580Y1615902D02*
X1944816Y1630665D01*
X1953871Y1614130D02*
X1937336Y1630665D01*
X1949738Y1609996D02*
X1929068Y1630665D01*
X1922178Y1629681D02*
X1945801Y1606059D01*
X1954659Y1630665D02*
X1962533Y1622791D01*
X1915289Y1626728D02*
X1934974Y1607043D01*
X1975652Y1646820D02*
X1984652D01*
Y1617820*
X1975652*
Y1646820*
X2104911Y1639648D02*
G03X2104911I-19685J0D01*
G01X2065541D02*
X2104911D01*
X2071840Y1647129D02*
X2079320Y1639648D01*
X2075383Y1651066D02*
X2086801Y1639648D01*
X2080108Y1654609D02*
X2095068Y1639648D01*
X2100777Y1641814D02*
X2087785Y1654806D01*
X2024837Y1577260D02*
Y1586260D01*
X2053837*
Y1577260*
X2024837*
X1908407Y1602656D02*
Y1563286D01*
X1928092*
Y1602656*
X1908407*
X1891857Y1593192D02*
Y1553822D01*
X1907605*
Y1593192*
X1891857*
X1903668D02*
Y1603034D01*
X1895794*
Y1593192*
X1903668*
Y1553822D02*
Y1543979D01*
X1895794*
Y1553822*
X1903668*
G54D50*
G54D57*
X1893765Y1547938D02*
G03X1893765I-6709J0D01*
G01X1932923Y1547770D02*
G03X1932923I-6708J0D01*
G01X2097351Y1553150D02*
G03X2097351I-6708J0D01*
G01X2112653Y1552686D02*
G03X2112653I-6708J0D01*
G54D64*
G01X2050660Y1569646D02*
X2025070D01*
Y1551929*
X2050660*
Y1569646*
X2005056Y1582165D02*
G03X2005056I-12795J0D01*
G01X1980450D02*
X2004072D01*
X1982419Y1588071D02*
X1988324Y1582165D01*
X1986356Y1590039D02*
X1994230Y1582165D01*
X1986356Y1590039D02*
X1984387Y1592008D01*
X1988324Y1593976D02*
X2000135Y1582165D01*
X1994230Y1593976D02*
X2004072Y1584134D01*
X2107437Y1574902D02*
G03X2107437I-12795J0D01*
G01X2094642Y1586713D02*
Y1563091D01*
X2100547Y1584744D02*
X2094642Y1578839D01*
X2102516Y1580807D02*
X2094642Y1572933D01*
X2102516Y1580807D02*
X2104484Y1582776D01*
X2106453Y1578839D02*
X2094642Y1567028D01*
X2106453Y1572933D02*
X2096610Y1563091D01*
X2108958Y1602037D02*
G03X2108958I-12795J0D01*
G01X2107974D02*
X2084352D01*
G54D65*
X1956382Y1559823D02*
X1956382D01*
G03X1951382I-2500J-0*
G01X1951382*
X1963882D02*
Y1599823D01*
X1943882*
Y1559823*
X1963882*
G54D71*
X2010713Y1646087D02*
X2033400D01*
Y1643405*
X2036451*
Y1646087*
X2059138*
Y1597661*
X2010713*
Y1646087*
X1877953Y1538976D02*
X2122047D01*
Y1661024*
X1877953*
Y1538976*
X1894882Y1649213D02*
G03X1894882I-5118J0D01*
G01X1957874Y1548819D02*
G03X1957874I-5118J0D01*
G01X2119291Y1568504D02*
G03X2119291I-5118J0D01*
G01Y1653150D02*
G03X2119291I-5118J0D01*
G01X2032227Y1646068D02*
X2038067D01*
Y1597661*
X2032227*
Y1646068*
X1891136Y1615360D02*
X1894075D01*
Y1570932*
X1891136*
Y1615360*
X1961883Y1601290D02*
Y1588199D01*
X1974504*
Y1590135*
X1963887*
Y1601290*
X1961883*
X2011971Y1613810D02*
X1996703Y1598542D01*
X1994783Y1600462*
X2012692Y1618370*
Y1614580*
X2011971Y1613810*
X2038879Y1586689D02*
X2043714D01*
Y1550610*
X2038879*
Y1586689*
X1921138Y1633446D02*
X1959773D01*
Y1628088*
X1921138*
Y1633446*
X1907944Y1542919D02*
X1912521D01*
Y1559526*
X1907944*
Y1542919*
X2007937Y1637499D02*
X2023051D01*
Y1636005*
X2007937*
Y1637499*
X1920933Y1614769D02*
Y1603186D01*
X1923203Y1600916*
Y1592682*
X1924978*
Y1602547*
X1922920Y1604605*
Y1614769*
X1920933*
X1921364Y1582701D02*
Y1573902D01*
X1925840Y1567236*
X1927079Y1568475*
X1922925Y1574755*
Y1582701*
X1921364*
G54D110*
G74*
X0Y0D02*
M02*
